<svg width="4" height="18" viewBox="0 0 4 18" fill="none" xmlns="http://www.w3.org/2000/svg">
<path d="M0.579099 10.4318C0.647443 11.1436 0.763318 11.6726 0.922787 12.0217C1.08422 12.3696 1.37082 12.5431 1.78454 12.5431C1.86188 12.5431 1.93107 12.531 1.99969 12.5169C2.07001 12.531 2.13891 12.5431 2.21682 12.5431C2.62941 12.5431 2.91685 12.3696 3.07744 12.0217C3.23776 11.6726 3.35166 11.1436 3.42141 10.4318L3.78872 4.93556C3.85707 3.86428 3.89194 3.09563 3.89194 2.62903C3.89194 1.99397 3.72629 1.49841 3.39385 1.14262C3.06029 0.786844 2.6221 0.609375 2.07929 0.609375C2.05032 0.609375 2.02866 0.615844 2.00026 0.616969C1.97326 0.615844 1.95104 0.609375 1.92291 0.609375C1.37897 0.609375 0.941631 0.786844 0.608631 1.14262C0.275912 1.49897 0.109131 1.99481 0.109131 2.62931C0.109131 3.09591 0.143162 3.86456 0.212631 4.93584L0.579099 10.4318ZM2.01404 14.5521C1.48697 14.5521 1.03922 14.7183 0.667412 15.0507C0.29588 15.3834 0.109693 15.7873 0.109693 16.2615C0.109693 16.7967 0.298131 17.218 0.672193 17.524C1.04794 17.83 1.48613 17.983 1.98704 17.983C2.49694 17.983 2.9416 17.8323 3.32185 17.5299C3.70154 17.2284 3.89138 16.8049 3.89138 16.2621C3.89138 15.7879 3.70969 15.384 3.34632 15.0513C2.98294 14.7183 2.53885 14.5521 2.01319 14.5521" fill="#E3170A"/>
</svg>
