<svg width="24" height="24" viewBox="0 0 24 24" fill="none" xmlns="http://www.w3.org/2000/svg">
<g clip-path="url(#clip0_1366_6918)">
<path d="M23.4516 20.7986L17.8407 15.1876C19.1166 13.2934 19.7462 10.9267 19.4091 8.40484C18.8359 4.11343 15.3179 0.623586 11.0232 0.0798358C4.63883 -0.728289 -0.728362 4.63984 0.0825755 11.0205C0.626326 15.3161 4.11711 18.8345 8.40758 19.4064C10.9299 19.7435 13.2966 19.1141 15.1904 17.838L20.8013 23.4489C21.5335 24.1811 22.7209 24.1811 23.453 23.4489C24.1829 22.7205 24.1829 21.5298 23.4516 20.7986ZM13.5001 10.8751H10.8329V13.5001C10.8329 14.1217 10.3295 14.6251 9.75008 14.6251C9.12664 14.6251 8.62508 14.1236 8.62508 13.5001V10.8751H5.95789C5.37664 10.8751 4.87508 10.3736 4.87508 9.75015C4.87508 9.12671 5.37851 8.62515 5.95789 8.62515H8.62508V6.00015C8.62508 5.37859 9.12851 4.87515 9.70789 4.87515C10.2873 4.87515 10.8329 5.37671 10.8329 6.00015V8.62515H13.4579C14.1235 8.62515 14.6251 9.12671 14.6251 9.75015C14.6251 10.3736 14.1235 10.8751 13.5001 10.8751Z" fill="white"/>
</g>
<defs>
<clipPath id="clip0_1366_6918">
<rect width="24" height="24" fill="white"/>
</clipPath>
</defs>
</svg>
