<svg width="24" height="24" viewBox="0 0 24 24" fill="none" xmlns="http://www.w3.org/2000/svg">
<path d="M17.7188 11.6626V19.8376H21.8062V11.6626H17.7188ZM18.9 12.4876H20.5312V14.1188H18.9V12.4876ZM18.9 14.9438H20.5312V16.5751H18.9V14.9438ZM18.9 17.4938H20.5312V19.1251H18.9V17.4938Z" fill="black"/>
<path d="M2.17578 11.6626V19.8376H6.26328V11.6626H2.17578ZM3.35703 12.4876H4.98828V14.1188H3.35703V12.4876ZM3.35703 14.9438H4.98828V16.5751H3.35703V14.9438ZM3.35703 17.4938H4.98828V19.1251H3.35703V17.4938Z" fill="black"/>
<path d="M7.08789 9.20615V19.8374H11.1754V16.5749H12.8066V19.8562H16.8941V9.20615L12.0004 5.11865L7.08789 9.20615ZM9.54414 16.0499H7.91289V14.4187H9.54414V16.0499ZM9.54414 13.5374H7.91289V11.9062H9.54414V13.5374ZM9.54414 10.9874H7.91289V9.35615H9.54414V10.9874ZM12.8254 16.0499H11.1941V14.4187H12.8254V16.0499ZM12.8254 13.5374H11.1941V11.9062H12.8254V13.5374ZM14.4004 9.3374H16.0316V10.9687H14.4004V9.3374ZM14.4004 11.9062H16.0316V13.5374H14.4004V11.9062ZM14.4004 14.3999H16.0316V16.0312H14.4004V14.3999ZM12.8254 10.9874H11.1941V9.35615H12.8254V10.9874Z" fill="black"/>
<path d="M12.0008 4.1626L6.11328 9.20635L6.45078 9.6001L12.0008 4.8376L17.5508 9.6001L17.8883 9.20635L12.0008 4.1626Z" fill="black"/>
<path d="M21.8062 10.9502H17.7188V11.4564H21.8062V10.9502Z" fill="black"/>
<path d="M6.26328 10.9502H2.17578V11.4564H6.26328V10.9502Z" fill="black"/>
</svg>
