<svg width="15" height="20" viewBox="0 0 15 20" fill="none" xmlns="http://www.w3.org/2000/svg">
<path d="M0 3.00021V17.0002C0 17.2654 0.105357 17.5198 0.292893 17.7073C0.48043 17.8949 0.734784 18.0002 1 18.0002H4V16.0002H2V4.00021H4V2.00021H1C0.734784 2.00021 0.48043 2.10557 0.292893 2.29311C0.105357 2.48064 0 2.735 0 3.00021ZM14.242 2.03021L6.242 0.0302121C6.09462 -0.00654715 5.9408 -0.00924831 5.79222 0.0223138C5.64363 0.0538758 5.50419 0.118872 5.38448 0.212368C5.26477 0.305864 5.16792 0.425403 5.10131 0.561913C5.03469 0.698422 5.00004 0.848315 5 1.00021V19.0002C4.99965 19.1522 5.03404 19.3023 5.10054 19.439C5.16704 19.5758 5.26389 19.6955 5.38371 19.789C5.50352 19.8826 5.64313 19.9476 5.79188 19.979C5.94063 20.0104 6.09459 20.0074 6.242 19.9702L14.242 17.9702C14.4584 17.9162 14.6506 17.7914 14.788 17.6157C14.9253 17.4399 14.9999 17.2233 15 17.0002V3.00021C14.9999 2.77715 14.9253 2.56051 14.788 2.38475C14.6506 2.20899 14.4584 2.08419 14.242 2.03021ZM10 10.1882C9.98848 10.4457 9.87809 10.6888 9.69182 10.8669C9.50554 11.0451 9.25774 11.1445 9 11.1445C8.74226 11.1445 8.49446 11.0451 8.30818 10.8669C8.12191 10.6888 8.01152 10.4457 8 10.1882V9.81121C8.00013 9.54599 8.10562 9.29169 8.29325 9.10425C8.48088 8.91681 8.73528 8.81158 9.0005 8.81171C9.26572 8.81184 9.52002 8.91733 9.70746 9.10496C9.8949 9.29259 10.0001 9.547 10 9.81221V10.1882Z" fill="black"/>
</svg>
