<svg width="21" height="22" viewBox="0 0 21 22" fill="none" xmlns="http://www.w3.org/2000/svg">
<path d="M20.9999 8.61563V2.85C21.0008 2.57434 20.9472 2.30122 20.8422 2.04632C20.7373 1.79142 20.583 1.55976 20.3883 1.36464C20.1935 1.16952 19.9622 1.01478 19.7075 0.909306C19.4528 0.803829 19.1798 0.749691 18.9042 0.750001H13.1418C12.764 0.750779 12.4017 0.900514 12.1335 1.16672L0.613522 12.6834C0.220623 13.0776 0 13.6114 0 14.168C0 14.7245 0.220623 15.2583 0.613522 15.6525L6.0979 21.1369C6.49192 21.5299 7.0257 21.7506 7.58219 21.7506C8.13869 21.7506 8.67247 21.5299 9.06649 21.1369L20.5832 9.62391C20.8495 9.35582 20.9993 8.99349 20.9999 8.61563ZM16.4999 6.75C16.2033 6.75 15.9132 6.66203 15.6666 6.49721C15.4199 6.33238 15.2276 6.09812 15.1141 5.82403C15.0006 5.54994 14.9709 5.24834 15.0288 4.95737C15.0866 4.66639 15.2295 4.39912 15.4393 4.18934C15.649 3.97956 15.9163 3.8367 16.2073 3.77882C16.4983 3.72095 16.7999 3.75065 17.074 3.86418C17.348 3.97771 17.5823 4.16997 17.7471 4.41665C17.912 4.66332 17.9999 4.95333 17.9999 5.25C17.9999 5.64783 17.8419 6.02936 17.5606 6.31066C17.2793 6.59197 16.8978 6.75 16.4999 6.75Z" fill="black"/>
</svg>
