<svg width="4" height="18" viewBox="0 0 4 18" fill="none" xmlns="http://www.w3.org/2000/svg">
<path d="M0.579344 10.4318C0.647687 11.1436 0.763562 11.6726 0.923031 12.0217C1.08447 12.3696 1.37106 12.5431 1.78478 12.5431C1.86212 12.5431 1.93131 12.531 1.99994 12.5169C2.07025 12.531 2.13916 12.5431 2.21706 12.5431C2.62966 12.5431 2.91709 12.3696 3.07769 12.0217C3.238 11.6726 3.35191 11.1436 3.42166 10.4318L3.78897 4.93556C3.85731 3.86428 3.89219 3.09563 3.89219 2.62903C3.89219 1.99397 3.72653 1.49841 3.39409 1.14262C3.06053 0.786844 2.62234 0.609375 2.07953 0.609375C2.05056 0.609375 2.02891 0.615844 2.0005 0.616969C1.9735 0.615844 1.95128 0.609375 1.92316 0.609375C1.37922 0.609375 0.941875 0.786844 0.608875 1.14262C0.276156 1.49897 0.109375 1.99481 0.109375 2.62931C0.109375 3.09591 0.143406 3.86456 0.212875 4.93584L0.579344 10.4318ZM2.01428 14.5521C1.48722 14.5521 1.03947 14.7183 0.667656 15.0507C0.296125 15.3834 0.109937 15.7873 0.109937 16.2615C0.109937 16.7967 0.298375 17.218 0.672437 17.524C1.04819 17.83 1.48637 17.983 1.98728 17.983C2.49719 17.983 2.94184 17.8323 3.32209 17.5299C3.70178 17.2284 3.89162 16.8049 3.89162 16.2621C3.89162 15.7879 3.70994 15.384 3.34656 15.0513C2.98319 14.7183 2.53909 14.5521 2.01344 14.5521" fill="#58B4D1"/>
</svg>
