<svg width="14" height="9" viewBox="0 0 14 9" fill="none" xmlns="http://www.w3.org/2000/svg">
<path d="M0.63556 0.562508C0.823087 0.366317 1.0774 0.256104 1.34256 0.256104C1.60772 0.256104 1.86203 0.366317 2.04956 0.562508L6.99956 5.74274L11.9496 0.562508C12.1382 0.371878 12.3908 0.266395 12.653 0.268779C12.9152 0.271163 13.166 0.381224 13.3514 0.575256C13.5368 0.769287 13.6419 1.03177 13.6442 1.30616C13.6465 1.58055 13.5457 1.8449 13.3636 2.04227L7.70656 7.96239C7.51903 8.15858 7.26472 8.26879 6.99956 8.26879C6.73439 8.26879 6.48009 8.15858 6.29256 7.96239L0.63556 2.04227C0.448089 1.84602 0.342773 1.57989 0.342773 1.30239C0.342773 1.02489 0.448089 0.758758 0.63556 0.562508Z" fill="black"/>
</svg>
