<svg width="14" height="9" viewBox="0 0 14 9" fill="none" xmlns="http://www.w3.org/2000/svg">
<path d="M0.63556 8.48412C0.823087 8.68031 1.0774 8.79053 1.34256 8.79053C1.60772 8.79053 1.86203 8.68031 2.04956 8.48412L6.99956 3.30389L11.9496 8.48412C12.1382 8.67475 12.3908 8.78024 12.653 8.77785C12.9152 8.77547 13.166 8.66541 13.3514 8.47137C13.5368 8.27734 13.6419 8.01487 13.6442 7.74047C13.6465 7.46608 13.5457 7.20173 13.3636 7.00436L7.70656 1.08424C7.51903 0.88805 7.26472 0.777836 6.99956 0.777836C6.73439 0.777836 6.48009 0.88805 6.29256 1.08424L0.63556 7.00436C0.448089 7.20061 0.342773 7.46674 0.342773 7.74424C0.342773 8.02174 0.448089 8.28787 0.63556 8.48412Z" fill="black"/>
</svg>
