<svg width="14" height="16" viewBox="0 0 14 16" fill="none" xmlns="http://www.w3.org/2000/svg">
<path d="M13.75 14V3.5C13.75 2.67275 13.0773 2 12.25 2H10.75V0.5H9.25V2H4.75V0.5H3.25V2H1.75C0.92275 2 0.25 2.67275 0.25 3.5V14C0.25 14.8273 0.92275 15.5 1.75 15.5H12.25C13.0773 15.5 13.75 14.8273 13.75 14ZM4.75 12.5H3.25V11H4.75V12.5ZM4.75 9.5H3.25V8H4.75V9.5ZM7.75 12.5H6.25V11H7.75V12.5ZM7.75 9.5H6.25V8H7.75V9.5ZM10.75 12.5H9.25V11H10.75V12.5ZM10.75 9.5H9.25V8H10.75V9.5ZM12.25 5.75H1.75V4.25H12.25V5.75Z" fill="black" fill-opacity="0.3"/>
</svg>
