<svg width="38" height="30" viewBox="0 0 38 30" fill="none" xmlns="http://www.w3.org/2000/svg">
<path d="M34.6882 12.5826L31.807 4.35058C31.0216 2.10778 28.8964 0.599976 26.5192 0.599976H11.4804C9.1032 0.599976 6.978 2.10778 6.194 4.34918L3.3128 12.5812C1.7742 13.5934 0.799805 15.342 0.799805 17.2656V27.2C0.799805 28.747 2.0528 30 3.5998 30C5.1468 30 6.3998 28.747 6.3998 27.2V25.4346C6.3998 25.4346 13.7932 25.8 18.9998 25.8C24.2064 25.8 31.5998 25.4346 31.5998 25.4346V27.2C31.5998 28.747 32.8528 30 34.3998 30C35.9468 30 37.1998 28.747 37.1998 27.2V17.2656C37.1998 15.342 36.224 13.5934 34.6882 12.5826ZM7.2328 9.85818L8.8372 5.27458C9.2306 4.15178 10.2904 3.39998 11.4804 3.39998H26.5192C27.7092 3.39998 28.769 4.15178 29.1624 5.27458L30.7668 9.85818C31.0188 10.5792 30.4182 11.3058 29.6636 11.184C26.9182 10.7402 23.3888 10.4 18.9998 10.4C14.6108 10.4 11.0814 10.7402 8.336 11.184C7.5814 11.3058 6.9808 10.5792 7.2328 9.85818ZM7.0998 20.2C5.9406 20.2 4.9998 19.2592 4.9998 18.1C4.9998 16.9408 5.9406 16 7.0998 16C8.259 16 9.1998 16.9408 9.1998 18.1C9.1998 19.2592 8.259 20.2 7.0998 20.2ZM23.1998 18.8H14.7998C14.027 18.8 13.3998 18.1728 13.3998 17.4C13.3998 16.6272 14.027 16 14.7998 16H23.1998C23.9726 16 24.5998 16.6272 24.5998 17.4C24.5998 18.1728 23.9726 18.8 23.1998 18.8ZM30.8998 20.2C29.7406 20.2 28.7998 19.2592 28.7998 18.1C28.7998 16.9408 29.7406 16 30.8998 16C32.059 16 32.9998 16.9408 32.9998 18.1C32.9998 19.2592 32.059 20.2 30.8998 20.2Z" fill="#58B4D1"/>
</svg>
