<svg width="42" height="42" viewBox="0 0 42 42" fill="none" xmlns="http://www.w3.org/2000/svg">
<g clip-path="url(#clip0_692_4102)">
<path d="M22.9686 8.53125C22.9686 7.75249 23.1996 6.99121 23.6322 6.34369C24.0649 5.69618 24.6798 5.1915 25.3993 4.89348C26.1188 4.59546 26.9105 4.51748 27.6743 4.66941C28.4381 4.82134 29.1397 5.19635 29.6904 5.74702C30.241 6.29769 30.616 6.99928 30.768 7.76308C30.9199 8.52688 30.8419 9.31858 30.5439 10.0381C30.2459 10.7576 29.7412 11.3725 29.0937 11.8052C28.4462 12.2378 27.6849 12.4688 26.9061 12.4688C25.8632 12.4644 24.8642 12.0482 24.1267 11.3107C23.3892 10.5732 22.9729 9.57421 22.9686 8.53125ZM41.8358 33.4688C41.7184 33.6689 41.5505 33.8348 41.349 33.9499C41.1476 34.0651 40.9194 34.1254 40.6874 34.125H1.31238C1.0821 34.1276 0.855382 34.068 0.656144 33.9525C0.456906 33.837 0.292528 33.6699 0.180347 33.4688C0.0604023 33.2679 -0.00292969 33.0383 -0.00292969 32.8043C-0.00292969 32.5703 0.0604023 32.3407 0.180347 32.1398L12.1733 11.7633C12.4049 11.3685 12.7357 11.0412 13.1329 10.8138C13.53 10.5863 13.9797 10.4667 14.4374 10.4667C14.895 10.4667 15.3448 10.5863 15.7419 10.8138C16.1391 11.0412 16.4698 11.3685 16.7014 11.7633L23.6413 23.5594L27.9233 16.3242C28.1581 15.9335 28.49 15.6102 28.8867 15.3858C29.2835 15.1613 29.7316 15.0433 30.1874 15.0433C30.6432 15.0433 31.0913 15.1613 31.488 15.3858C31.8848 15.6102 32.2167 15.9335 32.4514 16.3242L41.8194 32.1398C41.9354 32.3415 41.9979 32.5695 42.0007 32.8022C42.0036 33.0348 41.9468 33.2643 41.8358 33.4688ZM10.5491 19.6875H18.3257L14.4374 13.0922L10.5491 19.6875Z" fill="#58B4D1"/>
</g>
<defs>
<clipPath id="clip0_692_4102">
<rect width="42" height="42" fill="white"/>
</clipPath>
</defs>
</svg>
