<svg width="12" height="16" viewBox="0 0 12 16" fill="none" xmlns="http://www.w3.org/2000/svg">
<path d="M0.375 15.875H11.625V13.0625C11.6238 12.0186 11.2086 11.0177 10.4704 10.2796C9.73225 9.54142 8.73142 9.12619 7.6875 9.125H4.3125C3.26858 9.12619 2.26775 9.54142 1.52958 10.2796C0.791416 11.0177 0.376191 12.0186 0.375 13.0625V15.875ZM2.0625 4.0625C2.0625 4.84126 2.29343 5.60254 2.72609 6.25006C3.15875 6.89758 3.7737 7.40226 4.49318 7.70028C5.21267 7.9983 6.00437 8.07627 6.76817 7.92434C7.53197 7.77241 8.23356 7.3974 8.78423 6.84673C9.3349 6.29606 9.70991 5.59447 9.86184 4.83067C10.0138 4.06687 9.9358 3.27517 9.63778 2.55568C9.33976 1.8362 8.83508 1.22125 8.18756 0.788588C7.54004 0.35593 6.77876 0.125 6 0.125C4.95571 0.125 3.95419 0.539843 3.21577 1.27827C2.47734 2.01669 2.0625 3.01821 2.0625 4.0625Z" fill="black" fill-opacity="0.3"/>
</svg>
