<svg width="24" height="18" viewBox="0 0 24 18" fill="none" xmlns="http://www.w3.org/2000/svg">
<path d="M23.0135 1.24L18.8135 0.333335C18.4603 0.256652 18.0947 0.256852 17.7416 0.333921C17.3884 0.41099 17.056 0.563125 16.7669 0.780001L4.08019 10L1.03352 9.86667C0.859014 9.86073 0.687049 9.90977 0.541911 10.0068C0.396772 10.1039 0.285794 10.2441 0.224646 10.4077C0.163497 10.5712 0.155268 10.7499 0.201121 10.9184C0.246974 11.0868 0.344592 11.2367 0.48019 11.3467L3.44686 13.7C3.4957 13.7394 3.55383 13.7656 3.61569 13.7761C3.67756 13.7866 3.74108 13.7811 3.80019 13.76C4.64686 13.4333 7.80019 11.76 11.5269 9.71334L12.2735 17.3867C12.2799 17.4531 12.3042 17.5166 12.344 17.5702C12.3837 17.6238 12.4374 17.6656 12.4991 17.691C12.5609 17.7164 12.6284 17.7244 12.6943 17.7143C12.7603 17.7041 12.8223 17.6761 12.8735 17.6333L14.5402 16.2467C14.6314 16.1701 14.6928 16.0639 14.7135 15.9467L16.2935 7.08667C18.9602 5.60667 21.5069 4.17333 23.3002 3.16C23.4863 3.05873 23.6368 2.9027 23.7312 2.71306C23.8257 2.52341 23.8596 2.3093 23.8283 2.09975C23.797 1.8902 23.7021 1.69533 23.5563 1.54155C23.4106 1.38776 23.2211 1.28249 23.0135 1.24Z" fill="#58B4D1"/>
</svg>
