<svg width="18" height="20" viewBox="0 0 18 20" fill="none" xmlns="http://www.w3.org/2000/svg">
<path d="M18 9.97671C18 12.4747 17.0518 14.8703 15.364 16.6367C13.6761 18.403 11.3869 19.3953 9 19.3953C6.61305 19.3953 4.32387 18.403 2.63604 16.6367C0.948212 14.8703 0 12.4747 0 9.97671C0 7.47874 0.948212 5.08308 2.63604 3.31675C4.32387 1.55042 6.61305 0.558105 9 0.558105C11.3869 0.558105 13.6761 1.55042 15.364 3.31675C17.0518 5.08308 18 7.47874 18 9.97671ZM9 4.67875C9 4.52262 8.94074 4.37289 8.83525 4.2625C8.72976 4.1521 8.58668 4.09008 8.4375 4.09008C8.28832 4.09008 8.14524 4.1521 8.03975 4.2625C7.93426 4.37289 7.875 4.52262 7.875 4.67875V11.154C7.87503 11.2578 7.90127 11.3597 7.95106 11.4494C8.00084 11.5392 8.07241 11.6135 8.1585 11.665L12.096 14.0196C12.2252 14.0927 12.3766 14.11 12.5179 14.0678C12.6591 14.0256 12.779 13.9273 12.8518 13.7938C12.9247 13.6604 12.9448 13.5024 12.9078 13.3536C12.8709 13.2049 12.7798 13.0771 12.654 12.9977L9 10.8126V4.67875Z" fill="black"/>
</svg>
