<svg width="36" height="28" viewBox="0 0 36 28" fill="none" xmlns="http://www.w3.org/2000/svg">
<path d="M28.0078 13.4094V27.7156H35.1609V13.4094H28.0078ZM30.075 14.8531H32.9297V17.7078H30.075V14.8531ZM30.075 19.1515H32.9297V22.0062H30.075V19.1515ZM30.075 23.614H32.9297V26.4687H30.075V23.614Z" fill="#58B4D1"/>
<path d="M0.806641 13.4094V27.7156H7.95977V13.4094H0.806641ZM2.87383 14.8531H5.72852V17.7078H2.87383V14.8531ZM2.87383 19.1515H5.72852V22.0062H2.87383V19.1515ZM2.87383 23.614H5.72852V26.4687H2.87383V23.614Z" fill="#58B4D1"/>
<path d="M9.40332 9.11095V27.7156H16.5564V22.0063H19.4111V27.7484H26.5643V9.11095L18.0002 1.95782L9.40332 9.11095ZM13.7018 21.0875H10.8471V18.2328H13.7018V21.0875ZM13.7018 16.6906H10.8471V13.8359H13.7018V16.6906ZM13.7018 12.2281H10.8471V9.37345H13.7018V12.2281ZM19.4439 21.0875H16.5893V18.2328H19.4439V21.0875ZM19.4439 16.6906H16.5893V13.8359H19.4439V16.6906ZM22.2002 9.34064H25.0549V12.1953H22.2002V9.34064ZM22.2002 13.8359H25.0549V16.6906H22.2002V13.8359ZM22.2002 18.2H25.0549V21.0547H22.2002V18.2ZM19.4439 12.2281H16.5893V9.37345H19.4439V12.2281Z" fill="#58B4D1"/>
<path d="M18.0004 0.284363L7.69727 9.11093L8.28789 9.79999L18.0004 1.46561L27.7129 9.79999L28.3035 9.11093L18.0004 0.284363Z" fill="#58B4D1"/>
<path d="M35.1609 12.1625H28.0078V13.0484H35.1609V12.1625Z" fill="#58B4D1"/>
<path d="M7.95977 12.1625H0.806641V13.0484H7.95977V12.1625Z" fill="#58B4D1"/>
</svg>
