<svg width="42" height="42" viewBox="0 0 42 42" fill="none" xmlns="http://www.w3.org/2000/svg">
<path d="M29.8318 37.8328C29.6638 37.4476 20.54 32.0197 20.5295 32.0125C19.2426 31.0662 19.0857 30.1455 20.1239 29.6165C21.0144 29.1644 21.7803 27.7069 22.3578 26.1469C22.4609 26.1943 22.5776 26.2029 22.6866 26.1712C25.1101 25.4625 25.1534 20.5714 23.5325 21.4351C25.0478 8.21492 6.74428 8.20836 8.25956 21.4357C6.63666 20.5701 6.68128 25.4625 9.10416 26.1712C9.2133 26.2027 9.33005 26.1943 9.43359 26.1476C10.0104 27.7069 10.775 29.1644 11.6655 29.6165C12.7122 30.1494 12.5055 31.0249 11.2343 32.0329C10.8104 32.3695 4.9035 35.6626 3.23597 36.7769C3.23269 36.7775 3.22678 36.7815 3.22678 36.7815H3.22875C2.54034 37.2428 2.05078 37.6261 1.95956 37.8335C1.48444 38.9287 1.3125 40.6875 1.3125 40.6875H30.4789C30.4789 40.6875 30.3083 38.9287 29.8318 37.8328Z" fill="#58B4D1"/>
<path d="M22.6697 13.0377C23.8608 14.3738 25.172 16.6746 25.0768 20.2755C25.5388 20.6213 25.9247 21.2133 26.056 22.1307C26.2975 23.8251 25.6077 26.6011 23.4047 27.4654C22.8082 28.873 22.1565 29.8666 21.4327 30.4776H40.6877C40.6877 30.4776 40.5158 28.7188 40.0406 27.6229C39.8726 27.2383 30.7488 21.8105 30.739 21.8026C29.4507 20.8569 29.2946 19.9362 30.3327 19.4073C31.2233 18.9545 31.9885 17.4976 32.5666 15.9377C32.6716 15.9836 32.7832 15.9941 32.8954 15.9606C35.3183 15.2532 35.3622 10.3622 33.7413 11.2258C35.2251 -1.71545 17.7295 -1.98649 18.41 10.4147C20.0532 10.874 21.5383 11.7698 22.6697 13.0377Z" fill="#58B4D1"/>
</svg>
