<svg width="21" height="20" viewBox="0 0 21 20" fill="none" xmlns="http://www.w3.org/2000/svg">
<path d="M19.96 7.33334H18.6667V4.00001C18.6667 3.8232 18.5964 3.65363 18.4714 3.52861C18.3464 3.40358 18.1768 3.33334 18 3.33334H2C1.82319 3.33334 1.65362 3.2631 1.5286 3.13808C1.40357 3.01306 1.33333 2.84349 1.33333 2.66668C1.33333 2.48987 1.40357 2.3203 1.5286 2.19527C1.65362 2.07025 1.82319 2.00001 2 2.00001H17.7333C17.9101 2.00001 18.0797 1.92977 18.2047 1.80475C18.3298 1.67972 18.4 1.51015 18.4 1.33334C18.4 1.15653 18.3298 0.986963 18.2047 0.861938C18.0797 0.736914 17.9101 0.666676 17.7333 0.666676H2C1.7426 0.661369 1.48667 0.706828 1.24683 0.800454C1.007 0.894081 0.787966 1.03404 0.602238 1.21234C0.41651 1.39064 0.267729 1.60378 0.164396 1.8396C0.0610619 2.07541 0.00519958 2.32927 0 2.58668V16.5867C0.000872594 16.9488 0.073176 17.3072 0.212769 17.6414C0.352362 17.9755 0.556503 18.2789 0.8135 18.534C1.0705 18.7891 1.3753 18.9911 1.71046 19.1282C2.04561 19.2654 2.40453 19.3351 2.76667 19.3333H18C18.1768 19.3333 18.3464 19.2631 18.4714 19.1381C18.5964 19.0131 18.6667 18.8435 18.6667 18.6667V15.3333H19.96C20.0441 15.3397 20.1287 15.3288 20.2085 15.3014C20.2883 15.2739 20.3616 15.2305 20.4241 15.1737C20.4865 15.1169 20.5366 15.0479 20.5715 14.9711C20.6063 14.8942 20.6251 14.811 20.6267 14.7267V8.06001C20.6289 7.8768 20.5611 7.69964 20.4373 7.56463C20.3134 7.42961 20.1427 7.3469 19.96 7.33334ZM19.3333 14H13.6133C12.9301 13.9757 12.2845 13.6812 11.8182 13.1812C11.352 12.6812 11.1033 12.0166 11.1267 11.3333C11.1033 10.6501 11.352 9.98549 11.8182 9.4855C12.2845 8.98551 12.9301 8.69101 13.6133 8.66668H19.3333V14Z" fill="#58B4D1"/>
</svg>
