<svg width="24" height="24" viewBox="0 0 24 24" fill="none" xmlns="http://www.w3.org/2000/svg">
<path d="M23.4514 20.7986L17.8405 15.1876C19.1164 13.2934 19.7459 10.9267 19.4089 8.40484C18.8356 4.11343 15.3176 0.623586 11.023 0.0798358C4.63858 -0.728289 -0.728606 4.63984 0.0823314 11.0205C0.626081 15.3161 4.11686 18.8345 8.40733 19.4064C10.9297 19.7435 13.2964 19.1141 15.1901 17.838L20.8011 23.4489C21.5333 24.1811 22.7206 24.1811 23.4528 23.4489C24.1826 22.7205 24.1826 21.5298 23.4514 20.7986ZM13.4998 10.8751H10.8326V13.5001C10.8326 14.1217 10.3292 14.6251 9.74983 14.6251C9.12639 14.6251 8.62483 14.1236 8.62483 13.5001V10.8751H5.95764C5.37639 10.8751 4.87483 10.3736 4.87483 9.75015C4.87483 9.12671 5.37827 8.62515 5.95764 8.62515H8.62483V6.00015C8.62483 5.37859 9.12827 4.87515 9.70765 4.87515C10.287 4.87515 10.8326 5.37671 10.8326 6.00015V8.62515H13.4576C14.1233 8.62515 14.6248 9.12671 14.6248 9.75015C14.6248 10.3736 14.1233 10.8751 13.4998 10.8751Z" fill="white"/>
</svg>
