<svg width="15" height="22" viewBox="0 0 15 22" fill="none" xmlns="http://www.w3.org/2000/svg">
<path d="M0 21.5H15V17.75C14.9984 16.3581 14.4448 15.0237 13.4606 14.0394C12.4763 13.0552 11.1419 12.5016 9.75 12.5H5.25C3.8581 12.5016 2.52367 13.0552 1.53944 14.0394C0.555222 15.0237 0.00158802 16.3581 0 17.75V21.5ZM2.25 5.75C2.25 6.78835 2.55791 7.80339 3.13478 8.66674C3.71166 9.5301 4.5316 10.203 5.49091 10.6004C6.45022 10.9977 7.50582 11.1017 8.52423 10.8991C9.54263 10.6966 10.4781 10.1965 11.2123 9.46231C11.9465 8.72808 12.4466 7.79262 12.6491 6.77422C12.8517 5.75582 12.7477 4.70022 12.3504 3.74091C11.953 2.7816 11.2801 1.96166 10.4167 1.38478C9.55339 0.807907 8.53835 0.5 7.5 0.5C6.10761 0.5 4.77226 1.05312 3.78769 2.03769C2.80312 3.02226 2.25 4.35761 2.25 5.75Z" fill="#58B4D1"/>
</svg>
