<svg width="21" height="21" viewBox="0 0 21 21" fill="none" xmlns="http://www.w3.org/2000/svg">
<path d="M4.49955 13.0002C5.3742 12.9976 6.21577 12.6656 6.85655 12.0702L13.1165 15.6472C12.9068 16.4668 12.9993 17.3345 13.377 18.0915C13.7547 18.8486 14.3925 19.4442 15.1735 19.7694C15.9545 20.0946 16.8265 20.1277 17.6299 19.8625C18.4333 19.5974 19.1143 19.0517 19.5483 18.3255C19.9823 17.5992 20.1401 16.741 19.993 15.9079C19.8459 15.0747 19.4037 14.3225 18.7473 13.7887C18.0909 13.255 17.2642 12.9756 16.4186 13.0015C15.5729 13.0275 14.765 13.3572 14.1425 13.9302L7.88255 10.3532C7.94855 10.1032 7.98455 9.84421 7.99055 9.58521L14.1405 6.07021C14.7327 6.60898 15.4922 6.92771 16.2915 6.97293C17.0908 7.01814 17.8814 6.78708 18.5305 6.31852C19.1797 5.84997 19.6479 5.17241 19.8568 4.39953C20.0656 3.62665 20.0022 2.80546 19.6774 2.07374C19.3525 1.34202 18.7859 0.744282 18.0726 0.380804C17.3592 0.0173272 16.5426 -0.0897734 15.7597 0.0774701C14.9768 0.244714 14.2752 0.676126 13.7726 1.29933C13.27 1.92254 12.9971 2.69962 12.9995 3.50021C13.0035 3.78821 13.0425 4.07521 13.1165 4.35321L7.43255 7.60021C7.10293 7.09027 6.64631 6.67486 6.10757 6.39478C5.56882 6.11471 4.96648 5.97961 4.35972 6.00276C3.75297 6.02591 3.16267 6.20651 2.64683 6.52682C2.131 6.84713 1.70736 7.29613 1.41755 7.8297C1.12774 8.36327 0.981732 8.96306 0.993863 9.57014C1.00599 10.1772 1.17585 10.7707 1.48674 11.2923C1.79763 11.8138 2.23887 12.2455 2.76709 12.545C3.29531 12.8444 3.89235 13.0013 4.49955 13.0002Z" fill="black"/>
</svg>
