<svg width="17" height="16" viewBox="0 0 17 16" fill="none" xmlns="http://www.w3.org/2000/svg">
<path d="M14.3251 8.5784V9.4784C14.3257 9.51576 14.3408 9.55142 14.3673 9.57784C14.3937 9.60427 14.4294 9.61938 14.4667 9.62H16.1803V10.6208H14.4667C14.4292 10.6208 14.3931 10.6357 14.3666 10.6623C14.34 10.6888 14.3251 10.7248 14.3251 10.7624V11.6624C14.3257 11.6998 14.3408 11.7354 14.3673 11.7618C14.3937 11.7883 14.4294 11.8034 14.4667 11.804H16.1803V12.8H14.4667C14.4289 12.8006 14.3929 12.8161 14.3664 12.843C14.3399 12.87 14.3251 12.9062 14.3251 12.944V13.844C14.3257 13.8814 14.3408 13.917 14.3673 13.9434C14.3937 13.9699 14.4294 13.985 14.4667 13.9856H16.1803V15.3512H12.9499V4.9976L16.1803 7.6544V8.4368H14.4667C14.4292 8.4368 14.3931 8.45172 14.3666 8.47827C14.34 8.50483 14.3251 8.54085 14.3251 8.5784ZM3.42191 7.2392H0.820312V8.4392H1.91711C1.93591 8.43888 1.95458 8.44231 1.97204 8.44928C1.9895 8.45626 2.00539 8.46664 2.01879 8.47982C2.0322 8.493 2.04284 8.50872 2.05011 8.52605C2.05737 8.54339 2.06112 8.562 2.06111 8.5808V9.4808C2.06048 9.51857 2.04503 9.55459 2.0181 9.58108C1.99116 9.60756 1.95489 9.62241 1.91711 9.6224H0.820312V10.6232H1.91711C1.93591 10.6229 1.95458 10.6263 1.97204 10.6333C1.9895 10.6403 2.00539 10.6506 2.01879 10.6638C2.0322 10.677 2.04284 10.6927 2.05011 10.7101C2.05737 10.7274 2.06112 10.746 2.06111 10.7648V11.6648C2.06048 11.7026 2.04503 11.7386 2.0181 11.7651C1.99116 11.7916 1.95489 11.8064 1.91711 11.8064H0.820312V12.8H1.91711C1.93602 12.8 1.95475 12.8037 1.97222 12.811C1.98969 12.8182 2.00556 12.8288 2.01894 12.8422C2.03231 12.8555 2.04291 12.8714 2.05015 12.8889C2.05739 12.9064 2.06111 12.9251 2.06111 12.944V13.844C2.06048 13.8818 2.04503 13.9178 2.0181 13.9443C1.99116 13.9708 1.95489 13.9856 1.91711 13.9856H0.820312V15.3512H3.42191V7.2392ZM11.9899 15.3536H4.38191V1.1216C4.38191 0.994298 4.43248 0.872208 4.5225 0.78219C4.61252 0.692173 4.73461 0.641602 4.86191 0.641602H11.5147C11.642 0.641602 11.7641 0.692173 11.8541 0.78219C11.9441 0.872208 11.9947 0.994298 11.9947 1.1216V15.3536H11.9899ZM7.49711 11.132C7.49711 11.0946 7.48971 11.0576 7.47533 11.0231C7.46095 10.9886 7.43987 10.9572 7.41332 10.9309C7.38677 10.9046 7.35526 10.8838 7.32063 10.8697C7.28599 10.8556 7.2489 10.8485 7.21151 10.8488H6.10031C6.06292 10.8485 6.02584 10.8556 5.9912 10.8697C5.95656 10.8838 5.92506 10.9046 5.89851 10.9309C5.87195 10.9572 5.85088 10.9886 5.8365 11.0231C5.82211 11.0576 5.81471 11.0946 5.81471 11.132V12.2504C5.81471 12.2879 5.8221 12.325 5.83645 12.3597C5.85081 12.3943 5.87184 12.4258 5.89836 12.4524C5.92488 12.4789 5.95637 12.4999 5.99102 12.5143C6.02567 12.5286 6.06281 12.536 6.10031 12.536H7.21631C7.29206 12.536 7.3647 12.5059 7.41826 12.4524C7.47182 12.3988 7.50191 12.3261 7.50191 12.2504L7.49711 11.132ZM7.49711 8.3576C7.49711 8.28186 7.46702 8.20921 7.41346 8.15565C7.3599 8.10209 7.28726 8.072 7.21151 8.072H6.10031C6.02457 8.072 5.95192 8.10209 5.89836 8.15565C5.8448 8.20921 5.81471 8.28186 5.81471 8.3576V9.4736C5.81471 9.54935 5.8448 9.62199 5.89836 9.67555C5.95192 9.72911 6.02457 9.7592 6.10031 9.7592H7.21631C7.29206 9.7592 7.3647 9.72911 7.41826 9.67555C7.47182 9.62199 7.50191 9.54935 7.50191 9.4736L7.49711 8.3576ZM7.49711 5.5808C7.49711 5.50505 7.46702 5.43241 7.41346 5.37885C7.3599 5.32529 7.28726 5.2952 7.21151 5.2952H6.10031C6.02457 5.2952 5.95192 5.32529 5.89836 5.37885C5.8448 5.43241 5.81471 5.50505 5.81471 5.5808V6.6992C5.81471 6.77495 5.8448 6.84759 5.89836 6.90115C5.95192 6.95471 6.02457 6.9848 6.10031 6.9848H7.21631C7.29206 6.9848 7.3647 6.95471 7.41826 6.90115C7.47182 6.84759 7.50191 6.77495 7.50191 6.6992L7.49711 5.5808ZM7.49711 2.804C7.49711 2.76661 7.48971 2.72959 7.47533 2.69507C7.46095 2.66055 7.43987 2.62922 7.41332 2.6029C7.38677 2.57657 7.35526 2.55576 7.32063 2.54167C7.28599 2.52758 7.2489 2.52048 7.21151 2.5208H6.10031C6.06292 2.52048 6.02584 2.52758 5.9912 2.54167C5.95656 2.55576 5.92506 2.57657 5.89851 2.6029C5.87195 2.62922 5.85088 2.66055 5.8365 2.69507C5.82211 2.72959 5.81471 2.76661 5.81471 2.804V3.92C5.8144 3.95771 5.82155 3.99511 5.83576 4.03003C5.84997 4.06496 5.87096 4.09673 5.89751 4.1235C5.92406 4.15028 5.95565 4.17153 5.99046 4.18603C6.02527 4.20054 6.0626 4.208 6.10031 4.208H7.21631C7.29164 4.20674 7.36342 4.17576 7.41601 4.12182C7.46861 4.06788 7.49776 3.99534 7.49711 3.92V2.804ZM10.5643 11.132C10.5637 11.0567 10.5333 10.9846 10.4798 10.9316C10.4263 10.8786 10.354 10.8488 10.2787 10.8488H9.16031C9.12292 10.8485 9.08584 10.8556 9.0512 10.8697C9.01656 10.8838 8.98506 10.9046 8.95851 10.9309C8.93195 10.9572 8.91088 10.9886 8.8965 11.0231C8.88212 11.0576 8.87471 11.0946 8.87471 11.132V12.2504C8.87471 12.3261 8.9048 12.3988 8.95836 12.4524C9.01192 12.5059 9.08457 12.536 9.16031 12.536H10.2787C10.3545 12.536 10.4271 12.5059 10.4807 12.4524C10.5342 12.3988 10.5643 12.3261 10.5643 12.2504V11.132ZM10.5643 8.3576C10.5643 8.28186 10.5342 8.20921 10.4807 8.15565C10.4271 8.10209 10.3545 8.072 10.2787 8.072H9.16031C9.08457 8.072 9.01192 8.10209 8.95836 8.15565C8.9048 8.20921 8.87471 8.28186 8.87471 8.3576V9.4736C8.87471 9.54935 8.9048 9.62199 8.95836 9.67555C9.01192 9.72911 9.08457 9.7592 9.16031 9.7592H10.2787C10.3545 9.7592 10.4271 9.72911 10.4807 9.67555C10.5342 9.62199 10.5643 9.54935 10.5643 9.4736V8.3576ZM10.5643 5.5808C10.5643 5.50505 10.5342 5.43241 10.4807 5.37885C10.4271 5.32529 10.3545 5.2952 10.2787 5.2952H9.16031C9.08457 5.2952 9.01192 5.32529 8.95836 5.37885C8.9048 5.43241 8.87471 5.50505 8.87471 5.5808V6.6992C8.87471 6.77495 8.9048 6.84759 8.95836 6.90115C9.01192 6.95471 9.08457 6.9848 9.16031 6.9848H10.2787C10.3543 6.98417 10.4265 6.95388 10.48 6.90046C10.5334 6.84703 10.5637 6.77475 10.5643 6.6992V5.5808ZM10.5643 2.804C10.5637 2.72867 10.5333 2.65664 10.4798 2.6036C10.4263 2.55056 10.354 2.5208 10.2787 2.5208H9.16031C9.12292 2.52048 9.08584 2.52758 9.0512 2.54167C9.01656 2.55576 8.98506 2.57657 8.95851 2.6029C8.93195 2.62922 8.91088 2.66055 8.8965 2.69507C8.88212 2.72959 8.87471 2.76661 8.87471 2.804V3.92C8.87471 3.99575 8.9048 4.06839 8.95836 4.12195C9.01192 4.17551 9.08457 4.2056 9.16031 4.2056H10.2787C10.3545 4.2056 10.4271 4.17551 10.4807 4.12195C10.5342 4.06839 10.5643 3.99575 10.5643 3.92V2.804Z" fill="#58B4D1"/>
</svg>
