<svg width="16" height="16" viewBox="0 0 16 16" fill="none" xmlns="http://www.w3.org/2000/svg">
<path d="M13.8251 8.5784V9.4784C13.8257 9.51576 13.8408 9.55142 13.8673 9.57784C13.8937 9.60427 13.9294 9.61938 13.9667 9.62H15.6803V10.6208H13.9667C13.9292 10.6208 13.8931 10.6357 13.8666 10.6623C13.84 10.6888 13.8251 10.7248 13.8251 10.7624V11.6624C13.8257 11.6998 13.8408 11.7354 13.8673 11.7618C13.8937 11.7883 13.9294 11.8034 13.9667 11.804H15.6803V12.8H13.9667C13.9289 12.8006 13.8929 12.8161 13.8664 12.843C13.8399 12.87 13.8251 12.9062 13.8251 12.944V13.844C13.8257 13.8814 13.8408 13.917 13.8673 13.9434C13.8937 13.9699 13.9294 13.985 13.9667 13.9856H15.6803V15.3512H12.4499V4.9976L15.6803 7.6544V8.4368H13.9667C13.9292 8.4368 13.8931 8.45172 13.8666 8.47827C13.84 8.50483 13.8251 8.54085 13.8251 8.5784ZM2.92191 7.2392H0.320312V8.4392H1.41711C1.43591 8.43888 1.45458 8.44231 1.47204 8.44928C1.4895 8.45626 1.50539 8.46664 1.51879 8.47982C1.5322 8.493 1.54284 8.50872 1.55011 8.52605C1.55737 8.54339 1.56112 8.562 1.56111 8.5808V9.4808C1.56048 9.51857 1.54503 9.55459 1.5181 9.58108C1.49116 9.60756 1.45489 9.62241 1.41711 9.6224H0.320312V10.6232H1.41711C1.43591 10.6229 1.45458 10.6263 1.47204 10.6333C1.4895 10.6403 1.50539 10.6506 1.51879 10.6638C1.5322 10.677 1.54284 10.6927 1.55011 10.7101C1.55737 10.7274 1.56112 10.746 1.56111 10.7648V11.6648C1.56048 11.7026 1.54503 11.7386 1.5181 11.7651C1.49116 11.7916 1.45489 11.8064 1.41711 11.8064H0.320312V12.8H1.41711C1.43602 12.8 1.45475 12.8037 1.47222 12.811C1.48969 12.8182 1.50556 12.8288 1.51894 12.8422C1.53231 12.8555 1.54291 12.8714 1.55015 12.8889C1.55739 12.9064 1.56111 12.9251 1.56111 12.944V13.844C1.56048 13.8818 1.54503 13.9178 1.5181 13.9443C1.49116 13.9708 1.45489 13.9856 1.41711 13.9856H0.320312V15.3512H2.92191V7.2392ZM11.4899 15.3536H3.88191V1.1216C3.88191 0.994298 3.93248 0.872208 4.0225 0.78219C4.11252 0.692173 4.23461 0.641602 4.36191 0.641602H11.0147C11.142 0.641602 11.2641 0.692173 11.3541 0.78219C11.4441 0.872208 11.4947 0.994298 11.4947 1.1216V15.3536H11.4899ZM6.99711 11.132C6.99711 11.0946 6.98971 11.0576 6.97533 11.0231C6.96095 10.9886 6.93987 10.9572 6.91332 10.9309C6.88677 10.9046 6.85526 10.8838 6.82063 10.8697C6.78599 10.8556 6.7489 10.8485 6.71151 10.8488H5.60031C5.56292 10.8485 5.52584 10.8556 5.4912 10.8697C5.45656 10.8838 5.42506 10.9046 5.39851 10.9309C5.37195 10.9572 5.35088 10.9886 5.3365 11.0231C5.32211 11.0576 5.31471 11.0946 5.31471 11.132V12.2504C5.31471 12.2879 5.3221 12.325 5.33645 12.3597C5.35081 12.3943 5.37184 12.4258 5.39836 12.4524C5.42488 12.4789 5.45637 12.4999 5.49102 12.5143C5.52567 12.5286 5.56281 12.536 5.60031 12.536H6.71631C6.79206 12.536 6.8647 12.5059 6.91826 12.4524C6.97182 12.3988 7.00191 12.3261 7.00191 12.2504L6.99711 11.132ZM6.99711 8.3576C6.99711 8.28186 6.96702 8.20921 6.91346 8.15565C6.8599 8.10209 6.78726 8.072 6.71151 8.072H5.60031C5.52457 8.072 5.45192 8.10209 5.39836 8.15565C5.3448 8.20921 5.31471 8.28186 5.31471 8.3576V9.4736C5.31471 9.54935 5.3448 9.62199 5.39836 9.67555C5.45192 9.72911 5.52457 9.7592 5.60031 9.7592H6.71631C6.79206 9.7592 6.8647 9.72911 6.91826 9.67555C6.97182 9.62199 7.00191 9.54935 7.00191 9.4736L6.99711 8.3576ZM6.99711 5.5808C6.99711 5.50505 6.96702 5.43241 6.91346 5.37885C6.8599 5.32529 6.78726 5.2952 6.71151 5.2952H5.60031C5.52457 5.2952 5.45192 5.32529 5.39836 5.37885C5.3448 5.43241 5.31471 5.50505 5.31471 5.5808V6.6992C5.31471 6.77495 5.3448 6.84759 5.39836 6.90115C5.45192 6.95471 5.52457 6.9848 5.60031 6.9848H6.71631C6.79206 6.9848 6.8647 6.95471 6.91826 6.90115C6.97182 6.84759 7.00191 6.77495 7.00191 6.6992L6.99711 5.5808ZM6.99711 2.804C6.99711 2.76661 6.98971 2.72959 6.97533 2.69507C6.96095 2.66055 6.93987 2.62922 6.91332 2.6029C6.88677 2.57657 6.85526 2.55576 6.82063 2.54167C6.78599 2.52758 6.7489 2.52048 6.71151 2.5208H5.60031C5.56292 2.52048 5.52584 2.52758 5.4912 2.54167C5.45656 2.55576 5.42506 2.57657 5.39851 2.6029C5.37195 2.62922 5.35088 2.66055 5.3365 2.69507C5.32211 2.72959 5.31471 2.76661 5.31471 2.804V3.92C5.3144 3.95771 5.32155 3.99511 5.33576 4.03003C5.34997 4.06496 5.37096 4.09673 5.39751 4.1235C5.42406 4.15028 5.45565 4.17153 5.49046 4.18603C5.52527 4.20054 5.5626 4.208 5.60031 4.208H6.71631C6.79164 4.20674 6.86342 4.17576 6.91601 4.12182C6.96861 4.06788 6.99776 3.99534 6.99711 3.92V2.804ZM10.0643 11.132C10.0637 11.0567 10.0333 10.9846 9.97982 10.9316C9.92633 10.8786 9.85404 10.8488 9.77871 10.8488H8.66031C8.62292 10.8485 8.58584 10.8556 8.5512 10.8697C8.51656 10.8838 8.48506 10.9046 8.45851 10.9309C8.43195 10.9572 8.41088 10.9886 8.3965 11.0231C8.38212 11.0576 8.37471 11.0946 8.37471 11.132V12.2504C8.37471 12.3261 8.4048 12.3988 8.45836 12.4524C8.51192 12.5059 8.58457 12.536 8.66031 12.536H9.77871C9.85446 12.536 9.9271 12.5059 9.98066 12.4524C10.0342 12.3988 10.0643 12.3261 10.0643 12.2504V11.132ZM10.0643 8.3576C10.0643 8.28186 10.0342 8.20921 9.98066 8.15565C9.9271 8.10209 9.85446 8.072 9.77871 8.072H8.66031C8.58457 8.072 8.51192 8.10209 8.45836 8.15565C8.4048 8.20921 8.37471 8.28186 8.37471 8.3576V9.4736C8.37471 9.54935 8.4048 9.62199 8.45836 9.67555C8.51192 9.72911 8.58457 9.7592 8.66031 9.7592H9.77871C9.85446 9.7592 9.9271 9.72911 9.98066 9.67555C10.0342 9.62199 10.0643 9.54935 10.0643 9.4736V8.3576ZM10.0643 5.5808C10.0643 5.50505 10.0342 5.43241 9.98066 5.37885C9.9271 5.32529 9.85446 5.2952 9.77871 5.2952H8.66031C8.58457 5.2952 8.51192 5.32529 8.45836 5.37885C8.4048 5.43241 8.37471 5.50505 8.37471 5.5808V6.6992C8.37471 6.77495 8.4048 6.84759 8.45836 6.90115C8.51192 6.95471 8.58457 6.9848 8.66031 6.9848H9.77871C9.85426 6.98417 9.92654 6.95388 9.97997 6.90046C10.0334 6.84703 10.0637 6.77475 10.0643 6.6992V5.5808ZM10.0643 2.804C10.0637 2.72867 10.0333 2.65664 9.97982 2.6036C9.92633 2.55056 9.85404 2.5208 9.77871 2.5208H8.66031C8.62292 2.52048 8.58584 2.52758 8.5512 2.54167C8.51656 2.55576 8.48506 2.57657 8.45851 2.6029C8.43195 2.62922 8.41088 2.66055 8.3965 2.69507C8.38212 2.72959 8.37471 2.76661 8.37471 2.804V3.92C8.37471 3.99575 8.4048 4.06839 8.45836 4.12195C8.51192 4.17551 8.58457 4.2056 8.66031 4.2056H9.77871C9.85446 4.2056 9.9271 4.17551 9.98066 4.12195C10.0342 4.06839 10.0643 3.99575 10.0643 3.92V2.804Z" fill="black"/>
</svg>
