<svg width="24" height="24" viewBox="0 0 24 24" fill="none" xmlns="http://www.w3.org/2000/svg">
<path d="M23.616 20.2835C23.616 20.5108 23.5257 20.7288 23.365 20.8896C23.2042 21.0503 22.9862 21.1406 22.7589 21.1406L1.24118 21.1406C1.01385 21.1406 0.79583 21.0503 0.635085 20.8896C0.474339 20.7288 0.384033 20.5108 0.384033 20.2835C0.384033 20.0562 0.474339 19.8381 0.635085 19.6774C0.79583 19.5166 1.01385 19.4263 1.24118 19.4263L22.7589 19.4263C22.9862 19.4263 23.2042 19.5166 23.365 19.6774C23.5257 19.8381 23.616 20.0562 23.616 20.2835Z" fill="black"/>
<path d="M18.7953 17.5955V22.9715C18.7953 23.1988 18.705 23.4168 18.5443 23.5776C18.3835 23.7383 18.1655 23.8286 17.9382 23.8286C17.7109 23.8286 17.4929 23.7383 17.3321 23.5776C17.1714 23.4168 17.0811 23.1988 17.0811 22.9715V17.5955C17.0811 17.3681 17.1714 17.1501 17.3321 16.9894C17.4929 16.8286 17.7109 16.7383 17.9382 16.7383C18.1655 16.7383 18.3835 16.8286 18.5443 16.9894C18.705 17.1501 18.7953 17.3681 18.7953 17.5955Z" fill="black"/>
<path d="M23.616 3.71659C23.616 3.94392 23.5257 4.16193 23.365 4.32268C23.2042 4.48342 22.9862 4.57373 22.7589 4.57373L1.24118 4.57373C1.01385 4.57373 0.79583 4.48342 0.635085 4.32268C0.474339 4.16193 0.384033 3.94392 0.384033 3.71659C0.384033 3.48926 0.474339 3.27124 0.635085 3.1105C0.79583 2.94975 1.01385 2.85945 1.24118 2.85945L22.7589 2.85945C22.9862 2.85945 23.2042 2.94975 23.365 3.1105C23.5257 3.27124 23.616 3.48926 23.616 3.71659Z" fill="black"/>
<path d="M18.7953 1.02858V6.40458C18.7953 6.6319 18.705 6.84992 18.5443 7.01067C18.3835 7.17141 18.1655 7.26172 17.9382 7.26172C17.7109 7.26172 17.4929 7.17141 17.3321 7.01067C17.1714 6.84992 17.0811 6.6319 17.0811 6.40458V1.02858C17.0811 0.801247 17.1714 0.583229 17.3321 0.422483C17.4929 0.261738 17.7109 0.171433 17.9382 0.171433C18.1655 0.171433 18.3835 0.261738 18.5443 0.422483C18.705 0.583229 18.7953 0.801247 18.7953 1.02858Z" fill="black"/>
<path d="M23.616 12C23.616 12.2274 23.5257 12.4454 23.365 12.6061C23.2042 12.7669 22.9862 12.8572 22.7589 12.8572L1.24118 12.8572C1.01385 12.8572 0.79583 12.7669 0.635085 12.6061C0.474339 12.4454 0.384033 12.2274 0.384033 12C0.384033 11.7727 0.474339 11.5547 0.635085 11.3939C0.79583 11.2332 1.01385 11.1429 1.24118 11.1429L22.7589 11.1429C22.9862 11.1429 23.2042 11.2332 23.365 11.3939C23.5257 11.5547 23.616 11.7727 23.616 12Z" fill="black"/>
<path d="M6.91888 9.31202L6.91888 14.688C6.91888 14.9154 6.82857 15.1334 6.66782 15.2941C6.50708 15.4549 6.28906 15.5452 6.06173 15.5452C5.8344 15.5452 5.61639 15.4549 5.45564 15.2941C5.2949 15.1334 5.20459 14.9154 5.20459 14.688L5.20459 9.31202C5.20459 9.0847 5.2949 8.86668 5.45564 8.70593C5.61639 8.54519 5.8344 8.45488 6.06173 8.45488C6.28906 8.45488 6.50708 8.54519 6.66782 8.70593C6.82857 8.86668 6.91888 9.0847 6.91888 9.31202Z" fill="black"/>
</svg>
