<svg width="24" height="18" viewBox="0 0 24 18" fill="none" xmlns="http://www.w3.org/2000/svg">
<path d="M21.933 6.95297L21.371 5.63578L20.3745 3.3C19.519 1.29516 17.4785 0 15.175 0H8.825C6.522 0 4.481 1.29516 3.6255 3.3L2.629 5.63578L2.067 6.95297C0.861 7.38281 0 8.46844 0 9.75V12C0 12.7556 0.308 13.4377 0.8 13.9655V16.5C0.8 17.3283 1.5165 18 2.4 18H4C4.8835 18 5.6 17.3283 5.6 16.5V15H18.4V16.5C18.4 17.3283 19.1165 18 20 18H21.6C22.4835 18 23.2 17.3283 23.2 16.5V13.9655C23.692 13.4381 24 12.7561 24 12V9.75C24 8.46844 23.139 7.38281 21.933 6.95297ZM6.5965 4.41422C6.961 3.56016 7.8435 3 8.825 3H15.175C16.1565 3 17.039 3.56016 17.4035 4.41422L18.4 6.75H5.6L6.5965 4.41422ZM4 11.9906C3.04 11.9906 2.4 11.3925 2.4 10.4953C2.4 9.59812 3.04 9 4 9C4.96 9 6.4 10.3458 6.4 11.243C6.4 12.1402 4.96 11.9906 4 11.9906ZM20 11.9906C19.04 11.9906 17.6 12.1402 17.6 11.243C17.6 10.3458 19.04 9 20 9C20.96 9 21.6 9.59812 21.6 10.4953C21.6 11.3925 20.96 11.9906 20 11.9906Z" fill="black"/>
</svg>
