<svg width="24" height="18" viewBox="0 0 24 18" fill="none" xmlns="http://www.w3.org/2000/svg">
<path d="M13.1249 2.875C13.1249 2.42999 13.2569 1.99498 13.5041 1.62497C13.7513 1.25496 14.1027 0.966569 14.5139 0.796272C14.925 0.625975 15.3774 0.581417 15.8139 0.668234C16.2503 0.755051 16.6512 0.969343 16.9659 1.28401C17.2806 1.59868 17.4948 1.99959 17.5817 2.43605C17.6685 2.87251 17.6239 3.32491 17.4536 3.73604C17.2833 4.14717 16.9949 4.49857 16.6249 4.74581C16.2549 4.99304 15.8199 5.125 15.3749 5.125C14.7789 5.12253 14.2081 4.88469 13.7866 4.46327C13.3652 4.04184 13.1274 3.47098 13.1249 2.875ZM23.9061 17.125C23.839 17.2394 23.7431 17.3342 23.628 17.4C23.5129 17.4657 23.3825 17.5002 23.2499 17.5H0.749896C0.618306 17.5015 0.488755 17.4674 0.374905 17.4014C0.261054 17.3354 0.167124 17.2399 0.103021 17.125C0.0344807 17.0102 -0.00170898 16.879 -0.00170898 16.7453C-0.00170898 16.6116 0.0344807 16.4804 0.103021 16.3656L6.95615 4.72188C7.08849 4.49631 7.27751 4.30927 7.50445 4.1793C7.7314 4.04934 7.98837 3.98096 8.2499 3.98096C8.51142 3.98096 8.7684 4.04934 8.99534 4.1793C9.22228 4.30927 9.4113 4.49631 9.54365 4.72188L13.5093 11.4625L15.9561 7.32813C16.0903 7.10486 16.28 6.92012 16.5067 6.79186C16.7334 6.66361 16.9894 6.5962 17.2499 6.5962C17.5104 6.5962 17.7664 6.66361 17.9931 6.79186C18.2198 6.92012 18.4095 7.10486 18.5436 7.32813L23.8968 16.3656C23.9631 16.4809 23.9988 16.6112 24.0004 16.7441C24.002 16.877 23.9696 17.0082 23.9061 17.125ZM6.02802 9.25H10.4718L8.2499 5.48125L6.02802 9.25Z" fill="black"/>
</svg>
