<svg width="24" height="24" viewBox="0 0 24 24" fill="none" xmlns="http://www.w3.org/2000/svg">
<path d="M12 0.375C5.37097 0.375 0 5.57812 0 12C0 18.4219 5.37097 23.625 12 23.625C18.629 23.625 24 18.4219 24 12C24 5.57812 18.629 0.375 12 0.375ZM15.871 8.25C16.7274 8.25 17.4194 8.92031 17.4194 9.75C17.4194 10.5797 16.7274 11.25 15.871 11.25C15.0145 11.25 14.3226 10.5797 14.3226 9.75C14.3226 8.92031 15.0145 8.25 15.871 8.25ZM8.12903 8.25C8.98548 8.25 9.67742 8.92031 9.67742 9.75C9.67742 10.5797 8.98548 11.25 8.12903 11.25C7.27258 11.25 6.58065 10.5797 6.58065 9.75C6.58065 8.92031 7.27258 8.25 8.12903 8.25ZM17.5548 16.2281C16.1758 17.8313 14.1532 18.75 12 18.75C9.84677 18.75 7.82419 17.8313 6.44516 16.2281C5.7871 15.4641 6.97742 14.5078 7.63548 15.2672C8.71935 16.5281 10.3065 17.2453 12 17.2453C13.6935 17.2453 15.2806 16.5234 16.3645 15.2672C17.0129 14.5078 18.2081 15.4641 17.5548 16.2281Z" fill="black"/>
</svg>
