<svg width="32" height="32" viewBox="0 0 32 32" fill="none" xmlns="http://www.w3.org/2000/svg">
<path d="M29.2798 12.4445H27.5554V8.00005C27.5554 7.76431 27.4617 7.53821 27.295 7.37151C27.1283 7.20482 26.9023 7.11116 26.6665 7.11116H5.33317C5.09742 7.11116 4.87133 7.01751 4.70463 6.85081C4.53793 6.68412 4.44428 6.45802 4.44428 6.22228C4.44428 5.98653 4.53793 5.76044 4.70463 5.59374C4.87133 5.42704 5.09742 5.33339 5.33317 5.33339H26.311C26.5467 5.33339 26.7728 5.23974 26.9395 5.07304C27.1062 4.90634 27.1998 4.68025 27.1998 4.4445C27.1998 4.20875 27.1062 3.98266 26.9395 3.81596C26.7728 3.64926 26.5467 3.55561 26.311 3.55561H5.33317C4.98996 3.54853 4.64873 3.60914 4.32895 3.73398C4.00917 3.85882 3.71713 4.04543 3.46949 4.28316C3.22185 4.52089 3.02348 4.80509 2.8857 5.1195C2.74792 5.43392 2.67344 5.7724 2.6665 6.11561V24.7823C2.66767 25.2651 2.76407 25.743 2.9502 26.1885C3.13632 26.6341 3.40851 27.0385 3.75117 27.3787C4.09383 27.7189 4.50024 27.9881 4.94711 28.171C5.39399 28.3539 5.87255 28.4468 6.35539 28.4445H26.6665C26.9023 28.4445 27.1283 28.3508 27.295 28.1841C27.4617 28.0174 27.5554 27.7914 27.5554 27.5556V23.1112H29.2798C29.392 23.1197 29.5048 23.1051 29.6112 23.0685C29.7176 23.0319 29.8154 22.974 29.8986 22.8983C29.9818 22.8225 30.0487 22.7306 30.0951 22.6281C30.1416 22.5257 30.1666 22.4148 30.1687 22.3023V13.4134C30.1717 13.1691 30.0814 12.9329 29.9162 12.7529C29.751 12.5729 29.5235 12.4626 29.2798 12.4445ZM28.4443 21.3334H20.8176C19.9067 21.3009 19.0458 20.9083 18.4242 20.2416C17.8025 19.575 17.4709 18.6888 17.5021 17.7778C17.4709 16.8668 17.8025 15.9807 18.4242 15.314C19.0458 14.6474 19.9067 14.2547 20.8176 14.2223H28.4443V21.3334Z" fill="#58B4D1"/>
<path d="M21.369 19.04C22.1054 19.04 22.7023 18.4431 22.7023 17.7067C22.7023 16.9703 22.1054 16.3734 21.369 16.3734C20.6326 16.3734 20.0356 16.9703 20.0356 17.7067C20.0356 18.4431 20.6326 19.04 21.369 19.04Z" fill="#58B4D1"/>
</svg>
