<svg width="24" height="24" viewBox="0 0 24 24" fill="none" xmlns="http://www.w3.org/2000/svg">
<path d="M17.7188 11.6625V19.8375H21.8062V11.6625H17.7188ZM18.9 12.4875H20.5312V14.1187H18.9V12.4875ZM18.9 14.9437H20.5312V16.575H18.9V14.9437ZM18.9 17.4937H20.5312V19.125H18.9V17.4937Z" fill="#58B4D1"/>
<path d="M2.17529 11.6625V19.8375H6.26279V11.6625H2.17529ZM3.35654 12.4875H4.98779V14.1187H3.35654V12.4875ZM3.35654 14.9437H4.98779V16.575H3.35654V14.9437ZM3.35654 17.4937H4.98779V19.125H3.35654V17.4937Z" fill="#58B4D1"/>
<path d="M7.08765 9.20626V19.8375H11.1751V16.575H12.8064V19.8563H16.8939V9.20626L12.0001 5.11876L7.08765 9.20626ZM9.5439 16.05H7.91265V14.4188H9.5439V16.05ZM9.5439 13.5375H7.91265V11.9063H9.5439V13.5375ZM9.5439 10.9875H7.91265V9.35626H9.5439V10.9875ZM12.8251 16.05H11.1939V14.4188H12.8251V16.05ZM12.8251 13.5375H11.1939V11.9063H12.8251V13.5375ZM14.4001 9.33751H16.0314V10.9688H14.4001V9.33751ZM14.4001 11.9063H16.0314V13.5375H14.4001V11.9063ZM14.4001 14.4H16.0314V16.0313H14.4001V14.4ZM12.8251 10.9875H11.1939V9.35626H12.8251V10.9875Z" fill="#58B4D1"/>
<path d="M12.0003 4.16249L6.11279 9.20624L6.45029 9.59999L12.0003 4.83749L17.5503 9.59999L17.8878 9.20624L12.0003 4.16249Z" fill="#58B4D1"/>
<path d="M21.8062 10.95H17.7188V11.4562H21.8062V10.95Z" fill="#58B4D1"/>
<path d="M6.26279 10.95H2.17529V11.4562H6.26279V10.95Z" fill="#58B4D1"/>
</svg>
