<svg width="24" height="24" viewBox="0 0 24 24" fill="none" xmlns="http://www.w3.org/2000/svg">
<g clip-path="url(#clip0_2465_37585)">
<path fill-rule="evenodd" clip-rule="evenodd" d="M12.72 16.3515C16.8165 15.3405 19.5 11.7555 19.5 7.5C19.5 5.51088 18.7098 3.60322 17.3033 2.1967C15.8968 0.790176 13.9891 0 12 0C10.0109 0 8.10322 0.790176 6.6967 2.1967C5.29018 3.60322 4.5 5.51088 4.5 7.5C4.5 11.7555 7.1835 15.3405 11.28 16.3515L10.914 17.082C10.8919 17.1261 10.8788 17.1742 10.8753 17.2234C10.8718 17.2726 10.878 17.322 10.8936 17.3688C10.9251 17.4633 10.9929 17.5414 11.082 17.586C11.1711 17.6306 11.2743 17.6379 11.3688 17.6064C11.4633 17.5749 11.5414 17.5071 11.586 17.418L11.646 17.298C11.6595 17.553 11.682 17.7705 11.7225 17.973C11.8245 18.489 12.0345 18.906 12.3945 19.626L12.414 19.668C12.732 20.301 12.687 20.943 12.489 21.537C12.2865 22.14 11.94 22.6635 11.688 23.0415C11.6327 23.1242 11.6125 23.2256 11.632 23.3232C11.6514 23.4208 11.7088 23.5067 11.7915 23.562C11.8742 23.6173 11.9756 23.6375 12.0732 23.618C12.1708 23.5986 12.2567 23.5412 12.312 23.4585L12.318 23.448C12.567 23.076 12.9645 22.479 13.2 21.7755C13.44 21.057 13.518 20.199 13.086 19.332C12.699 18.5595 12.5385 18.234 12.4575 17.826C12.4302 17.6828 12.4116 17.538 12.402 17.3925L12.414 17.418C12.4586 17.5071 12.5367 17.5749 12.6312 17.6064C12.7257 17.6379 12.8289 17.6306 12.918 17.586C13.0071 17.5414 13.0749 17.4633 13.1064 17.3688C13.1379 17.2743 13.1306 17.1711 13.086 17.082L12.72 16.3515ZM6.528 5.034C6.95116 4.09683 7.60785 3.284 8.43518 2.67336C9.2625 2.06272 10.2327 1.67471 11.253 1.5465C11.661 1.4955 12 1.836 12 2.25C12 2.664 11.661 2.994 11.253 3.063C9.828 3.306 8.6295 4.233 7.9935 5.4885C7.9233 5.6374 7.81329 5.76398 7.67564 5.85425C7.53798 5.94453 7.37804 5.99497 7.2135 6C6.6945 6 6.315 5.5065 6.528 5.034Z" fill="#58B4D1"/>
</g>
<defs>
<clipPath id="clip0_2465_37585">
<rect width="24" height="24" fill="white"/>
</clipPath>
</defs>
</svg>
