<svg width="52" height="52" viewBox="0 0 52 52" fill="none" xmlns="http://www.w3.org/2000/svg">
<path d="M26 0C19.1044 0 12.4912 2.73928 7.61522 7.61522C2.73928 12.4912 0 19.1044 0 26C0 32.8956 2.73928 39.5088 7.61522 44.3848C12.4912 49.2607 19.1044 52 26 52C32.8956 52 39.5088 49.2607 44.3848 44.3848C49.2607 39.5088 52 32.8956 52 26C52 19.1044 49.2607 12.4912 44.3848 7.61522C39.5088 2.73928 32.8956 0 26 0V0ZM37.375 24.375C37.806 24.375 38.2193 24.5462 38.524 24.851C38.8288 25.1557 39 25.569 39 26C39 26.431 38.8288 26.8443 38.524 27.149C38.2193 27.4538 37.806 27.625 37.375 27.625H18.5477L25.5255 34.5995C25.6766 34.7506 25.7964 34.93 25.8782 35.1274C25.96 35.3248 26.0021 35.5363 26.0021 35.75C26.0021 35.9637 25.96 36.1752 25.8782 36.3726C25.7964 36.57 25.6766 36.7494 25.5255 36.9005C25.3744 37.0516 25.195 37.1714 24.9976 37.2532C24.8002 37.335 24.5887 37.3771 24.375 37.3771C24.1613 37.3771 23.9498 37.335 23.7524 37.2532C23.555 37.1714 23.3756 37.0516 23.2245 36.9005L13.4745 27.1505C13.3232 26.9996 13.2031 26.8202 13.1212 26.6228C13.0393 26.4254 12.9971 26.2137 12.9971 26C12.9971 25.7863 13.0393 25.5746 13.1212 25.3772C13.2031 25.1798 13.3232 25.0004 13.4745 24.8495L23.2245 15.0995C23.3756 14.9484 23.555 14.8286 23.7524 14.7468C23.9498 14.665 24.1613 14.6229 24.375 14.6229C24.5887 14.6229 24.8002 14.665 24.9976 14.7468C25.195 14.8286 25.3744 14.9484 25.5255 15.0995C25.6766 15.2506 25.7964 15.4299 25.8782 15.6274C25.96 15.8248 26.0021 16.0363 26.0021 16.25C26.0021 16.4637 25.96 16.6752 25.8782 16.8726C25.7964 17.07 25.6766 17.2494 25.5255 17.4005L18.5477 24.375H37.375Z" fill="#58B4D1"/>
</svg>
