<svg width="52" height="52" viewBox="0 0 52 52" fill="none" xmlns="http://www.w3.org/2000/svg">
<path d="M26 52C32.8956 52 39.5088 49.2607 44.3848 44.3848C49.2607 39.5088 52 32.8956 52 26C52 19.1044 49.2607 12.4912 44.3848 7.61522C39.5088 2.73928 32.8956 0 26 0C19.1044 0 12.4912 2.73928 7.61522 7.61522C2.73928 12.4912 0 19.1044 0 26C0 32.8956 2.73928 39.5088 7.61522 44.3848C12.4912 49.2607 19.1044 52 26 52V52ZM14.625 27.625C14.194 27.625 13.7807 27.4538 13.476 27.149C13.1712 26.8443 13 26.431 13 26C13 25.569 13.1712 25.1557 13.476 24.851C13.7807 24.5462 14.194 24.375 14.625 24.375H33.4523L26.4745 17.4005C26.3234 17.2494 26.2036 17.07 26.1218 16.8726C26.04 16.6752 25.9979 16.4637 25.9979 16.25C25.9979 16.0363 26.04 15.8248 26.1218 15.6274C26.2036 15.43 26.3234 15.2506 26.4745 15.0995C26.6256 14.9484 26.805 14.8286 27.0024 14.7468C27.1998 14.665 27.4113 14.6229 27.625 14.6229C27.8387 14.6229 28.0502 14.665 28.2476 14.7468C28.445 14.8286 28.6244 14.9484 28.7755 15.0995L38.5255 24.8495C38.6768 25.0004 38.7969 25.1798 38.8788 25.3772C38.9607 25.5746 39.0029 25.7863 39.0029 26C39.0029 26.2137 38.9607 26.4254 38.8788 26.6228C38.7969 26.8202 38.6768 26.9996 38.5255 27.1505L28.7755 36.9005C28.6244 37.0516 28.445 37.1714 28.2476 37.2532C28.0502 37.335 27.8387 37.3771 27.625 37.3771C27.4113 37.3771 27.1998 37.335 27.0024 37.2532C26.805 37.1714 26.6256 37.0516 26.4745 36.9005C26.3234 36.7494 26.2036 36.5701 26.1218 36.3726C26.04 36.1752 25.9979 35.9637 25.9979 35.75C25.9979 35.5363 26.04 35.3248 26.1218 35.1274C26.2036 34.93 26.3234 34.7506 26.4745 34.5995L33.4523 27.625H14.625Z" fill="#58B4D1"/>
</svg>
