<svg width="24" height="20" viewBox="0 0 24 20" fill="none" xmlns="http://www.w3.org/2000/svg">
<path fill-rule="evenodd" clip-rule="evenodd" d="M0.800049 2.00002C0.800049 1.57568 0.96862 1.16871 1.26868 0.868654C1.56874 0.568596 1.9757 0.400024 2.40005 0.400024H21.6C22.0244 0.400024 22.4314 0.568596 22.7314 0.868654C23.0315 1.16871 23.2001 1.57568 23.2001 2.00002C23.2001 2.42437 23.0315 2.83134 22.7314 3.13139C22.4314 3.43145 22.0244 3.60002 21.6 3.60002H2.40005C1.9757 3.60002 1.56874 3.43145 1.26868 3.13139C0.96862 2.83134 0.800049 2.42437 0.800049 2.00002ZM0.800049 10C0.800049 9.57568 0.96862 9.16871 1.26868 8.86865C1.56874 8.56859 1.9757 8.40002 2.40005 8.40002H21.6C22.0244 8.40002 22.4314 8.56859 22.7314 8.86865C23.0315 9.16871 23.2001 9.57568 23.2001 10C23.2001 10.4244 23.0315 10.8313 22.7314 11.1314C22.4314 11.4315 22.0244 11.6 21.6 11.6H2.40005C1.9757 11.6 1.56874 11.4315 1.26868 11.1314C0.96862 10.8313 0.800049 10.4244 0.800049 10ZM0.800049 18C0.800049 17.5757 0.96862 17.1687 1.26868 16.8687C1.56874 16.5686 1.9757 16.4 2.40005 16.4H21.6C22.0244 16.4 22.4314 16.5686 22.7314 16.8687C23.0315 17.1687 23.2001 17.5757 23.2001 18C23.2001 18.4244 23.0315 18.8313 22.7314 19.1314C22.4314 19.4314 22.0244 19.6 21.6 19.6H2.40005C1.9757 19.6 1.56874 19.4314 1.26868 19.1314C0.96862 18.8313 0.800049 18.4244 0.800049 18Z" fill="#58B4D1"/>
</svg>
