<svg width="32" height="32" viewBox="0 0 32 32" fill="none" xmlns="http://www.w3.org/2000/svg">
<path d="M28 26.6667V8.00002C28 6.52935 26.804 5.33335 25.3333 5.33335H22.6667V2.66669H20V5.33335H12V2.66669H9.33333V5.33335H6.66667C5.196 5.33335 4 6.52935 4 8.00002V26.6667C4 28.1374 5.196 29.3334 6.66667 29.3334H25.3333C26.804 29.3334 28 28.1374 28 26.6667ZM12 24H9.33333V21.3334H12V24ZM12 18.6667H9.33333V16H12V18.6667ZM17.3333 24H14.6667V21.3334H17.3333V24ZM17.3333 18.6667H14.6667V16H17.3333V18.6667ZM22.6667 24H20V21.3334H22.6667V24ZM22.6667 18.6667H20V16H22.6667V18.6667ZM25.3333 12H6.66667V9.33335H25.3333V12Z" fill="#58B4D1"/>
</svg>
