<svg width="24" height="24" viewBox="0 0 24 24" fill="none" xmlns="http://www.w3.org/2000/svg">
<path d="M20.9644 10.0472L19.318 5.34315C18.8692 4.06155 17.6548 3.19995 16.2964 3.19995H7.70281C6.34441 3.19995 5.13001 4.06155 4.68201 5.34235L3.03561 10.0464C2.15641 10.6248 1.59961 11.624 1.59961 12.7232V18.4C1.59961 19.284 2.31561 20 3.19961 20C4.08361 20 4.79961 19.284 4.79961 18.4V17.3912C4.79961 17.3912 9.02441 17.6 11.9996 17.6C14.9748 17.6 19.1996 17.3912 19.1996 17.3912V18.4C19.1996 19.284 19.9156 20 20.7996 20C21.6836 20 22.3996 19.284 22.3996 18.4V12.7232C22.3996 11.624 21.842 10.6248 20.9644 10.0472ZM5.27561 8.49035L6.19241 5.87115C6.41721 5.22955 7.02281 4.79995 7.70281 4.79995H16.2964C16.9764 4.79995 17.582 5.22955 17.8068 5.87115L18.7236 8.49035C18.8676 8.90235 18.5244 9.31755 18.0932 9.24795C16.5244 8.99435 14.5076 8.79995 11.9996 8.79995C9.49161 8.79995 7.47481 8.99435 5.90601 9.24795C5.47481 9.31755 5.13161 8.90235 5.27561 8.49035ZM5.19961 14.4C4.53721 14.4 3.99961 13.8624 3.99961 13.2C3.99961 12.5376 4.53721 12 5.19961 12C5.86201 12 6.39961 12.5376 6.39961 13.2C6.39961 13.8624 5.86201 14.4 5.19961 14.4ZM14.3996 13.6H9.59961C9.15801 13.6 8.79961 13.2416 8.79961 12.8C8.79961 12.3584 9.15801 12 9.59961 12H14.3996C14.8412 12 15.1996 12.3584 15.1996 12.8C15.1996 13.2416 14.8412 13.6 14.3996 13.6ZM18.7996 14.4C18.1372 14.4 17.5996 13.8624 17.5996 13.2C17.5996 12.5376 18.1372 12 18.7996 12C19.462 12 19.9996 12.5376 19.9996 13.2C19.9996 13.8624 19.462 14.4 18.7996 14.4Z" fill="#58B4D1"/>
</svg>
