<svg width="32" height="32" viewBox="0 0 32 32" fill="none" xmlns="http://www.w3.org/2000/svg">
<path d="M18.4268 29.3333H13.5735C13.2694 29.3333 12.9744 29.2294 12.7375 29.0388C12.5006 28.8482 12.3359 28.5823 12.2708 28.2853L11.7282 25.7733C11.0042 25.4561 10.3178 25.0594 9.6815 24.5906L7.23217 25.3706C6.94226 25.4631 6.62944 25.4536 6.34566 25.3437C6.06189 25.2338 5.82424 25.0302 5.67217 24.7666L3.24017 20.5653C3.0897 20.3015 3.03321 19.9944 3.07996 19.6943C3.12671 19.3942 3.27392 19.1188 3.4975 18.9133L5.3975 17.18C5.3111 16.3948 5.3111 15.6025 5.3975 14.8173L3.4975 13.088C3.2736 12.8823 3.12619 12.6067 3.07944 12.3063C3.03268 12.0059 3.08936 11.6986 3.24017 11.4346L5.66684 7.23063C5.81891 6.96705 6.05656 6.76341 6.34033 6.65354C6.6241 6.54367 6.93692 6.53417 7.22684 6.62663L9.67617 7.40663C10.0015 7.16663 10.3402 6.94263 10.6895 6.73996C11.0268 6.55063 11.3735 6.37863 11.7282 6.22529L12.2722 3.71596C12.3369 3.41889 12.5013 3.15288 12.738 2.96202C12.9747 2.77117 13.2695 2.66695 13.5735 2.66663H18.4268C18.7309 2.66695 19.0257 2.77117 19.2624 2.96202C19.4991 3.15288 19.6634 3.41889 19.7282 3.71596L20.2775 6.22663C21.0005 6.54565 21.6867 6.94219 22.3242 7.40929L24.7748 6.62929C25.0646 6.53718 25.3771 6.54685 25.6606 6.65671C25.9441 6.76656 26.1815 6.97 26.3335 7.23329L28.7602 11.4373C29.0695 11.98 28.9628 12.6666 28.5028 13.0893L26.6028 14.8226C26.6892 15.6078 26.6892 16.4001 26.6028 17.1853L28.5028 18.9186C28.9628 19.3426 29.0695 20.028 28.7602 20.5706L26.3335 24.7746C26.1814 25.0382 25.9438 25.2418 25.66 25.3517C25.3762 25.4616 25.0634 25.4711 24.7735 25.3786L22.3242 24.5986C21.6884 25.0671 21.0023 25.4633 20.2788 25.78L19.7282 28.2853C19.6631 28.5821 19.4987 28.8478 19.262 29.0384C19.0254 29.229 18.7307 29.333 18.4268 29.3333ZM15.9948 10.6666C14.5804 10.6666 13.2238 11.2285 12.2236 12.2287C11.2234 13.2289 10.6615 14.5855 10.6615 16C10.6615 17.4144 11.2234 18.771 12.2236 19.7712C13.2238 20.7714 14.5804 21.3333 15.9948 21.3333C17.4093 21.3333 18.7659 20.7714 19.7661 19.7712C20.7663 18.771 21.3282 17.4144 21.3282 16C21.3282 14.5855 20.7663 13.2289 19.7661 12.2287C18.7659 11.2285 17.4093 10.6666 15.9948 10.6666Z" fill="#58B4D1"/>
</svg>
