<svg width="32" height="32" viewBox="0 0 32 32" fill="none" xmlns="http://www.w3.org/2000/svg">
<path d="M28.7376 5.33334C28.6165 5.32085 28.4943 5.32085 28.3732 5.33334H3.48429C3.32478 5.3358 3.16632 5.35971 3.01318 5.40445L15.8576 18.1956L28.7376 5.33334Z" fill="#58B4D1"/>
<path d="M30.0531 6.56885L17.1109 19.4577C16.7778 19.7888 16.3272 19.9747 15.8576 19.9747C15.3879 19.9747 14.9373 19.7888 14.6042 19.4577L1.77755 6.66663C1.73812 6.81155 1.71722 6.96089 1.71533 7.11107V24.8888C1.71533 25.3603 1.90263 25.8125 2.23603 26.1459C2.56943 26.4793 3.02161 26.6666 3.49311 26.6666H28.382C28.8535 26.6666 29.3057 26.4793 29.6391 26.1459C29.9725 25.8125 30.1598 25.3603 30.1598 24.8888V7.11107C30.1527 6.92587 30.1167 6.74292 30.0531 6.56885ZM4.71089 24.8888H3.47533V23.6177L9.93755 17.2088L11.1909 18.4622L4.71089 24.8888ZM28.3642 24.8888H27.1198L20.6398 18.4622L21.8931 17.2088L28.3553 23.6177L28.3642 24.8888Z" fill="#58B4D1"/>
</svg>
