<svg width="24" height="24" viewBox="0 0 24 24" fill="none" xmlns="http://www.w3.org/2000/svg">
<path d="M14.4 4.7999H18C18.72 4.7999 19.2 5.2799 19.2 5.9999V7.1999H3.6V5.9999C3.6 5.2799 4.2 4.7999 4.8 4.7999H8.4C8.64 3.4799 9.96 2.3999 11.4 2.3999C12.84 2.3999 14.16 3.4799 14.4 4.7999ZM9.6 4.7999H13.2C12.96 4.0799 12.12 3.5999 11.4 3.5999C10.68 3.5999 9.84 4.0799 9.6 4.7999ZM4.8 8.3999H18L16.92 20.5199C16.92 21.1199 16.32 21.5999 15.72 21.5999H7.08C6.48 21.5999 6 21.1199 5.88 20.5199L4.8 8.3999Z" fill="black"/>
</svg>
