<svg width="32" height="32" viewBox="0 0 32 32" fill="none" xmlns="http://www.w3.org/2000/svg">
<path d="M19.1998 6.39995H23.9998C24.9598 6.39995 25.5998 7.03995 25.5998 7.99995V9.59995H4.7998V7.99995C4.7998 7.03995 5.5998 6.39995 6.3998 6.39995H11.1998C11.5198 4.63995 13.2798 3.19995 15.1998 3.19995C17.1198 3.19995 18.8798 4.63995 19.1998 6.39995ZM12.7998 6.39995H17.5998C17.2798 5.43995 16.1598 4.79995 15.1998 4.79995C14.2398 4.79995 13.1198 5.43995 12.7998 6.39995ZM6.3998 11.2H23.9998L22.5598 27.36C22.5598 28.16 21.7598 28.7999 20.9598 28.7999H9.4398C8.6398 28.7999 7.9998 28.16 7.8398 27.36L6.3998 11.2Z" fill="white"/>
</svg>
