<svg width="18" height="18" viewBox="0 0 18 18" fill="none" xmlns="http://www.w3.org/2000/svg">
<path d="M7.57934 10.4318C7.64769 11.1436 7.76356 11.6726 7.92303 12.0217C8.08447 12.3696 8.37106 12.5431 8.78478 12.5431C8.86212 12.5431 8.93131 12.531 8.99994 12.5169C9.07025 12.531 9.13916 12.5431 9.21706 12.5431C9.62966 12.5431 9.91709 12.3696 10.0777 12.0217C10.238 11.6726 10.3519 11.1436 10.4217 10.4318L10.789 4.93556C10.8573 3.86428 10.8922 3.09563 10.8922 2.62903C10.8922 1.99397 10.7265 1.49841 10.3941 1.14262C10.0605 0.786844 9.62234 0.609375 9.07953 0.609375C9.05056 0.609375 9.02891 0.615844 9.0005 0.616969C8.9735 0.615844 8.95128 0.609375 8.92316 0.609375C8.37922 0.609375 7.94187 0.786844 7.60887 1.14262C7.27616 1.49897 7.10938 1.99481 7.10938 2.62931C7.10938 3.09591 7.14341 3.86456 7.21288 4.93584L7.57934 10.4318ZM9.01428 14.5521C8.48722 14.5521 8.03947 14.7183 7.66766 15.0507C7.29612 15.3834 7.10994 15.7873 7.10994 16.2615C7.10994 16.7967 7.29837 17.218 7.67244 17.524C8.04819 17.83 8.48637 17.983 8.98728 17.983C9.49719 17.983 9.94184 17.8323 10.3221 17.5299C10.7018 17.2284 10.8916 16.8049 10.8916 16.2621C10.8916 15.7879 10.7099 15.384 10.3466 15.0513C9.98319 14.7183 9.53909 14.5521 9.01344 14.5521" fill="#E3170A"/>
</svg>
