<svg width="32" height="32" viewBox="0 0 32 32" fill="none" xmlns="http://www.w3.org/2000/svg">
<path d="M12.3752 16C12.3752 16.9283 12.7439 17.8185 13.4003 18.4749C14.0567 19.1313 14.9469 19.5 15.8752 19.5C16.8034 19.5 17.6937 19.1313 18.3501 18.4749C19.0064 17.8185 19.3752 16.9283 19.3752 16C19.3752 15.0717 19.0064 14.1815 18.3501 13.5251C17.6937 12.8687 16.8034 12.5 15.8752 12.5C14.9469 12.5 14.0567 12.8687 13.4003 13.5251C12.7439 14.1815 12.3752 15.0717 12.3752 16ZM29.4439 15.1938C26.4814 8.95313 22.0033 5.8125 16.0002 5.8125C9.99393 5.8125 5.51893 8.95312 2.55643 15.1969C2.4376 15.4485 2.37598 15.7233 2.37598 16.0016C2.37598 16.2798 2.4376 16.5546 2.55643 16.8062C5.51893 23.0469 9.99706 26.1875 16.0002 26.1875C22.0064 26.1875 26.4814 23.0469 29.4439 16.8031C29.6846 16.2969 29.6846 15.7094 29.4439 15.1938ZM15.8752 21.5C12.8377 21.5 10.3752 19.0375 10.3752 16C10.3752 12.9625 12.8377 10.5 15.8752 10.5C18.9127 10.5 21.3752 12.9625 21.3752 16C21.3752 19.0375 18.9127 21.5 15.8752 21.5Z" fill="white"/>
</svg>
