<svg width="24" height="24" viewBox="0 0 24 24" fill="none" xmlns="http://www.w3.org/2000/svg">
<path d="M23.616 20.2835C23.616 20.5108 23.5257 20.7288 23.365 20.8896C23.2042 21.0503 22.9862 21.1406 22.7589 21.1406L1.24118 21.1406C1.01385 21.1406 0.79583 21.0503 0.635085 20.8896C0.474339 20.7288 0.384033 20.5108 0.384033 20.2835C0.384033 20.0562 0.474339 19.8381 0.635085 19.6774C0.79583 19.5166 1.01385 19.4263 1.24118 19.4263L22.7589 19.4263C22.9862 19.4263 23.2042 19.5166 23.365 19.6774C23.5257 19.8381 23.616 20.0562 23.616 20.2835Z" fill="black"/>
<path d="M18.7955 17.5955V22.9715C18.7955 23.1988 18.7052 23.4168 18.5444 23.5776C18.3837 23.7383 18.1656 23.8286 17.9383 23.8286C17.711 23.8286 17.493 23.7383 17.3322 23.5776C17.1715 23.4168 17.0812 23.1988 17.0812 22.9715V17.5955C17.0812 17.3681 17.1715 17.1501 17.3322 16.9894C17.493 16.8286 17.711 16.7383 17.9383 16.7383C18.1656 16.7383 18.3837 16.8286 18.5444 16.9894C18.7052 17.1501 18.7955 17.3681 18.7955 17.5955Z" fill="black"/>
<path d="M23.616 3.71659C23.616 3.94392 23.5257 4.16193 23.365 4.32268C23.2042 4.48342 22.9862 4.57373 22.7589 4.57373L1.24118 4.57373C1.01385 4.57373 0.79583 4.48342 0.635085 4.32268C0.474339 4.16193 0.384033 3.94392 0.384033 3.71659C0.384033 3.48926 0.474339 3.27124 0.635085 3.1105C0.79583 2.94975 1.01385 2.85945 1.24118 2.85945L22.7589 2.85945C22.9862 2.85945 23.2042 2.94975 23.365 3.1105C23.5257 3.27124 23.616 3.48926 23.616 3.71659Z" fill="black"/>
<path d="M18.7955 1.02858V6.40458C18.7955 6.6319 18.7052 6.84992 18.5444 7.01067C18.3837 7.17141 18.1656 7.26172 17.9383 7.26172C17.711 7.26172 17.493 7.17141 17.3322 7.01067C17.1715 6.84992 17.0812 6.6319 17.0812 6.40458V1.02858C17.0812 0.801247 17.1715 0.583229 17.3322 0.422483C17.493 0.261738 17.711 0.171433 17.9383 0.171433C18.1656 0.171433 18.3837 0.261738 18.5444 0.422483C18.7052 0.583229 18.7955 0.801247 18.7955 1.02858Z" fill="black"/>
<path d="M23.616 11.9998C23.616 12.2271 23.5257 12.4451 23.365 12.6059C23.2042 12.7666 22.9862 12.8569 22.7589 12.8569L1.24118 12.8569C1.01385 12.8569 0.79583 12.7666 0.635085 12.6059C0.474339 12.4451 0.384033 12.2271 0.384033 11.9998C0.384033 11.7725 0.474339 11.5544 0.635085 11.3937C0.79583 11.233 1.01385 11.1426 1.24118 11.1426L22.7589 11.1426C22.9862 11.1426 23.2042 11.233 23.365 11.3937C23.5257 11.5544 23.616 11.7725 23.616 11.9998Z" fill="black"/>
<path d="M6.91888 9.31178L6.91888 14.6878C6.91888 14.9151 6.82857 15.1331 6.66782 15.2939C6.50708 15.4546 6.28906 15.5449 6.06173 15.5449C5.8344 15.5449 5.61639 15.4546 5.45564 15.2939C5.2949 15.1331 5.20459 14.9151 5.20459 14.6878L5.20459 9.31178C5.20459 9.08445 5.2949 8.86644 5.45564 8.70569C5.61639 8.54494 5.8344 8.45464 6.06173 8.45464C6.28906 8.45464 6.50708 8.54494 6.66782 8.70569C6.82857 8.86644 6.91888 9.08445 6.91888 9.31178Z" fill="black"/>
</svg>
