<svg width="32" height="32" viewBox="0 0 32 32" fill="none" xmlns="http://www.w3.org/2000/svg">
<path d="M13.5999 3.20001H18.3999C18.8964 3.19975 19.3808 3.3535 19.7863 3.64006C20.1918 3.92662 20.4984 4.33189 20.6639 4.80001H23.1999C23.8364 4.80001 24.4469 5.05287 24.897 5.50296C25.347 5.95304 25.5999 6.56349 25.5999 7.20001V26.4C25.5999 27.0365 25.347 27.647 24.897 28.0971C24.4469 28.5472 23.8364 28.8 23.1999 28.8H8.7999C8.16338 28.8 7.55293 28.5472 7.10285 28.0971C6.65276 27.647 6.3999 27.0365 6.3999 26.4V7.20001C6.3999 6.56349 6.65276 5.95304 7.10285 5.50296C7.55293 5.05287 8.16338 4.80001 8.7999 4.80001H11.3359C11.5014 4.33189 11.808 3.92662 12.2135 3.64006C12.619 3.3535 13.1034 3.19975 13.5999 3.20001ZM12.7999 5.60001C12.7999 5.81219 12.8842 6.01567 13.0342 6.1657C13.1842 6.31573 13.3877 6.40001 13.5999 6.40001H18.3999C18.6121 6.40001 18.8156 6.31573 18.9656 6.1657C19.1156 6.01567 19.1999 5.81219 19.1999 5.60001C19.1999 5.38784 19.1156 5.18436 18.9656 5.03433C18.8156 4.8843 18.6121 4.80001 18.3999 4.80001H13.5999C13.3877 4.80001 13.1842 4.8843 13.0342 5.03433C12.8842 5.18436 12.7999 5.38784 12.7999 5.60001ZM20.3999 14.8C20.7182 14.8 21.0234 14.6736 21.2484 14.4485C21.4735 14.2235 21.5999 13.9183 21.5999 13.6C21.5999 13.2818 21.4735 12.9765 21.2484 12.7515C21.0234 12.5264 20.7182 12.4 20.3999 12.4C20.0816 12.4 19.7764 12.5264 19.5514 12.7515C19.3263 12.9765 19.1999 13.2818 19.1999 13.6C19.1999 13.9183 19.3263 14.2235 19.5514 14.4485C19.7764 14.6736 20.0816 14.8 20.3999 14.8ZM20.3999 19.6C20.7182 19.6 21.0234 19.4736 21.2484 19.2485C21.4735 19.0235 21.5999 18.7183 21.5999 18.4C21.5999 18.0818 21.4735 17.7765 21.2484 17.5515C21.0234 17.3264 20.7182 17.2 20.3999 17.2C20.0816 17.2 19.7764 17.3264 19.5514 17.5515C19.3263 17.7765 19.1999 18.0818 19.1999 18.4C19.1999 18.7183 19.3263 19.0235 19.5514 19.2485C19.7764 19.4736 20.0816 19.6 20.3999 19.6ZM19.1999 23.2C19.1999 23.5183 19.3263 23.8235 19.5514 24.0485C19.7764 24.2736 20.0816 24.4 20.3999 24.4C20.7182 24.4 21.0234 24.2736 21.2484 24.0485C21.4735 23.8235 21.5999 23.5183 21.5999 23.2C21.5999 22.8818 21.4735 22.5765 21.2484 22.3515C21.0234 22.1264 20.7182 22 20.3999 22C20.0816 22 19.7764 22.1264 19.5514 22.3515C19.3263 22.5765 19.1999 22.8818 19.1999 23.2ZM17.5999 13.6C17.5999 13.3878 17.5156 13.1844 17.3656 13.0343C17.2156 12.8843 17.0121 12.8 16.7999 12.8H11.1999C10.9877 12.8 10.7842 12.8843 10.6342 13.0343C10.4842 13.1844 10.3999 13.3878 10.3999 13.6C10.3999 13.8122 10.4842 14.0157 10.6342 14.1657C10.7842 14.3157 10.9877 14.4 11.1999 14.4H16.7999C17.0121 14.4 17.2156 14.3157 17.3656 14.1657C17.5156 14.0157 17.5999 13.8122 17.5999 13.6ZM17.5999 18.4C17.5999 18.1878 17.5156 17.9844 17.3656 17.8343C17.2156 17.6843 17.0121 17.6 16.7999 17.6H11.1999C10.9877 17.6 10.7842 17.6843 10.6342 17.8343C10.4842 17.9844 10.3999 18.1878 10.3999 18.4C10.3999 18.6122 10.4842 18.8157 10.6342 18.9657C10.7842 19.1157 10.9877 19.2 11.1999 19.2H16.7999C17.0121 19.2 17.2156 19.1157 17.3656 18.9657C17.5156 18.8157 17.5999 18.6122 17.5999 18.4ZM17.5999 23.2C17.5999 22.9878 17.5156 22.7844 17.3656 22.6343C17.2156 22.4843 17.0121 22.4 16.7999 22.4H11.1999C10.9877 22.4 10.7842 22.4843 10.6342 22.6343C10.4842 22.7844 10.3999 22.9878 10.3999 23.2C10.3999 23.4122 10.4842 23.6157 10.6342 23.7657C10.7842 23.9157 10.9877 24 11.1999 24H16.7999C17.0121 24 17.2156 23.9157 17.3656 23.7657C17.5156 23.6157 17.5999 23.4122 17.5999 23.2Z" fill="#58B4D1"/>
</svg>
