<svg width="27" height="27" viewBox="0 0 27 27" fill="none" xmlns="http://www.w3.org/2000/svg">
<path d="M10.0001 19.3334C12.3507 19.3334 14.4934 18.4534 16.1374 17.0147L17.9201 20.748C17.9201 20.748 18.2867 21.0467 18.7907 21.5427C19.3067 22.0267 19.9854 22.6814 20.6361 23.3654L22.4467 25.2214L23.2521 26.0827L26.0801 23.2547L25.2187 22.4494L23.3627 20.6387C22.7383 20.0405 22.1305 19.4252 21.5401 18.7934C21.0441 18.2894 20.7454 17.9227 20.7454 17.9227L17.0121 16.14C18.5073 14.4441 19.3326 12.261 19.3334 10C19.3334 4.85469 15.1454 0.666687 10.0001 0.666687C4.85475 0.666687 0.666748 4.85469 0.666748 10C0.666748 15.1454 4.85475 19.3334 10.0001 19.3334Z" fill="#58B4D1"/>
</svg>
