<svg width="32" height="32" viewBox="0 0 32 32" fill="none" xmlns="http://www.w3.org/2000/svg">
<path d="M25.8346 12.3521L21.1412 15.8507V23.488H24.4266C25.1946 23.488 25.8346 22.8694 25.8346 22.0801V12.3521Z" fill="#4CAF50"/>
<path d="M6.16528 12.3521L10.8373 15.8721V23.5094H7.57328C6.80528 23.5094 6.16528 22.8907 6.16528 22.1014V12.3521Z" fill="#1E88E5"/>
<path d="M21.1413 10.0054L16 13.8667L10.8586 10.0054V15.8507L16 19.712L21.1413 15.8507V10.0054Z" fill="#E53935"/>
<path d="M6.16528 10.5175V12.3522L10.8373 15.8722V10.0055L9.38662 8.91754C9.04528 8.66154 8.61862 8.51221 8.17062 8.51221C7.06128 8.51221 6.16528 9.40821 6.16528 10.5175Z" fill="#C62828"/>
<path d="M25.8346 10.5175V12.3522L21.1412 15.8509V10.0055L22.6132 8.91754C22.9546 8.66154 23.3812 8.51221 23.8292 8.51221C24.9386 8.51221 25.8346 9.40821 25.8346 10.5175Z" fill="#FBC02D"/>
</svg>
