<svg width="13" height="24" viewBox="0 0 13 24" fill="none" xmlns="http://www.w3.org/2000/svg">
<g clip-path="url(#clip0_146_504)">
<path d="M12.9894 22.2967H12.9906C12.9894 22.2946 12.9883 22.2922 12.9883 22.2901C12.9665 22.2077 12.9344 22.1271 12.8901 22.0484C12.1821 20.2675 11.6106 17.7324 11.2613 14.7584C11.0365 12.6955 10.9983 10.3273 10.9646 7.80871C10.9264 5.03291 11.0246 2.44115 11.2291 0.233427C11.0674 0.147458 10.9048 0.104614 10.7375 0.104614C9.02953 0.114599 7.71188 4.80219 7.79072 10.5771C7.80014 11.3008 7.83279 12.0083 7.88281 12.6911C8.73174 12.9194 9.3117 13.3775 9.32029 13.9088L9.32609 14.4625C9.32976 14.4649 9.33333 14.4649 9.33453 14.4649C9.07617 17.5738 8.56334 20.2292 7.88161 22.0798C7.8385 22.1567 7.80868 22.2391 7.78948 22.3218C7.78948 22.3236 7.78843 22.3264 7.78843 22.3264H7.78948C7.77618 22.3896 7.76571 22.4526 7.7668 22.5163C7.77618 23.3181 8.9628 23.9624 10.412 23.9531C11.8615 23.9442 13.0275 23.2875 13.0169 22.4869C13.017 22.4214 13.0048 22.3574 12.9894 22.2967Z" fill="#58B4D1"/>
<path d="M5.75542 5.56389L5.43962 1.53485V0.355237C5.43962 0.1338 5.24363 -0.0469502 4.99962 -0.0469502C4.75789 -0.0469502 4.56066 0.1338 4.56066 0.355237V5.46105C4.48768 5.57318 4.36577 5.65202 4.21628 5.65422C3.9805 5.66107 3.787 5.48491 3.78224 5.26235L3.71411 2.5405V0.355284C3.71411 0.133894 3.51669 -0.0469033 3.27501 -0.0469033C3.03363 -0.0469033 2.83729 0.133894 2.83729 0.355284V5.50502C2.76208 5.61232 2.64116 5.6906 2.49529 5.69261C2.26095 5.69711 2.06472 5.52325 2.06001 5.29933L1.92733 2.35722V0.355191C1.92733 0.1338 1.72991 -0.0469971 1.48843 -0.0469971C1.24575 -0.0469971 1.04833 0.1338 1.04833 0.355191V0.980831L0.455169 5.56488C0.433437 6.42288 1.1692 7.14569 2.31583 7.35574C2.07454 13.265 1.25047 18.4247 0.151369 21.5916C0.104729 21.6864 0.0723797 21.7816 0.0485639 21.8807C0.0485639 21.8822 0.0461327 21.8846 0.0461327 21.8876C0.0292632 21.9601 0.0186949 22.0369 0.0174545 22.1135C-0.0064605 23.0647 1.14885 23.8374 2.59809 23.8365C4.04753 23.8365 5.24358 23.0628 5.26745 22.109C5.26745 22.0335 5.2602 21.9576 5.24711 21.8845C5.24711 21.8821 5.24601 21.8806 5.24601 21.8762C5.2281 21.779 5.19823 21.6818 5.15735 21.5891C4.21861 18.4233 3.65522 13.2649 3.71044 7.35358C4.86814 7.14354 5.73498 6.42283 5.75542 5.56389Z" fill="#58B4D1"/>
</g>
<defs>
<clipPath id="clip0_146_504">
<rect width="13" height="24" fill="white"/>
</clipPath>
</defs>
</svg>
