<svg width="12" height="12" viewBox="0 0 12 12" fill="none" xmlns="http://www.w3.org/2000/svg">
<path d="M10.7766 1.99997C10.7311 1.99529 10.6853 1.99529 10.6399 1.99997H1.30655C1.24673 2.00089 1.18731 2.00986 1.12988 2.02664L5.94655 6.8233L10.7766 1.99997Z" fill="white"/>
<path d="M11.27 2.46338L6.41664 7.29671C6.29174 7.42088 6.12277 7.49057 5.94664 7.49057C5.77052 7.49057 5.60155 7.42088 5.47664 7.29671L0.666644 2.50005C0.651857 2.55439 0.644017 2.61039 0.643311 2.66671V9.33338C0.643311 9.51019 0.713548 9.67976 0.838573 9.80478C0.963597 9.92981 1.13317 10 1.30998 10H10.6433C10.8201 10 10.9897 9.92981 11.1147 9.80478C11.2397 9.67976 11.31 9.51019 11.31 9.33338V2.66671C11.3073 2.59726 11.2938 2.52866 11.27 2.46338ZM1.76664 9.33338H1.30331V8.85671L3.72664 6.45338L4.19664 6.92338L1.76664 9.33338ZM10.6366 9.33338H10.17L7.73998 6.92338L8.20998 6.45338L10.6333 8.85671L10.6366 9.33338Z" fill="white"/>
</svg>
