<svg width="24" height="24" viewBox="0 0 24 24" fill="none" xmlns="http://www.w3.org/2000/svg">
<path d="M12 16.9875C13.7709 16.9875 15.2064 15.552 15.2064 13.7812C15.2064 12.0104 13.7709 10.5748 12 10.5748C10.2292 10.5748 8.7937 12.0104 8.7937 13.7812C8.7937 15.552 10.2292 16.9875 12 16.9875Z" fill="#58B4D1"/>
<path d="M19.4925 5.85474H16.9485L15.389 2.73537C15.3224 2.60222 15.22 2.49024 15.0934 2.41197C14.9667 2.3337 14.8208 2.29224 14.6719 2.29224H9.32814C9.17926 2.29224 9.03331 2.3337 8.90666 2.41197C8.78 2.49024 8.67764 2.60222 8.61103 2.73537L7.05157 5.85474H4.50798C3.68441 5.85562 2.89482 6.18317 2.31246 6.76553C1.73011 7.34788 1.40255 8.13747 1.40167 8.96105V18.6018C1.40265 19.4253 1.73025 20.2148 2.3126 20.7971C2.89495 21.3793 3.68448 21.7068 4.50798 21.7077H19.4925C20.316 21.7067 21.1054 21.3792 21.6877 20.7969C22.2699 20.2147 22.5974 19.4252 22.5984 18.6018V8.96105C22.5975 8.13754 22.27 7.348 21.6878 6.76565C21.1055 6.1833 20.316 5.8557 19.4925 5.85474ZM12 18.5905C11.0488 18.5905 10.119 18.3084 9.32812 17.78C8.53724 17.2515 7.92082 16.5004 7.55682 15.6216C7.19281 14.7429 7.09757 13.7759 7.28314 12.843C7.46871 11.9101 7.92675 11.0531 8.59934 10.3805C9.27193 9.70794 10.1289 9.2499 11.0618 9.06433C11.9947 8.87876 12.9617 8.974 13.8405 9.33801C14.7192 9.70201 15.4703 10.3184 15.9988 11.1093C16.5272 11.9002 16.8093 12.83 16.8093 13.7812C16.8079 15.0563 16.3007 16.2787 15.3991 17.1803C14.4975 18.0819 13.2751 18.5891 12 18.5905ZM19.125 10.1296H17.3438C17.1312 10.1296 16.9273 10.0451 16.777 9.89481C16.6267 9.74451 16.5423 9.54065 16.5423 9.32808C16.5423 9.11552 16.6267 8.91166 16.777 8.76136C16.9273 8.61105 17.1312 8.52661 17.3438 8.52661H19.125C19.3376 8.52661 19.5414 8.61105 19.6917 8.76136C19.842 8.91166 19.9265 9.11552 19.9265 9.32808C19.9265 9.54065 19.842 9.74451 19.6917 9.89481C19.5414 10.0451 19.3376 10.1296 19.125 10.1296Z" fill="#58B4D1"/>
</svg>
