<svg width="53" height="38" viewBox="0 0 53 38" fill="none" xmlns="http://www.w3.org/2000/svg">
<path d="M12.15 13.864C12.102 13.912 11.988 13.924 11.808 13.9C11.628 13.888 11.484 13.804 11.376 13.648C11.292 13.48 11.244 13.288 11.232 13.072C11.22 12.856 11.22 12.556 11.232 12.172C11.304 11.752 11.424 11.2 11.592 10.516C11.76 9.832 11.946 9.07 12.15 8.23C12.366 7.378 12.582 6.508 12.798 5.62C12.906 5.2 12.99 4.846 13.05 4.558C13.122 4.27 13.17 4.054 13.194 3.91C13.23 3.754 13.248 3.676 13.248 3.676C13.236 3.7 13.218 3.724 13.194 3.748C13.182 3.772 13.17 3.796 13.158 3.82C13.146 3.844 13.134 3.868 13.122 3.892C13.122 3.892 13.098 3.934 13.05 4.018C13.014 4.102 12.93 4.246 12.798 4.45C12.702 4.594 12.612 4.762 12.528 4.954C12.444 5.146 12.3 5.398 12.096 5.71C11.904 6.07 11.688 6.484 11.448 6.952C11.208 7.42 11.004 7.792 10.836 8.068C10.752 8.2 10.674 8.314 10.602 8.41C10.542 8.506 10.5 8.584 10.476 8.644C10.428 8.776 10.35 8.938 10.242 9.13C10.134 9.322 10.008 9.508 9.864 9.688C9.792 9.796 9.696 9.922 9.576 10.066C9.468 10.21 9.372 10.342 9.288 10.462C9.204 10.57 9.162 10.624 9.162 10.624C9.138 10.696 9.06 10.81 8.928 10.966C8.796 11.122 8.634 11.296 8.442 11.488C8.262 11.668 8.076 11.836 7.884 11.992C7.464 12.328 7.116 12.538 6.84 12.622C6.576 12.706 6.27 12.604 5.922 12.316C5.766 12.124 5.64 11.932 5.544 11.74C5.448 11.536 5.4 11.26 5.4 10.912C5.4 10.564 5.46 10.078 5.58 9.454C5.664 9.058 5.754 8.638 5.85 8.194C5.958 7.75 6.066 7.324 6.174 6.916C6.282 6.496 6.378 6.136 6.462 5.836C6.558 5.524 6.624 5.308 6.66 5.188C6.696 4.888 6.702 4.732 6.678 4.72C6.654 4.696 6.594 4.762 6.498 4.918C6.414 5.05 6.258 5.326 6.03 5.746C5.802 6.166 5.544 6.658 5.256 7.222C4.98 7.786 4.71 8.35 4.446 8.914C3.954 9.826 3.54 10.588 3.204 11.2C2.868 11.812 2.592 12.304 2.376 12.676C2.16 13.036 1.992 13.306 1.872 13.486C1.764 13.678 1.68 13.81 1.62 13.882C1.572 13.966 1.536 14.02 1.512 14.044C1.332 14.032 1.176 13.948 1.044 13.792C0.912 13.636 0.804 13.45 0.72 13.234C0.696 13.114 0.678 12.988 0.666 12.856C0.654 12.724 0.666 12.58 0.702 12.424C0.75 12.256 0.822 12.076 0.918 11.884C1.074 11.572 1.224 11.308 1.368 11.092C1.512 10.876 1.602 10.744 1.638 10.696C1.698 10.612 1.746 10.522 1.782 10.426C1.818 10.33 1.842 10.24 1.854 10.156C1.914 10.084 2.004 9.934 2.124 9.706C2.256 9.478 2.388 9.232 2.52 8.968C2.616 8.812 2.748 8.596 2.916 8.32C3.084 8.032 3.264 7.726 3.456 7.402C3.648 7.066 3.816 6.76 3.96 6.484C4.488 5.536 4.908 4.78 5.22 4.216C5.532 3.64 5.754 3.274 5.886 3.118C5.97 3.058 6.042 2.944 6.102 2.776C6.174 2.596 6.234 2.464 6.282 2.38C6.45 2.044 6.618 1.768 6.786 1.552C6.966 1.324 7.122 1.21 7.254 1.21C7.35 1.21 7.47 1.246 7.614 1.318C7.77 1.39 7.92 1.492 8.064 1.624C8.196 1.78 8.316 1.99 8.424 2.254C8.544 2.506 8.568 2.842 8.496 3.262C8.484 3.454 8.454 3.688 8.406 3.964C8.358 4.228 8.31 4.492 8.262 4.756C8.214 5.02 8.166 5.242 8.118 5.422C8.022 5.962 7.914 6.478 7.794 6.97C7.686 7.45 7.584 7.894 7.488 8.302C7.392 8.71 7.314 9.07 7.254 9.382C7.194 9.682 7.152 9.928 7.128 10.12C7.116 10.312 7.14 10.438 7.2 10.498C7.236 10.51 7.284 10.498 7.344 10.462C7.416 10.414 7.47 10.366 7.506 10.318C7.578 10.222 7.644 10.126 7.704 10.03C7.764 9.934 7.842 9.814 7.938 9.67C8.13 9.406 8.328 9.118 8.532 8.806C8.748 8.482 9 8.086 9.288 7.618C9.588 7.138 9.942 6.55 10.35 5.854C10.758 5.146 11.256 4.27 11.844 3.226C12.12 2.806 12.384 2.386 12.636 1.966C12.888 1.546 13.116 1.222 13.32 0.993999C13.5 0.801999 13.722 0.735999 13.986 0.795999C14.262 0.855999 14.514 1.006 14.742 1.246C14.97 1.486 15.096 1.78 15.12 2.128C15.132 2.296 15.096 2.596 15.012 3.028C14.94 3.448 14.838 3.922 14.706 4.45C14.574 4.978 14.424 5.494 14.256 5.998C14.22 6.202 14.16 6.472 14.076 6.808C13.992 7.144 13.902 7.486 13.806 7.834C13.71 8.182 13.62 8.494 13.536 8.77C13.452 9.178 13.38 9.502 13.32 9.742C13.272 9.982 13.248 10.258 13.248 10.57C13.14 10.762 13.068 11.038 13.032 11.398C12.996 11.758 12.978 12.13 12.978 12.514C12.93 12.982 12.828 13.312 12.672 13.504C12.528 13.696 12.432 13.786 12.384 13.774C12.288 13.738 12.21 13.768 12.15 13.864ZM16.1373 12.874C15.9813 12.874 15.8553 12.844 15.7593 12.784C15.6753 12.724 15.5673 12.64 15.4353 12.532C15.2073 12.292 15.0213 12.034 14.8773 11.758C14.7453 11.482 14.6973 11.242 14.7333 11.038C14.7693 10.942 14.7813 10.852 14.7693 10.768C14.7693 10.672 14.7693 10.624 14.7693 10.624C14.7093 10.564 14.6913 10.528 14.7153 10.516C14.7393 10.492 14.7633 10.456 14.7873 10.408C14.8593 10.408 14.8833 10.342 14.8593 10.21C14.8353 10.114 14.8713 9.91 14.9673 9.598C15.0753 9.274 15.2193 8.968 15.3993 8.68C15.4713 8.56 15.5793 8.404 15.7233 8.212C15.8673 8.008 16.0233 7.81 16.1913 7.618C16.3713 7.414 16.5333 7.252 16.6773 7.132C16.9773 6.88 17.2533 6.676 17.5053 6.52C17.7693 6.364 18.0333 6.256 18.2973 6.196C18.5613 6.136 18.8313 6.106 19.1073 6.106C19.3953 6.106 19.6293 6.202 19.8093 6.394C20.0853 6.514 20.2773 6.676 20.3853 6.88C20.5053 7.084 20.5833 7.348 20.6193 7.672C20.6553 8.032 20.6193 8.476 20.5113 9.004C20.4033 9.52 20.1093 10.12 19.6293 10.804C19.3293 11.236 19.0353 11.572 18.7473 11.812C18.4593 12.052 18.1413 12.274 17.7933 12.478C17.5413 12.646 17.2713 12.748 16.9833 12.784C16.6953 12.82 16.4133 12.85 16.1373 12.874ZM17.9733 10.678C18.2373 10.45 18.4233 10.198 18.5313 9.922C18.6513 9.646 18.7773 9.322 18.9093 8.95C18.9573 8.878 18.9873 8.758 18.9993 8.59C19.0233 8.422 19.0293 8.26 19.0173 8.104C19.0053 7.936 18.9633 7.84 18.8913 7.816C18.7833 7.732 18.6753 7.714 18.5673 7.762C18.4593 7.798 18.3213 7.876 18.1533 7.996C17.7933 8.296 17.4573 8.644 17.1453 9.04C16.8453 9.424 16.6353 9.898 16.5153 10.462C16.4793 10.762 16.5093 10.99 16.6053 11.146C16.7133 11.29 16.8813 11.332 17.1093 11.272C17.3493 11.2 17.6373 11.002 17.9733 10.678ZM25.4308 7.06C25.4308 7.168 25.4188 7.282 25.3948 7.402C25.3828 7.522 25.3648 7.642 25.3408 7.762C25.3168 7.87 25.2868 7.984 25.2508 8.104C25.2028 8.26 25.1548 8.422 25.1068 8.59C25.0708 8.746 25.0288 8.902 24.9808 9.058C24.9088 8.998 24.8308 8.95 24.7468 8.914C24.6748 8.878 24.5968 8.842 24.5128 8.806C24.4288 8.746 24.3448 8.692 24.2608 8.644C24.1768 8.596 24.0928 8.548 24.0088 8.5C23.8048 8.368 23.7328 8.206 23.7928 8.014C23.8528 7.81 23.9668 7.618 24.1348 7.438C24.3148 7.258 24.4708 7.138 24.6028 7.078C24.7108 7.03 24.8428 7.018 24.9988 7.042C25.1668 7.066 25.3108 7.072 25.4308 7.06ZM25.0168 13.288C25.2568 13.3 25.4308 13.222 25.5388 13.054C25.6468 12.898 25.7188 12.718 25.7548 12.514C25.7788 12.394 25.8028 12.274 25.8268 12.154C25.8508 12.022 25.8748 11.896 25.8988 11.776C25.9948 11.38 26.1028 10.972 26.2228 10.552C26.3548 10.12 26.4808 9.694 26.6008 9.274C26.7208 8.842 26.8168 8.422 26.8888 8.014C26.9728 7.606 27.0148 7.216 27.0148 6.844C27.0148 6.532 26.9368 6.292 26.7808 6.124C26.6248 5.944 26.4148 5.788 26.1508 5.656C26.0308 5.656 25.8988 5.656 25.7548 5.656C25.6228 5.656 25.4908 5.65 25.3588 5.638C25.1908 5.638 25.0168 5.644 24.8368 5.656C24.6688 5.656 24.5008 5.668 24.3328 5.692C24.2968 5.704 24.2608 5.71 24.2248 5.71C24.1888 5.71 24.1528 5.716 24.1168 5.728C23.8888 5.764 23.6668 5.83 23.4508 5.926C23.2468 6.022 23.0608 6.16 22.8928 6.34C22.8088 6.436 22.7308 6.55 22.6588 6.682C22.5868 6.814 22.5208 6.964 22.4608 7.132C22.4368 7.204 22.4068 7.282 22.3708 7.366C22.3468 7.438 22.3228 7.51 22.2988 7.582C22.2148 7.846 22.2148 8.158 22.2988 8.518C22.3828 8.866 22.5388 9.16 22.7668 9.4C22.8388 9.484 22.9168 9.556 23.0008 9.616C23.0848 9.664 23.1748 9.7 23.2708 9.724C23.1268 9.82 22.9468 9.94 22.7308 10.084C22.5148 10.216 22.2928 10.342 22.0648 10.462C21.8488 10.57 21.6568 10.654 21.4888 10.714C21.2968 10.762 21.1348 10.84 21.0028 10.948C20.8708 11.056 20.7508 11.194 20.6428 11.362C20.7028 11.614 20.7928 11.866 20.9128 12.118C21.0448 12.358 21.2608 12.49 21.5608 12.514C21.5848 12.514 21.7048 12.454 21.9208 12.334C22.1368 12.202 22.3828 12.052 22.6588 11.884C22.9348 11.716 23.1868 11.56 23.4148 11.416C23.6428 11.272 23.7868 11.182 23.8468 11.146C23.9068 11.098 23.9668 11.05 24.0268 11.002C24.0988 10.954 24.1648 10.906 24.2248 10.858C24.2848 10.81 24.3388 10.762 24.3868 10.714C24.4348 10.666 24.4828 10.618 24.5308 10.57C24.4228 10.93 24.3388 11.296 24.2788 11.668C24.2188 12.04 24.2008 12.412 24.2248 12.784C24.3568 12.868 24.4888 12.952 24.6208 13.036C24.7528 13.12 24.8848 13.204 25.0168 13.288ZM1.098 36.594C0.882 36.474 0.762 36.342 0.738 36.198C0.726 36.054 0.81 35.802 0.99 35.442C1.17 35.082 1.452 34.524 1.836 33.768C2.124 33.228 2.316 32.808 2.412 32.508C2.52 32.196 2.58 31.974 2.592 31.842C2.604 31.71 2.61 31.626 2.61 31.59C2.586 31.482 2.598 31.398 2.646 31.338C2.694 31.266 2.772 31.206 2.88 31.158C2.94 31.098 3.078 30.99 3.294 30.834C3.51 30.678 3.678 30.492 3.798 30.276C3.906 30.024 4.026 29.766 4.158 29.502C4.302 29.238 4.488 28.908 4.716 28.512C4.944 28.104 5.25 27.576 5.634 26.928C5.874 26.508 6.156 26.034 6.48 25.506C6.816 24.978 7.146 24.498 7.47 24.066C7.602 23.898 7.74 23.766 7.884 23.67C8.028 23.574 8.154 23.526 8.262 23.526C8.526 23.526 8.79 23.598 9.054 23.742C9.318 23.874 9.552 24.042 9.756 24.246C9.96 24.45 10.098 24.642 10.17 24.822C10.23 24.918 10.254 25.122 10.242 25.434C10.23 25.746 10.206 26.124 10.17 26.568C10.134 27.012 10.092 27.486 10.044 27.99C10.008 28.482 9.954 29.064 9.882 29.736C9.81 30.408 9.738 31.11 9.666 31.842C9.606 32.574 9.558 33.282 9.522 33.966C9.486 34.638 9.486 35.226 9.522 35.73C9.534 35.838 9.534 35.94 9.522 36.036C9.51 36.132 9.504 36.21 9.504 36.27C9.432 36.342 9.276 36.372 9.036 36.36C8.796 36.36 8.562 36.324 8.334 36.252C8.106 36.18 7.98 36.09 7.956 35.982C7.92 35.946 7.896 35.916 7.884 35.892C7.872 35.868 7.872 35.754 7.884 35.55C7.896 35.334 7.914 34.944 7.938 34.38L8.028 31.626L7.794 31.644C7.686 31.644 7.488 31.656 7.2 31.68C6.924 31.704 6.618 31.74 6.282 31.788C5.958 31.824 5.658 31.866 5.382 31.914C5.106 31.95 4.914 31.986 4.806 32.022C4.698 32.022 4.566 32.094 4.41 32.238C4.266 32.382 4.128 32.568 3.996 32.796C3.948 32.964 3.858 33.144 3.726 33.336C3.606 33.516 3.546 33.636 3.546 33.696C3.462 33.756 3.39 33.828 3.33 33.912C3.282 33.996 3.258 34.038 3.258 34.038C3.258 34.11 3.204 34.29 3.096 34.578C2.988 34.854 2.856 35.166 2.7 35.514C2.544 35.85 2.382 36.144 2.214 36.396L1.728 37.08L1.098 36.594ZM5.4 30.402C5.4 30.402 5.466 30.39 5.598 30.366C5.73 30.342 5.886 30.318 6.066 30.294C6.258 30.258 6.426 30.24 6.57 30.24C6.846 30.168 7.074 30.114 7.254 30.078C7.446 30.042 7.602 30.024 7.722 30.024C7.842 30.012 7.938 30.024 8.01 30.06C8.058 30.12 8.1 30.156 8.136 30.168C8.184 30.18 8.208 30.186 8.208 30.186C8.22 30.162 8.244 30.036 8.28 29.808C8.316 29.58 8.358 29.298 8.406 28.962C8.454 28.626 8.502 28.278 8.55 27.918C8.598 27.546 8.64 27.204 8.676 26.892C8.712 26.568 8.736 26.316 8.748 26.136C8.76 25.908 8.754 25.704 8.73 25.524C8.706 25.332 8.694 25.236 8.694 25.236C8.622 25.236 8.484 25.368 8.28 25.632C8.088 25.884 7.86 26.226 7.596 26.658C7.344 27.078 7.092 27.534 6.84 28.026C6.72 28.254 6.606 28.434 6.498 28.566C6.402 28.698 6.324 28.764 6.264 28.764C6.24 28.788 6.174 28.884 6.066 29.052C5.97 29.208 5.862 29.388 5.742 29.592C5.634 29.784 5.538 29.964 5.454 30.132C5.382 30.288 5.364 30.378 5.4 30.402ZM12.6674 36.162C12.5954 36.114 12.4754 36.06 12.3074 36C12.1514 35.94 11.9954 35.88 11.8394 35.82C11.6834 35.748 11.5634 35.676 11.4794 35.604C11.2034 35.34 11.0114 35.064 10.9034 34.776C10.8074 34.476 10.7594 34.194 10.7594 33.93C10.7714 33.666 10.7954 33.444 10.8314 33.264C10.8674 33.072 10.8854 32.958 10.8854 32.922C10.8734 32.778 10.8974 32.646 10.9574 32.526C11.0174 32.406 11.0654 32.304 11.1014 32.22C11.3294 31.788 11.5394 31.41 11.7314 31.086C11.9234 30.762 12.2054 30.396 12.5774 29.988C12.6854 29.892 12.7994 29.808 12.9194 29.736C13.0394 29.664 13.1714 29.64 13.3154 29.664L13.7294 29.97C13.8374 30.09 13.8974 30.21 13.9094 30.33C13.9334 30.45 13.9214 30.582 13.8734 30.726C13.8494 30.81 13.8194 30.9 13.7834 30.996C13.7474 31.092 13.6994 31.176 13.6394 31.248C13.4354 31.44 13.2674 31.662 13.1354 31.914C13.0154 32.154 12.9014 32.376 12.7934 32.58C12.7454 32.7 12.6914 32.802 12.6314 32.886C12.5714 32.958 12.5114 33.042 12.4514 33.138C12.4154 33.198 12.3734 33.264 12.3254 33.336C12.2894 33.408 12.2594 33.492 12.2354 33.588C12.1994 33.816 12.1814 33.966 12.1814 34.038C12.1814 34.11 12.1934 34.212 12.2174 34.344C12.3134 34.392 12.4574 34.41 12.6494 34.398C12.8414 34.386 12.9614 34.356 13.0094 34.308C13.2374 34.116 13.3934 33.96 13.4774 33.84C13.5734 33.708 13.6514 33.57 13.7114 33.426C13.7714 33.27 13.8614 33.072 13.9814 32.832C14.0774 32.664 14.1614 32.442 14.2334 32.166C14.3174 31.89 14.3834 31.62 14.4314 31.356C14.4794 31.092 14.4854 30.918 14.4494 30.834C14.4374 30.738 14.4314 30.618 14.4314 30.474C14.4314 30.33 14.4314 30.192 14.4314 30.06C14.4314 30 14.4254 29.94 14.4134 29.88C14.4014 29.82 14.3894 29.754 14.3774 29.682C14.3654 29.598 14.3474 29.52 14.3234 29.448C14.2754 28.944 14.2394 28.524 14.2154 28.188C14.2034 27.852 14.2034 27.552 14.2154 27.288C14.2394 27.024 14.2754 26.742 14.3234 26.442C14.3714 26.262 14.4674 26.076 14.6114 25.884C14.7674 25.68 14.9054 25.53 15.0254 25.434C15.2414 25.242 15.5414 25.086 15.9254 24.966C16.3094 24.846 16.6514 24.798 16.9514 24.822C17.0354 24.81 17.1434 24.804 17.2754 24.804C17.4074 24.804 17.5454 24.804 17.6894 24.804C17.8454 24.792 17.9894 24.786 18.1214 24.786C18.2294 24.762 18.3194 24.744 18.3914 24.732C18.4754 24.708 18.6134 24.636 18.8054 24.516C19.0454 24.384 19.2554 24.366 19.4354 24.462L19.9034 25.128C19.8914 25.416 19.7774 25.65 19.5614 25.83C19.3574 25.998 19.0094 26.112 18.5174 26.172C18.4334 26.172 18.3554 26.166 18.2834 26.154C18.2114 26.142 18.1454 26.148 18.0854 26.172C18.0014 26.208 17.9054 26.214 17.7974 26.19C17.6894 26.166 17.6234 26.154 17.5994 26.154C17.4794 26.154 17.3414 26.172 17.1854 26.208C17.0294 26.232 16.8614 26.226 16.6814 26.19C16.2494 26.322 15.9614 26.538 15.8174 26.838C15.6854 27.138 15.6194 27.426 15.6194 27.702C15.6434 28.002 15.6914 28.332 15.7634 28.692C15.8474 29.052 15.9074 29.484 15.9434 29.988C15.9434 30.072 15.9434 30.156 15.9434 30.24C15.9554 30.312 15.9614 30.39 15.9614 30.474C16.0454 30.834 16.0754 31.158 16.0514 31.446C16.0274 31.722 15.9854 31.914 15.9254 32.022C15.9134 32.082 15.9014 32.232 15.8894 32.472C15.8894 32.7 15.8234 32.946 15.6914 33.21C15.4034 33.786 15.1034 34.308 14.7914 34.776C14.4914 35.232 14.1134 35.616 13.6574 35.928C13.5134 36.024 13.3694 36.09 13.2254 36.126C13.0814 36.162 12.8954 36.174 12.6674 36.162ZM17.2817 36.054C17.0897 36.03 16.9517 35.904 16.8677 35.676C16.7957 35.436 16.8857 35.172 17.1377 34.884C17.1977 34.824 17.3117 34.698 17.4797 34.506C17.6477 34.314 17.8337 34.098 18.0377 33.858C18.2537 33.606 18.4517 33.372 18.6317 33.156L19.5317 32.094L20.3417 31.302L21.3857 30.15C21.7457 29.766 22.0397 29.502 22.2677 29.358C22.4957 29.202 22.6877 29.13 22.8437 29.142C22.9997 29.154 23.1377 29.22 23.2577 29.34C23.3177 29.376 23.3537 29.46 23.3657 29.592C23.3897 29.724 23.4017 29.814 23.4017 29.862C23.4257 29.946 23.3537 30.12 23.1857 30.384C23.0177 30.636 22.6577 31.038 22.1057 31.59C21.7937 31.806 21.5357 32.022 21.3317 32.238C21.1397 32.454 21.0497 32.586 21.0617 32.634C20.8697 32.85 20.7077 33.024 20.5757 33.156C20.4557 33.288 20.3297 33.42 20.1977 33.552C20.0777 33.672 19.9337 33.822 19.7657 34.002C19.6097 34.17 19.3997 34.41 19.1357 34.722C18.8357 35.082 18.5117 35.4 18.1637 35.676C17.8157 35.94 17.5217 36.066 17.2817 36.054ZM21.7637 36.666C21.6797 36.666 21.5837 36.66 21.4757 36.648C21.3677 36.636 21.2477 36.564 21.1157 36.432C20.9837 36.312 20.8217 36.102 20.6297 35.802L20.3597 35.28V35.298C20.2757 35.13 20.1797 34.902 20.0717 34.614C19.9757 34.314 19.9157 34.11 19.8917 34.002C19.8917 33.978 19.8797 33.942 19.8557 33.894C19.8437 33.846 19.8017 33.72 19.7297 33.516C19.6577 33.312 19.5197 32.97 19.3157 32.49L19.0457 31.518C18.9737 31.266 18.8957 31.026 18.8117 30.798C18.7277 30.558 18.6557 30.396 18.5957 30.312C18.5117 30.156 18.5057 30.054 18.5777 30.006C18.6617 29.958 18.7337 29.874 18.7937 29.754L18.8297 29.736C18.9257 29.616 19.0757 29.502 19.2797 29.394C19.4957 29.286 19.6697 29.25 19.8017 29.286C19.8977 29.346 19.9937 29.472 20.0897 29.664C20.1977 29.844 20.2937 30.042 20.3777 30.258C20.4737 30.462 20.5517 30.654 20.6117 30.834V30.816L20.8277 31.464L21.0977 32.454C21.0737 32.514 21.0857 32.634 21.1337 32.814C21.1937 32.994 21.2657 33.21 21.3497 33.462L21.4577 33.894C21.5057 34.002 21.5657 34.122 21.6377 34.254C21.7097 34.374 21.7637 34.482 21.7997 34.578V34.56C21.8597 34.716 21.9197 34.86 21.9797 34.992C22.0397 35.124 22.0877 35.232 22.1237 35.316C22.1717 35.4 22.2017 35.442 22.2137 35.442C22.2857 35.49 22.3217 35.52 22.3217 35.532C22.3337 35.544 22.3457 35.562 22.3577 35.586C22.3697 35.622 22.3877 35.658 22.4117 35.694C22.4477 35.73 22.4717 35.766 22.4837 35.802C22.5197 35.886 22.4957 35.994 22.4117 36.126C22.3277 36.258 22.2197 36.378 22.0877 36.486C21.9677 36.594 21.8597 36.654 21.7637 36.666ZM24.5738 35.622C24.5258 35.526 24.4178 35.43 24.2498 35.334C24.0938 35.238 24.0158 35.166 24.0158 35.118C24.0158 35.07 23.9858 34.998 23.9258 34.902C23.8778 34.794 23.8298 34.716 23.7818 34.668C23.7218 34.596 23.7398 34.422 23.8358 34.146C23.9318 33.858 24.0758 33.51 24.2678 33.102C24.4598 32.694 24.6698 32.28 24.8978 31.86C24.9938 31.764 25.0898 31.638 25.1858 31.482C25.2818 31.326 25.3538 31.224 25.4018 31.176C25.4018 31.128 25.4198 31.086 25.4558 31.05C25.4918 31.002 25.5338 30.978 25.5818 30.978L25.7258 30.69C25.7498 30.642 25.8218 30.546 25.9418 30.402C26.0738 30.258 26.2298 30.102 26.4098 29.934C26.5898 29.754 26.7698 29.586 26.9498 29.43C27.1418 29.274 27.2978 29.16 27.4178 29.088C27.6698 28.92 27.9278 28.842 28.1918 28.854C28.4678 28.866 28.7018 28.95 28.8938 29.106C28.9298 29.142 29.0078 29.214 29.1278 29.322C29.2598 29.43 29.4038 29.55 29.5598 29.682C29.7278 29.814 29.8718 29.934 29.9918 30.042L30.6578 30.636L30.3518 31.536C30.1958 32.016 30.1538 32.436 30.2258 32.796C30.2978 33.156 30.4118 33.468 30.5678 33.732C30.6278 33.864 30.7058 33.966 30.8018 34.038C30.9098 34.11 31.0478 34.158 31.2158 34.182C31.3118 34.194 31.4018 34.23 31.4858 34.29C31.5698 34.35 31.6118 34.446 31.6118 34.578C31.6118 34.866 31.5578 35.076 31.4498 35.208C31.3538 35.328 31.2458 35.4 31.1258 35.424C30.7298 35.472 30.3518 35.43 29.9918 35.298C29.6318 35.166 29.3078 34.824 29.0198 34.272C28.9718 34.2 28.9058 34.068 28.8218 33.876C28.7498 33.672 28.7078 33.54 28.6958 33.48C28.6478 33.54 28.5818 33.618 28.4978 33.714C28.4258 33.798 28.3538 33.876 28.2818 33.948C27.4298 34.812 26.6978 35.376 26.0858 35.64C25.4858 35.892 24.9818 35.886 24.5738 35.622ZM25.5638 34.128C25.6478 34.14 25.7798 34.098 25.9598 34.002C26.1398 33.894 26.3798 33.72 26.6798 33.48C27.0878 33.132 27.4238 32.844 27.6878 32.616C27.9518 32.388 28.2098 32.094 28.4618 31.734L28.8578 31.086C28.7378 30.81 28.6298 30.63 28.5338 30.546C28.4378 30.462 28.3418 30.42 28.2458 30.42C28.0898 30.42 27.9038 30.522 27.6878 30.726C27.4718 30.918 27.2258 31.206 26.9498 31.59C26.6858 31.962 26.3858 32.43 26.0498 32.994C25.8938 33.258 25.7738 33.516 25.6898 33.768C25.6058 34.008 25.5638 34.128 25.5638 34.128ZM35.9232 32.706C36.2712 33.114 36.4572 33.528 36.4812 33.948C36.5052 34.368 36.4092 34.758 36.1932 35.118C35.9772 35.466 35.6712 35.754 35.2752 35.982C34.8912 36.198 34.4652 36.306 33.9972 36.306C33.8412 36.306 33.6792 36.288 33.5112 36.252C33.3552 36.216 33.2112 36.162 33.0792 36.09C32.8152 35.934 32.6112 35.796 32.4672 35.676C32.3232 35.556 32.1672 35.364 31.9992 35.1C31.9752 35.064 31.9452 35.034 31.9092 35.01C31.8732 34.974 31.8492 34.938 31.8372 34.902C31.8132 34.782 31.7592 34.668 31.6752 34.56C31.6032 34.452 31.5792 34.338 31.6032 34.218C31.6272 34.086 31.6392 33.918 31.6392 33.714C31.6512 33.51 31.7232 33.414 31.8552 33.426C31.9872 33.426 32.1132 33.402 32.2332 33.354C32.3532 33.306 32.4672 33.276 32.5752 33.264C32.6832 33.24 32.7792 33.276 32.8632 33.372C32.9832 33.504 33.0672 33.684 33.1152 33.912C33.1752 34.128 33.2592 34.326 33.3672 34.506C33.4872 34.686 33.6852 34.782 33.9612 34.794C34.2132 34.794 34.3872 34.728 34.4832 34.596C34.5912 34.452 34.6452 34.278 34.6452 34.074C34.6572 33.87 34.6452 33.684 34.6092 33.516C34.5252 33.432 34.4712 33.366 34.4472 33.318C34.4352 33.258 34.4112 33.198 34.3752 33.138C34.3392 33.066 34.2492 32.982 34.1052 32.886C34.0812 32.658 34.0632 32.496 34.0512 32.4C34.0392 32.292 34.0332 32.196 34.0332 32.112C34.2492 31.98 34.5012 31.848 34.7892 31.716C35.0892 31.572 35.3232 31.404 35.4912 31.212C35.5392 31.164 35.5872 31.062 35.6352 30.906C35.6952 30.75 35.7252 30.606 35.7252 30.474C35.7252 30.378 35.7072 30.3 35.6712 30.24C35.6352 30.168 35.5692 30.132 35.4732 30.132C35.1972 30.132 34.9752 30.192 34.8072 30.312C34.6392 30.42 34.4952 30.552 34.3752 30.708C34.2672 30.852 34.1712 30.99 34.0872 31.122C34.0152 31.242 33.9312 31.314 33.8352 31.338C33.6432 31.386 33.4572 31.374 33.2772 31.302C33.0972 31.23 32.9472 31.14 32.8272 31.032C32.7192 30.912 32.6652 30.828 32.6652 30.78C32.6652 30.684 32.6952 30.6 32.7552 30.528C32.8272 30.456 32.9112 30.252 33.0072 29.916C33.0792 29.832 33.1692 29.736 33.2772 29.628C33.3972 29.508 33.4872 29.406 33.5472 29.322C33.7152 29.094 33.9312 28.932 34.1952 28.836C34.4712 28.728 34.7592 28.674 35.0592 28.674C35.4072 28.674 35.7492 28.734 36.0852 28.854C36.4332 28.962 36.7152 29.118 36.9312 29.322C37.0992 29.622 37.2252 29.958 37.3092 30.33C37.3932 30.702 37.3692 31.044 37.2372 31.356C37.2252 31.404 37.2132 31.452 37.2012 31.5C37.2012 31.536 37.2012 31.578 37.2012 31.626C37.0212 31.854 36.8292 32.07 36.6252 32.274C36.4332 32.466 36.1992 32.61 35.9232 32.706ZM43.3394 36.054C42.9674 35.922 42.6614 35.688 42.4214 35.352C42.1934 35.004 42.0314 34.644 41.9354 34.272C41.8874 34.32 41.8394 34.368 41.7914 34.416C41.7554 34.452 41.7074 34.5 41.6474 34.56C41.4674 34.752 41.2574 34.95 41.0174 35.154C40.7774 35.358 40.5314 35.532 40.2794 35.676C40.0274 35.808 39.7754 35.862 39.5234 35.838C39.3314 35.706 39.1454 35.58 38.9654 35.46C38.7974 35.328 38.6654 35.148 38.5694 34.92C38.5694 34.908 38.5634 34.902 38.5514 34.902C38.5514 34.902 38.5514 34.896 38.5514 34.884C38.4554 34.608 38.3834 34.362 38.3354 34.146C38.2994 33.918 38.3114 33.618 38.3714 33.246C38.4434 32.874 38.5814 32.346 38.7854 31.662C38.8694 31.374 38.9594 31.086 39.0554 30.798C39.1514 30.498 39.2474 30.228 39.3434 29.988C39.4394 29.736 39.5294 29.526 39.6134 29.358C39.6974 29.19 39.7754 29.082 39.8474 29.034C39.9074 29.034 39.9614 29.034 40.0094 29.034C40.0574 29.022 40.1054 29.016 40.1534 29.016C40.2614 29.016 40.3934 29.076 40.5494 29.196C40.6454 29.256 40.7354 29.322 40.8194 29.394C40.9154 29.466 40.9754 29.532 40.9994 29.592C41.0714 29.724 41.0474 29.988 40.9274 30.384C40.8074 30.78 40.6634 31.212 40.4954 31.68C40.3394 32.136 40.1954 32.586 40.0634 33.03C39.9434 33.462 39.9074 33.798 39.9554 34.038C40.0874 34.002 40.2074 33.96 40.3154 33.912C40.4354 33.852 40.5434 33.78 40.6394 33.696C40.8434 33.552 41.0294 33.384 41.1974 33.192C41.3654 33 41.5094 32.802 41.6294 32.598C41.7614 32.382 41.8634 32.184 41.9354 32.004C42.0434 31.728 42.1394 31.488 42.2234 31.284C42.3074 31.068 42.3734 30.888 42.4214 30.744C42.4694 30.588 42.4994 30.456 42.5114 30.348C42.5354 30.24 42.5474 30.144 42.5474 30.06C42.5354 29.844 42.5594 29.688 42.6194 29.592C42.6914 29.484 42.8234 29.376 43.0154 29.268C43.1114 29.268 43.2074 29.274 43.3034 29.286C43.3994 29.286 43.4894 29.292 43.5734 29.304C43.6694 29.388 43.7654 29.484 43.8614 29.592C43.9694 29.688 44.0714 29.784 44.1674 29.88C44.2634 30.156 44.2514 30.486 44.1314 30.87C44.0234 31.242 43.9034 31.632 43.7714 32.04C43.6394 32.46 43.5314 32.88 43.4474 33.3C43.3754 33.708 43.4354 34.068 43.6274 34.38C43.8074 34.296 43.9754 34.2 44.1314 34.092C44.2874 33.972 44.4434 33.852 44.5994 33.732C44.7554 33.612 44.9114 33.504 45.0674 33.408C45.2594 33.528 45.4094 33.738 45.5174 34.038C45.6254 34.338 45.6794 34.596 45.6794 34.812C45.6434 34.86 45.6014 34.902 45.5534 34.938C45.5174 34.974 45.4754 35.01 45.4274 35.046C45.3314 35.226 45.1574 35.412 44.9054 35.604C44.6534 35.784 44.3834 35.922 44.0954 36.018C43.8074 36.114 43.5554 36.126 43.3394 36.054ZM52.0564 29.034C52.2604 29.046 52.4344 29.154 52.5784 29.358C52.7344 29.562 52.8544 29.742 52.9384 29.898C52.9384 30.03 52.9144 30.21 52.8664 30.438C52.8304 30.654 52.7824 30.87 52.7224 31.086C52.6744 31.302 52.6204 31.47 52.5604 31.59C52.5844 31.854 52.5364 32.142 52.4164 32.454C52.3084 32.766 52.1944 33.084 52.0744 33.408C51.9784 33.708 51.9004 34.008 51.8404 34.308C51.7804 34.596 51.7864 34.878 51.8584 35.154C51.7984 35.202 51.7264 35.268 51.6424 35.352C51.5704 35.436 51.4924 35.49 51.4084 35.514C51.1924 35.622 50.9884 35.622 50.7964 35.514C50.6044 35.406 50.4544 35.25 50.3464 35.046C50.2384 34.83 50.2024 34.614 50.2384 34.398C50.2624 34.266 50.3044 34.056 50.3644 33.768C50.4364 33.48 50.5204 33.162 50.6164 32.814C50.7124 32.454 50.8024 32.094 50.8864 31.734C50.9824 31.374 51.0664 31.05 51.1384 30.762C51.2104 30.474 51.2524 30.264 51.2644 30.132C51.2644 30.108 51.2284 30.084 51.1564 30.06C51.0964 30.036 51.0184 30.012 50.9224 29.988C50.8264 29.952 50.7364 29.922 50.6524 29.898C50.3044 29.97 50.0044 30.114 49.7524 30.33C49.5124 30.534 49.3204 30.75 49.1764 30.978C49.0444 31.206 48.9604 31.386 48.9244 31.518C48.9124 31.59 48.9064 31.656 48.9064 31.716C48.9064 31.776 48.9244 31.83 48.9604 31.878C49.1284 32.094 49.2724 32.238 49.3924 32.31C49.5124 32.382 49.6204 32.43 49.7164 32.454C49.8124 32.466 49.9024 32.49 49.9864 32.526C50.0704 32.562 50.1904 32.598 50.3464 32.634C50.5144 32.658 50.6764 32.682 50.8324 32.706C50.9884 32.73 51.0904 32.748 51.1384 32.76C51.2824 32.844 51.2884 32.97 51.1564 33.138C51.0244 33.294 50.8744 33.432 50.7064 33.552C50.4064 33.756 50.0764 33.984 49.7164 34.236C49.3564 34.476 49.0084 34.722 48.6724 34.974C48.5884 35.034 48.5044 35.094 48.4204 35.154C48.3484 35.214 48.2764 35.274 48.2044 35.334C48.1204 35.394 48.0364 35.46 47.9524 35.532C47.8804 35.592 47.8084 35.652 47.7364 35.712C47.6524 35.784 47.5684 35.856 47.4844 35.928C47.4124 35.988 47.3104 35.976 47.1784 35.892C46.9144 35.868 46.7224 35.736 46.6024 35.496C46.4944 35.244 46.4164 35.004 46.3684 34.776C46.5244 34.584 46.7224 34.392 46.9624 34.2C47.2144 33.996 47.4724 33.804 47.7364 33.624C48.0004 33.432 48.2344 33.276 48.4384 33.156C48.1624 33 47.9464 32.832 47.7904 32.652C47.6344 32.472 47.5564 32.214 47.5564 31.878C47.5564 31.71 47.5804 31.53 47.6284 31.338C47.6764 31.134 47.7424 30.942 47.8264 30.762C47.9224 30.57 48.0184 30.414 48.1144 30.294C48.1384 30.27 48.1504 30.258 48.1504 30.258C48.1504 30.246 48.1564 30.228 48.1684 30.204C48.3004 29.94 48.4624 29.706 48.6544 29.502C48.8584 29.298 49.0864 29.136 49.3384 29.016C49.4344 28.968 49.5364 28.926 49.6444 28.89C49.7524 28.854 49.8604 28.83 49.9684 28.818C50.1004 28.794 50.2684 28.782 50.4724 28.782C50.6884 28.77 50.8984 28.776 51.1024 28.8C51.3184 28.812 51.4804 28.842 51.5884 28.89C51.6604 28.914 51.7384 28.95 51.8224 28.998C51.9064 29.034 51.9844 29.046 52.0564 29.034Z" fill="#58B4D1"/>
</svg>
