<svg width="24" height="24" viewBox="0 0 24 24" fill="none" xmlns="http://www.w3.org/2000/svg">
<path d="M20 3H12C11.45 3 11 3.45 11 4V5.61L11.01 5.62L16.01 10.12C16.64 10.68 17 11.5 17 12.35V13H19V15H17V17H19V19H17V21H20C20.55 21 21 20.55 21 20V4C21 3.45 20.55 3 20 3ZM15 7H13V5H15V7ZM19 11H17V9H19V11ZM19 7H17V5H19V7Z" fill="#58B4D1"/>
<path d="M15 19.9999V12.3499C14.9997 12.2104 14.9701 12.0725 14.9133 11.945C14.8565 11.8176 14.7736 11.7034 14.67 11.6099L9.67 7.10994C9.48876 6.93979 9.24858 6.84659 9 6.84994C8.76 6.84994 8.52 6.93994 8.33 7.10994L3.33 11.6099C3.2249 11.7022 3.141 11.8161 3.08404 11.9438C3.02708 12.0716 2.99841 12.2101 3 12.3499V19.9999C3 20.5499 3.45 20.9999 4 20.9999H6C6.55 20.9999 7 20.5499 7 19.9999V15.9999H11V19.9999C11 20.5499 11.45 20.9999 12 20.9999H14C14.55 20.9999 15 20.5499 15 19.9999Z" fill="#58B4D1"/>
</svg>
