<svg width="24" height="24" viewBox="0 0 24 24" fill="none" xmlns="http://www.w3.org/2000/svg">
<path d="M20.9648 10.0472L19.3184 5.34315C18.8696 4.06155 17.6552 3.19995 16.2968 3.19995H7.70318C6.34478 3.19995 5.13038 4.06155 4.68238 5.34235L3.03598 10.0464C2.15678 10.6248 1.59998 11.624 1.59998 12.7232V18.4C1.59998 19.284 2.31598 20 3.19998 20C4.08398 20 4.79998 19.284 4.79998 18.4V17.3912C4.79998 17.3912 9.02478 17.6 12 17.6C14.9752 17.6 19.2 17.3912 19.2 17.3912V18.4C19.2 19.284 19.916 20 20.8 20C21.684 20 22.4 19.284 22.4 18.4V12.7232C22.4 11.624 21.8424 10.6248 20.9648 10.0472ZM5.27598 8.49035L6.19278 5.87115C6.41758 5.22955 7.02318 4.79995 7.70318 4.79995H16.2968C16.9768 4.79995 17.5824 5.22955 17.8072 5.87115L18.724 8.49035C18.868 8.90235 18.5248 9.31755 18.0936 9.24795C16.5248 8.99435 14.508 8.79995 12 8.79995C9.49198 8.79995 7.47517 8.99435 5.90638 9.24795C5.47518 9.31755 5.13198 8.90235 5.27598 8.49035ZM5.19998 14.4C4.53758 14.4 3.99998 13.8624 3.99998 13.2C3.99998 12.5376 4.53758 12 5.19998 12C5.86238 12 6.39998 12.5376 6.39998 13.2C6.39998 13.8624 5.86238 14.4 5.19998 14.4ZM14.4 13.6H9.59998C9.15838 13.6 8.79998 13.2416 8.79998 12.8C8.79998 12.3584 9.15838 12 9.59998 12H14.4C14.8416 12 15.2 12.3584 15.2 12.8C15.2 13.2416 14.8416 13.6 14.4 13.6ZM18.8 14.4C18.1376 14.4 17.6 13.8624 17.6 13.2C17.6 12.5376 18.1376 12 18.8 12C19.4624 12 20 12.5376 20 13.2C20 13.8624 19.4624 14.4 18.8 14.4Z" fill="#58B4D1"/>
</svg>
