<svg width="48" height="38" viewBox="0 0 48 38" fill="none" xmlns="http://www.w3.org/2000/svg">
<path fill-rule="evenodd" clip-rule="evenodd" d="M25.569 14.1875L26.6807 16.4932L28.6162 14.2836C28.6754 14.2158 28.7602 14.1706 28.8564 14.1648L31.479 14.0206L31.6206 11.8959C31.6233 11.8646 31.6291 11.8337 31.6376 11.7996C31.6968 11.6186 31.8922 11.5167 32.076 11.5762L34.8573 12.49L30.8029 4.3617L25.569 14.1875ZM35.2929 13.3643L32.2853 12.3768L32.1524 14.3714C32.1413 14.5525 31.9913 14.694 31.8129 14.6968L29.0403 14.8497L26.856 17.3448C26.7316 17.4892 26.5111 17.5034 26.3695 17.376C26.3328 17.3448 26.3046 17.3082 26.2847 17.2657L25.1645 14.9457L24.6832 15.8454V15.8481L24.6608 15.8878L13.1235 37.551H47.3593L45.5686 33.9607H29.077C28.8878 33.9607 28.732 33.8052 28.732 33.6127C28.732 33.4231 28.8878 33.2647 29.077 33.2647H45.2234L44.7565 32.3339H28.2794C28.0868 32.3339 27.9315 32.1782 27.9315 31.9858C27.9315 31.7933 28.0868 31.6378 28.2794 31.6378H44.4088L35.2929 13.3643ZM23.9138 15.5739L18.3207 4.3617L14.1251 12.241L15.944 12.4305C16.1336 12.4503 16.2723 12.6202 16.2526 12.8126L16.2356 12.889L15.3388 15.489L18.5131 14.9854C18.6232 14.9655 18.7337 15.0051 18.81 15.0788L21.2092 17.229L23.9138 15.5739ZM4.78858 30.9873V31.785H5.39135V30.9873H4.78858ZM9.31817 20.9041L8.07321 22.2536H10.1583H10.1668H11.1684H11.177H13.2592L12.0002 20.887C11.8697 20.7484 11.8784 20.5278 12.0198 20.3976C12.0851 20.3409 12.1642 20.31 12.2434 20.307L11.3947 19.3876C11.2646 19.2461 11.2731 19.0255 11.4143 18.8952C11.4399 18.8698 11.471 18.85 11.5024 18.8358L11.0693 18.3351C10.9592 18.202 10.9592 18.0124 11.0665 17.8851L10.7723 17.5287L10.7667 17.523L10.761 17.5145L10.6533 17.3871L10.243 17.902C10.2853 17.9586 10.311 18.0294 10.311 18.1057C10.311 18.2019 10.2714 18.2897 10.2091 18.3519L9.81592 18.83C9.94318 18.881 10.0338 19.0054 10.0338 19.1526C10.0338 19.2487 9.99142 19.3393 9.92612 19.4015L9.09168 20.3068C9.27845 20.3126 9.42531 20.4653 9.42531 20.6519C9.42552 20.7512 9.38591 20.8418 9.31817 20.9041ZM9.81897 23.753V22.9496H8.42137L7.03484 25.5467L7.37162 25.9343C7.42829 25.9965 7.46495 26.0814 7.46495 26.1719C7.46495 26.353 7.32632 26.5001 7.15377 26.52L8.39842 27.8667C8.46362 27.9318 8.50607 28.0195 8.50607 28.1185C8.50607 28.311 8.35038 28.4665 8.15781 28.4665H7.94006L9.7169 30.3903C9.7822 30.4526 9.82456 30.5432 9.82456 30.6421C9.82456 30.8316 9.66876 30.9873 9.4763 30.9873H6.08411V32.1331C6.08411 32.3255 5.92872 32.4811 5.73626 32.4811H4.44327C4.25111 32.4811 4.09542 32.3255 4.09542 32.1331V31.0692L0.640869 37.5509H12.3369L23.4641 16.6629L21.3508 17.9558C21.2235 18.0322 21.0567 18.0209 20.9405 17.9162L18.4593 15.6924L14.9003 16.2612C14.838 16.2753 14.7728 16.2724 14.7107 16.2499C14.5296 16.1904 14.4305 15.9924 14.4929 15.8113L15.4378 13.0755L13.774 12.9001L11.4486 17.2626L11.9438 17.8623C12.0058 17.9246 12.0457 18.0123 12.0457 18.1056C12.0457 18.1878 12.02 18.2611 11.9748 18.3178L12.487 18.9148C12.5437 18.9771 12.5804 19.0591 12.5804 19.1525C12.5804 19.2826 12.5065 19.3958 12.4021 19.4552L13.2761 20.4029C13.3441 20.4651 13.3837 20.5556 13.3837 20.6518C13.3837 20.8414 13.2364 20.9942 13.0497 20.9999L14.2947 22.3494C14.3596 22.4116 14.4024 22.5022 14.4024 22.6012C14.4024 22.7907 14.2466 22.9492 14.0541 22.9492H11.5134V23.7526C11.5134 23.9451 11.358 24.1007 11.1684 24.1007H10.1668C9.97436 24.1011 9.81897 23.9454 9.81897 23.753ZM10.5148 22.9496V23.4051H10.8206V22.9496H10.5148ZM26.1632 31.638C26.3554 31.638 26.5112 31.7935 26.5112 31.986C26.5112 32.1785 26.3554 32.3341 26.1632 32.3341H22.8531C22.6606 32.3341 22.5052 32.1785 22.5052 31.986C22.5052 31.7935 22.6606 31.638 22.8531 31.638H26.1632ZM27.9878 33.2648C28.1774 33.2648 28.3332 33.4232 28.3332 33.6128C28.3332 33.8053 28.1774 33.9608 27.9878 33.9608H26.6102C26.4206 33.9608 26.2648 33.8053 26.2648 33.6128C26.2648 33.4232 26.4206 33.2648 26.6102 33.2648H27.9878ZM23.0737 2.48594C23.4076 2.15211 23.8657 1.94837 24.3665 1.94837C24.8701 1.94837 25.3256 2.15211 25.6567 2.4832C25.9908 2.81704 26.1943 3.27244 26.1943 3.77609C26.1943 4.26847 25.9989 4.71808 25.6793 5.04643L25.6597 5.06908C25.3286 5.40018 24.8702 5.60391 24.3666 5.60391C23.8633 5.60391 23.405 5.40018 23.0738 5.06908C22.7455 4.73799 22.5392 4.27984 22.5392 3.77619C22.5392 3.27254 22.7426 2.81704 23.0737 2.48594ZM24.3664 2.64448C24.0524 2.64448 23.7697 2.77184 23.5659 2.97547C23.3623 3.17921 23.2348 3.46216 23.2348 3.77619C23.2348 4.09022 23.3623 4.37308 23.5659 4.57681C23.7725 4.78054 24.0552 4.9079 24.3664 4.9079C24.6804 4.9079 24.9635 4.78054 25.1673 4.57681L25.1841 4.55995C25.3795 4.35896 25.4981 4.08169 25.4981 3.77619C25.4981 3.46216 25.3737 3.17921 25.1701 2.97547C24.9635 2.77184 24.6804 2.64448 24.3664 2.64448ZM22.0126 1.91445C21.8796 1.77866 21.8796 1.55797 22.0126 1.42208C22.1484 1.28639 22.3694 1.28639 22.5051 1.42208L22.9578 1.87474C23.0936 2.01063 23.0936 2.23133 22.9578 2.36711C22.822 2.50016 22.601 2.50016 22.4652 2.36711L22.0126 1.91445ZM21.3873 4.12404C21.1949 4.12404 21.0395 3.96855 21.0395 3.77609C21.0395 3.58363 21.1949 3.42804 21.3873 3.42804H22.0239C22.2164 3.42804 22.3718 3.58363 22.3718 3.77609C22.3718 3.96855 22.2164 4.12404 22.0239 4.12404H21.3873ZM22.5051 6.1299C22.3694 6.26579 22.1484 6.26579 22.0126 6.1299C21.8796 5.99422 21.8796 5.77352 22.0126 5.63773L22.4652 5.18781C22.601 5.05192 22.822 5.05192 22.9578 5.18781C23.0936 5.3235 23.0936 5.54429 22.9578 5.68008L22.5051 6.1299ZM24.7146 6.75817C24.7146 6.94758 24.5589 7.10318 24.3664 7.10318C24.1772 7.10318 24.0185 6.94758 24.0185 6.75817V6.11863C24.0185 5.92617 24.1772 5.77068 24.3664 5.77068C24.5589 5.77068 24.7146 5.92617 24.7146 6.11863V6.75817ZM26.7203 5.63783C26.8561 5.77362 26.8561 5.99432 26.7203 6.13C26.5845 6.2659 26.3638 6.2659 26.228 6.13L25.7782 5.68018C25.6424 5.5444 25.6424 5.3236 25.7782 5.18791C25.914 5.05202 26.1347 5.05202 26.2705 5.18791L26.7203 5.63783ZM27.3488 3.42814C27.538 3.42814 27.6938 3.58373 27.6938 3.77619C27.6938 3.96865 27.538 4.12415 27.3488 4.12415H26.7093C26.5168 4.12415 26.3611 3.96865 26.3611 3.77619C26.3611 3.58373 26.5168 3.42814 26.7093 3.42814H27.3488ZM26.2281 1.42218C26.3639 1.28649 26.5846 1.28649 26.7204 1.42218C26.8562 1.55807 26.8562 1.77876 26.7204 1.91455L26.2706 2.36447C26.1348 2.50026 25.9141 2.50026 25.7783 2.36447C25.6425 2.23143 25.6425 2.00789 25.7783 1.87494L26.2281 1.42218ZM24.0186 0.796958C24.0186 0.604497 24.1743 0.449005 24.3665 0.449005C24.559 0.449005 24.7147 0.604497 24.7147 0.796958V1.43355C24.7147 1.62601 24.559 1.78161 24.3665 1.78161C24.1743 1.78161 24.0186 1.62601 24.0186 1.43355V0.796958ZM3.27205 28.3704L1.49846 30.2941H4.4323H4.44337H5.73646H5.74784H8.68167L6.89062 28.3533C6.76336 28.2118 6.77189 27.9941 6.91347 27.864C6.97837 27.8017 7.06358 27.7734 7.14838 27.7734L7.36624 27.7705L6.10727 26.4068C5.97717 26.2683 5.98539 26.0475 6.12687 25.9174C6.19207 25.858 6.27698 25.8269 6.35894 25.8269L5.68842 25.046C5.56401 24.9017 5.58077 24.681 5.72519 24.5567L5.7451 24.5424L5.07184 23.7247L4.40671 24.5594C4.4777 24.6245 4.52289 24.718 4.52289 24.8197C4.52289 24.9159 4.48623 25.0037 4.42377 25.0659L3.79865 25.8242H3.81825C4.01071 25.8242 4.16651 25.9826 4.16651 26.1721C4.16651 26.2713 4.12416 26.3617 4.05885 26.4239L2.8139 27.7706H3.03195C3.22411 27.7706 3.37981 27.9262 3.37981 28.1186C3.3796 28.2174 3.3401 28.308 3.27205 28.3704Z" fill="#58B4D1"/>
</svg>
