<svg width="21" height="24" viewBox="0 0 21 24" fill="none" xmlns="http://www.w3.org/2000/svg">
<path d="M10.5 0C4.65 0 0 1.65 0 3.75V19.5C0 20.3297 0.670313 21 1.5 21V22.5C1.5 23.3297 2.17031 24 3 24H4.5C5.32969 24 6 23.3297 6 22.5V21H15V22.5C15 23.3297 15.6703 24 16.5 24H18C18.8283 24 19.5 23.3297 19.5 22.5V21C20.3283 21 21 20.3297 21 19.5V3.75C21 1.65 16.3505 0 10.5 0ZM18 12C18 12.8297 17.3283 13.5 16.5 13.5H4.5C3.67031 13.5 3 12.8297 3 12V6C3 5.17031 3.67031 4.5 4.5 4.5H16.5C17.3283 4.5 18 5.17031 18 6V12ZM17.25 18.75C16.4217 18.75 15.75 18.0797 15.75 17.25C15.75 16.4203 16.4217 15.75 17.25 15.75C18.0783 15.75 18.75 16.4203 18.75 17.25C18.75 18.0797 18.0783 18.75 17.25 18.75ZM3.75 18.75C2.92031 18.75 2.25 18.0797 2.25 17.25C2.25 16.4203 2.92031 15.75 3.75 15.75C4.57969 15.75 5.25 16.4203 5.25 17.25C5.25 18.0797 4.57969 18.75 3.75 18.75Z" fill="#58B4D1"/>
</svg>
