<svg width="28" height="28" viewBox="0 0 28 28" fill="none" xmlns="http://www.w3.org/2000/svg">
<path d="M14 0C17.713 0 21.274 1.475 23.8995 4.1005C26.525 6.72601 28 10.287 28 14C28 17.713 26.525 21.274 23.8995 23.8995C21.274 26.525 17.713 28 14 28C10.287 28 6.72601 26.525 4.1005 23.8995C1.475 21.274 0 17.713 0 14C0 10.287 1.475 6.72601 4.1005 4.1005C6.72601 1.475 10.287 0 14 0ZM14 12.302L10.748 9.05C10.5228 8.82483 10.2174 8.69833 9.899 8.69833C9.58056 8.69833 9.27517 8.82483 9.05 9.05C8.82483 9.27517 8.69833 9.58056 8.69833 9.899C8.69833 10.2174 8.82483 10.5228 9.05 10.748L12.302 14L9.05 17.252C8.93851 17.3635 8.85007 17.4959 8.78973 17.6415C8.72939 17.7872 8.69833 17.9433 8.69833 18.101C8.69833 18.2587 8.72939 18.4148 8.78973 18.5605C8.85007 18.7061 8.93851 18.8385 9.05 18.95C9.16149 19.0615 9.29385 19.1499 9.43952 19.2103C9.5852 19.2706 9.74133 19.3017 9.899 19.3017C10.0567 19.3017 10.2128 19.2706 10.3585 19.2103C10.5041 19.1499 10.6365 19.0615 10.748 18.95L14 15.698L17.252 18.95C17.3635 19.0615 17.4959 19.1499 17.6415 19.2103C17.7872 19.2706 17.9433 19.3017 18.101 19.3017C18.2587 19.3017 18.4148 19.2706 18.5605 19.2103C18.7061 19.1499 18.8385 19.0615 18.95 18.95C19.0615 18.8385 19.1499 18.7061 19.2103 18.5605C19.2706 18.4148 19.3017 18.2587 19.3017 18.101C19.3017 17.9433 19.2706 17.7872 19.2103 17.6415C19.1499 17.4959 19.0615 17.3635 18.95 17.252L15.698 14L18.95 10.748C19.0615 10.6365 19.1499 10.5041 19.2103 10.3585C19.2706 10.2128 19.3017 10.0567 19.3017 9.899C19.3017 9.74133 19.2706 9.5852 19.2103 9.43952C19.1499 9.29385 19.0615 9.16149 18.95 9.05C18.8385 8.93851 18.7061 8.85007 18.5605 8.78973C18.4148 8.72939 18.2587 8.69833 18.101 8.69833C17.9433 8.69833 17.7872 8.72939 17.6415 8.78973C17.4959 8.85007 17.3635 8.93851 17.252 9.05L14 12.302Z" fill="#58B4D1"/>
</svg>
