<svg width="32" height="34" viewBox="0 0 32 34" fill="none" xmlns="http://www.w3.org/2000/svg">
<path d="M16 0C11.7565 0 7.68687 1.77698 4.68629 4.94003C1.68571 8.10309 0 12.3931 0 16.8663C0 21.3396 1.68571 25.6296 4.68629 28.7926C7.68687 31.9557 11.7565 33.7327 16 33.7327C20.2435 33.7327 24.3131 31.9557 27.3137 28.7926C30.3143 25.6296 32 21.3396 32 16.8663C32 12.3931 30.3143 8.10309 27.3137 4.94003C24.3131 1.77698 20.2435 0 16 0V0ZM23 15.8122C23.2652 15.8122 23.5196 15.9232 23.7071 16.1209C23.8946 16.3186 24 16.5868 24 16.8663C24 17.1459 23.8946 17.414 23.7071 17.6117C23.5196 17.8094 23.2652 17.9205 23 17.9205H11.414L15.708 22.4449C15.801 22.5429 15.8747 22.6592 15.925 22.7873C15.9754 22.9153 16.0013 23.0526 16.0013 23.1912C16.0013 23.3298 15.9754 23.4671 15.925 23.5951C15.8747 23.7232 15.801 23.8395 15.708 23.9375C15.615 24.0356 15.5046 24.1133 15.3832 24.1663C15.2617 24.2194 15.1315 24.2467 15 24.2467C14.8685 24.2467 14.7383 24.2194 14.6168 24.1663C14.4954 24.1133 14.385 24.0356 14.292 23.9375L8.292 17.6127C8.19887 17.5147 8.12499 17.3984 8.07458 17.2704C8.02416 17.1423 7.99821 17.005 7.99821 16.8663C7.99821 16.7277 8.02416 16.5904 8.07458 16.4623C8.12499 16.3342 8.19887 16.2179 8.292 16.12L14.292 9.79512C14.385 9.69711 14.4954 9.61937 14.6168 9.56632C14.7383 9.51328 14.8685 9.48598 15 9.48598C15.1315 9.48598 15.2617 9.51328 15.3832 9.56632C15.5046 9.61937 15.615 9.69711 15.708 9.79512C15.801 9.89313 15.8747 10.0095 15.925 10.1375C15.9754 10.2656 16.0013 10.4029 16.0013 10.5415C16.0013 10.6801 15.9754 10.8173 15.925 10.9454C15.8747 11.0734 15.801 11.1898 15.708 11.2878L11.414 15.8122H23Z" fill="#58B4D1"/>
</svg>
