<svg width="32" height="32" viewBox="0 0 32 32" fill="none" xmlns="http://www.w3.org/2000/svg">
<path d="M0 16C0 7.16347 7.16347 0 16 0C24.8365 0 32 7.16347 32 16C32 24.8365 24.8365 32 16 32C7.16347 32 0 24.8365 0 16Z" fill="#005FF9"/>
<path fill-rule="evenodd" clip-rule="evenodd" d="M6.66669 15.9734C6.66669 10.8415 10.8535 6.6665 15.9999 6.6665C21.1463 6.6665 25.3332 10.8415 25.3332 15.9734C25.3332 16.7004 25.2725 17.2889 25.1366 17.8796L25.1346 17.8894C25.1342 17.8912 25.0668 18.1635 25.0295 18.2823C24.7988 19.018 24.3812 19.6307 23.8217 20.0542C23.2791 20.465 22.6063 20.6912 21.9274 20.6912C21.8435 20.6912 21.759 20.6878 21.6763 20.6812C20.7122 20.604 19.8644 20.0981 19.3446 19.2914C18.4505 20.1878 17.2643 20.681 15.9999 20.681C13.3968 20.681 11.279 18.5692 11.279 15.9734C11.279 13.3776 13.3968 11.2658 15.9999 11.2658C18.603 11.2658 20.7208 13.3776 20.7208 15.9734V17.4909C20.7247 18.3764 21.3206 18.7383 21.8296 18.7792C22.3361 18.8182 23.0102 18.524 23.245 17.5639C23.3608 17.0373 23.4196 16.502 23.4196 15.9734C23.4196 11.8936 20.0912 8.57457 15.9999 8.57457C11.9086 8.57457 8.58022 11.8936 8.58022 15.9734C8.58022 20.053 11.9086 23.3722 15.9999 23.3722C17.424 23.3722 18.8091 22.9666 20.0053 22.1992L20.0268 22.1854L21.2841 23.6432L21.2571 23.6616C19.7033 24.7206 17.8854 25.2803 15.9999 25.2803C10.8535 25.2803 6.66669 21.1052 6.66669 15.9734ZM15.9999 18.7729C17.5479 18.7729 18.8073 17.517 18.8073 15.9734C18.8073 14.4297 17.5479 13.174 15.9999 13.174C14.4518 13.174 13.1925 14.4297 13.1925 15.9734C13.1925 17.517 14.4518 18.7729 15.9999 18.7729Z" fill="#FF9E00"/>
</svg>
