<svg width="32" height="34" viewBox="0 0 32 34" fill="none" xmlns="http://www.w3.org/2000/svg">
<path d="M16 0C20.2435 0 24.3131 1.77698 27.3137 4.94003C30.3143 8.10309 32 12.3931 32 16.8663C32 21.3396 30.3143 25.6296 27.3137 28.7926C24.3131 31.9557 20.2435 33.7327 16 33.7327C11.7565 33.7327 7.68687 31.9557 4.68629 28.7926C1.68571 25.6296 0 21.3396 0 16.8663C0 12.3931 1.68571 8.10309 4.68629 4.94003C7.68687 1.77698 11.7565 0 16 0V0ZM9 15.8122C8.73478 15.8122 8.48043 15.9232 8.29289 16.1209C8.10536 16.3186 8 16.5868 8 16.8663C8 17.1459 8.10536 17.414 8.29289 17.6117C8.48043 17.8094 8.73478 17.9205 9 17.9205H20.586L16.292 22.4449C16.199 22.5429 16.1253 22.6592 16.075 22.7873C16.0246 22.9153 15.9987 23.0526 15.9987 23.1912C15.9987 23.3298 16.0246 23.4671 16.075 23.5951C16.1253 23.7232 16.199 23.8395 16.292 23.9375C16.385 24.0356 16.4954 24.1133 16.6168 24.1663C16.7383 24.2194 16.8685 24.2467 17 24.2467C17.1315 24.2467 17.2617 24.2194 17.3832 24.1663C17.5046 24.1133 17.615 24.0356 17.708 23.9375L23.708 17.6127C23.8011 17.5147 23.875 17.3984 23.9254 17.2704C23.9758 17.1423 24.0018 17.005 24.0018 16.8663C24.0018 16.7277 23.9758 16.5904 23.9254 16.4623C23.875 16.3342 23.8011 16.2179 23.708 16.12L17.708 9.79512C17.615 9.69711 17.5046 9.61937 17.3832 9.56632C17.2617 9.51328 17.1315 9.48598 17 9.48598C16.8685 9.48598 16.7383 9.51328 16.6168 9.56632C16.4954 9.61937 16.385 9.69711 16.292 9.79512C16.199 9.89313 16.1253 10.0095 16.075 10.1375C16.0246 10.2656 15.9987 10.4029 15.9987 10.5415C15.9987 10.6801 16.0246 10.8173 16.075 10.9454C16.1253 11.0734 16.199 11.1898 16.292 11.2878L20.586 15.8122H9Z" fill="#58B4D1"/>
</svg>
