<svg width="54" height="42" viewBox="0 0 54 42" fill="none" xmlns="http://www.w3.org/2000/svg">
<g clip-path="url(#clip0_1388_33817)">
<path d="M9.78024 41.9067V39.1161C9.78024 38.0458 9.13113 37.3485 8.0657 37.3485C7.50613 37.3485 6.90738 37.5349 6.48994 38.1346C6.16539 37.6225 5.70654 37.3485 5.00707 37.3485C4.74701 37.3372 4.48821 37.3908 4.25385 37.5044C4.01948 37.6181 3.81685 37.7883 3.66409 37.9998V37.4383H2.78333V41.9033H3.66409V39.3485C3.66409 38.5624 4.12742 38.1862 4.77653 38.1862C5.42563 38.1862 5.79607 38.6051 5.79607 39.3485V41.9067H6.67684V39.3485C6.67684 38.5624 7.14017 38.1862 7.78927 38.1862C8.43838 38.1862 8.80882 38.6051 8.80882 39.3485V41.9067H9.78024ZM24.2419 37.4877H22.6191V36.1401H21.7406V37.4877H20.8139V38.2738H21.7406V40.3716C21.7406 41.3946 22.111 41.9999 23.2234 41.9999C23.6449 41.9911 24.0578 41.8793 24.4265 41.6742L24.1479 40.8881C23.8978 41.045 23.6078 41.1257 23.313 41.1206C22.8496 41.1206 22.618 40.841 22.618 40.3761V38.2379H24.2407V37.4933L24.2419 37.4877ZM32.4922 37.3485C32.2523 37.3431 32.0151 37.4003 31.8039 37.5145C31.5926 37.6286 31.4145 37.7959 31.2869 37.9998V37.4383H30.4061V41.9033H31.2869V39.3957C31.2869 38.6511 31.6573 38.1862 32.2606 38.1862C32.4641 38.1945 32.6661 38.2258 32.8627 38.2794L33.1413 37.4417C32.9288 37.3879 32.7112 37.3567 32.4922 37.3485ZM20.0238 37.8134C19.5605 37.4877 18.9114 37.3485 18.2164 37.3485C17.1039 37.3485 16.4089 37.8605 16.4089 38.7443C16.4089 39.4889 16.9193 39.9066 17.8918 40.047L18.3551 40.0931C18.8655 40.1863 19.19 40.3727 19.19 40.6051C19.19 40.9308 18.8196 41.1666 18.1235 41.1666C17.592 41.1776 17.0714 41.0144 16.6406 40.7017L16.1773 41.3991C16.8264 41.864 17.6143 41.9606 18.0798 41.9606C19.378 41.9606 20.073 41.3564 20.073 40.5187C20.073 39.7326 19.5135 39.3564 18.5432 39.216L18.0798 39.17C17.6624 39.1239 17.2964 38.9835 17.2964 38.705C17.2964 38.3794 17.6669 38.1435 18.1772 38.1435C18.7368 38.1435 19.2896 38.376 19.5683 38.5152L20.0238 37.8134ZM33.4659 39.6742C33.4659 41.0218 34.3466 41.9999 35.7836 41.9999C36.4327 41.9999 36.8961 41.8606 37.3594 41.4878L36.8961 40.7904C36.568 41.057 36.1599 41.2046 35.7378 41.2093C34.9543 41.2093 34.3467 40.6051 34.3467 39.7213C34.3467 38.8375 34.9465 38.2379 35.7378 38.2379C36.1599 38.2426 36.568 38.3902 36.8961 38.6567L37.3594 37.9594C36.8961 37.5877 36.4327 37.4473 35.7836 37.4473C34.3925 37.3541 33.4659 38.3311 33.4659 39.6798V39.6742ZM27.2546 37.3485C25.9564 37.3485 25.0756 38.2783 25.0756 39.6742C25.0756 41.0701 26.0023 41.9999 27.3464 41.9999C28.0003 42.0138 28.6388 41.8003 29.1538 41.3957L28.6905 40.7444C28.318 41.034 27.8633 41.1968 27.3923 41.2093C26.7902 41.2093 26.1411 40.8376 26.0493 40.047H29.3407V39.6753C29.3407 38.2794 28.5058 37.3496 27.2546 37.3496V37.3485ZM27.2087 38.1862C27.8578 38.1862 28.3212 38.6051 28.367 39.3025H25.9575C26.0963 38.6511 26.5171 38.1862 27.2087 38.1862ZM15.2036 39.6742V37.4417H14.3229V38.0032C13.9983 37.5843 13.5395 37.3518 12.8859 37.3518C11.6347 37.3518 10.7069 38.3288 10.7069 39.6775C10.7069 41.0263 11.6335 42.0033 12.8859 42.0033C13.535 42.0033 13.9983 41.7708 14.3229 41.3519V41.9134H15.2036V39.6742ZM11.6347 39.6742C11.6347 38.8364 12.145 38.1862 13.0258 38.1862C13.8607 38.1862 14.3687 38.8375 14.3687 39.6742C14.3687 40.558 13.8092 41.1621 13.0258 41.1621C12.145 41.2082 11.6347 40.5108 11.6347 39.6742ZM45.8895 37.3485C45.6496 37.3431 45.4125 37.4003 45.2012 37.5145C44.9899 37.6286 44.8118 37.7959 44.6842 37.9998V37.4383H43.8035V41.9033H44.6831V39.3957C44.6831 38.6511 45.0535 38.1862 45.6568 38.1862C45.8603 38.1945 46.0623 38.2258 46.2589 38.2794L46.5375 37.4417C46.325 37.3879 46.1074 37.3567 45.8884 37.3485H45.8895ZM42.4594 39.6742V37.4417H41.5786V38.0032C41.254 37.5843 40.7952 37.3518 40.1416 37.3518C38.8904 37.3518 37.9626 38.3288 37.9626 39.6775C37.9626 41.0263 38.8893 42.0033 40.1416 42.0033C40.7907 42.0033 41.254 41.7708 41.5786 41.3519V41.9134H42.4594V39.6742ZM38.8904 39.6742C38.8904 38.8364 39.4007 38.1862 40.2815 38.1862C41.1164 38.1862 41.6245 38.8375 41.6245 39.6742C41.6245 40.558 41.0649 41.1621 40.2815 41.1621C39.4007 41.2082 38.8904 40.5108 38.8904 39.6742ZM51.4058 39.6742V35.6741H50.5251V37.9998C50.2005 37.5809 49.7416 37.3485 49.0881 37.3485C47.8369 37.3485 46.9091 38.3255 46.9091 39.6742C46.9091 41.0229 47.8357 41.9999 49.0881 41.9999C49.7372 41.9999 50.2005 41.7674 50.5251 41.3486V41.9101H51.4058V39.6742ZM47.8369 39.6742C47.8369 38.8364 48.3472 38.1862 49.228 38.1862C50.0628 38.1862 50.5709 38.8375 50.5709 39.6742C50.5709 40.558 50.0114 41.1621 49.228 41.1621C48.3461 41.2093 47.8357 40.5119 47.8357 39.6742H47.8369Z" fill="black"/>
<path d="M35.0887 3.5813H19.0043V29.9065H35.0887V3.5813Z" fill="#FF5F00"/>
<path d="M20.6271 16.7439C20.6276 14.2114 21.1991 11.7118 22.2988 9.43233C23.3985 7.15287 24.9978 5.15258 26.9771 3.58124C24.5156 1.63926 21.5593 0.431428 18.446 0.0958082C15.3327 -0.239811 12.1881 0.310327 9.3717 1.68334C6.55529 3.05634 4.18071 5.19682 2.51939 7.86007C0.858065 10.5233 -0.0229492 13.6019 -0.0229492 16.7439C-0.0229492 19.8858 0.858065 22.9644 2.51939 25.6276C4.18071 28.2909 6.55529 30.4314 9.3717 31.8044C12.1881 33.1774 15.3327 33.7275 18.446 33.3919C21.5593 33.0563 24.5156 31.8485 26.9771 29.9065C24.9978 28.3351 23.3985 26.3348 22.2988 24.0554C21.1991 21.7759 20.6276 19.2764 20.6271 16.7439Z" fill="#EB001B"/>
<path d="M54.0011 16.7438C54.0034 19.8834 53.125 22.9604 51.4664 25.6227C49.8078 28.2849 47.436 30.425 44.6222 31.7982C41.8084 33.1714 38.6662 33.7222 35.5551 33.3877C32.444 33.0531 29.4896 31.8467 27.0297 29.9064C29.0094 28.3355 30.6091 26.3353 31.7088 24.0557C32.8086 21.7762 33.3799 19.2764 33.3799 16.7438C33.3799 14.2112 32.8086 11.7114 31.7088 9.43184C30.6091 7.15229 29.0094 5.15208 27.0297 3.58115C29.4896 1.64086 32.444 0.434438 35.5551 0.0998822C38.6662 -0.234674 41.8084 0.316141 44.6222 1.68933C47.436 3.06251 49.8078 5.20263 51.4664 7.8649C53.125 10.5272 54.0034 13.6041 54.0011 16.7438Z" fill="#F79E1B"/>
</g>
<defs>
<clipPath id="clip0_1388_33817">
<rect width="54" height="42" fill="white"/>
</clipPath>
</defs>
</svg>
