<svg width="25" height="24" viewBox="0 0 25 24" fill="none" xmlns="http://www.w3.org/2000/svg">
<path fill-rule="evenodd" clip-rule="evenodd" d="M12.5005 0.999985C6.42549 0.999985 1.50049 5.92498 1.50049 12C1.50049 18.075 6.42549 23 12.5005 23C18.5755 23 23.5005 18.075 23.5005 12C23.5005 5.92498 18.5755 0.999985 12.5005 0.999985ZM13.5005 16C13.5005 16.2652 13.3951 16.5196 13.2076 16.7071C13.0201 16.8946 12.7657 17 12.5005 17C12.2353 17 11.9809 16.8946 11.7934 16.7071C11.6058 16.5196 11.5005 16.2652 11.5005 16V13H8.50049C8.23527 13 7.98092 12.8946 7.79338 12.7071C7.60585 12.5196 7.50049 12.2652 7.50049 12C7.50049 11.7348 7.60585 11.4804 7.79338 11.2929C7.98092 11.1053 8.23527 11 8.50049 11H11.5005V7.99998C11.5005 7.73477 11.6058 7.48041 11.7934 7.29288C11.9809 7.10534 12.2353 6.99998 12.5005 6.99998C12.7657 6.99998 13.0201 7.10534 13.2076 7.29288C13.3951 7.48041 13.5005 7.73477 13.5005 7.99998V11H16.5005C16.7657 11 17.0201 11.1053 17.2076 11.2929C17.3951 11.4804 17.5005 11.7348 17.5005 12C17.5005 12.2652 17.3951 12.5196 17.2076 12.7071C17.0201 12.8946 16.7657 13 16.5005 13H13.5005V16Z" fill="#58B4D1"/>
</svg>
