<svg width="49" height="48" viewBox="0 0 49 48" fill="none" xmlns="http://www.w3.org/2000/svg">
<path fill-rule="evenodd" clip-rule="evenodd" d="M24.5 2C12.35 2 2.5 11.85 2.5 24C2.5 36.15 12.35 46 24.5 46C36.65 46 46.5 36.15 46.5 24C46.5 11.85 36.65 2 24.5 2ZM26.5 32C26.5 32.5304 26.2893 33.0391 25.9142 33.4142C25.5391 33.7893 25.0304 34 24.5 34C23.9696 34 23.4609 33.7893 23.0858 33.4142C22.7107 33.0391 22.5 32.5304 22.5 32V26H16.5C15.9696 26 15.4609 25.7893 15.0858 25.4142C14.7107 25.0391 14.5 24.5304 14.5 24C14.5 23.4696 14.7107 22.9609 15.0858 22.5858C15.4609 22.2107 15.9696 22 16.5 22H22.5V16C22.5 15.4696 22.7107 14.9609 23.0858 14.5858C23.4609 14.2107 23.9696 14 24.5 14C25.0304 14 25.5391 14.2107 25.9142 14.5858C26.2893 14.9609 26.5 15.4696 26.5 16V22H32.5C33.0304 22 33.5391 22.2107 33.9142 22.5858C34.2893 22.9609 34.5 23.4696 34.5 24C34.5 24.5304 34.2893 25.0391 33.9142 25.4142C33.5391 25.7893 33.0304 26 32.5 26H26.5V32Z" fill="black" fill-opacity="0.3"/>
</svg>
