<svg width="18" height="18" viewBox="0 0 18 18" fill="none" xmlns="http://www.w3.org/2000/svg">
<path d="M2.43642 1.78256L15.9814 8.26063C16.1183 8.326 16.2339 8.42879 16.3149 8.55712C16.3958 8.68544 16.4387 8.83406 16.4387 8.98577C16.4387 9.13748 16.3958 9.2861 16.3149 9.41442C16.2339 9.54275 16.1183 9.64554 15.9814 9.71091L2.43642 16.189C2.29757 16.2555 2.14253 16.2807 1.98975 16.2616C1.83698 16.2426 1.6929 16.18 1.57465 16.0814C1.45641 15.9828 1.36898 15.8523 1.32277 15.7054C1.27656 15.5586 1.27352 15.4015 1.314 15.253L2.66914 10.285C2.68573 10.2241 2.71987 10.1694 2.76731 10.1278C2.81475 10.0862 2.8734 10.0595 2.93592 10.051L9.4995 9.15934C9.52693 9.15544 9.55289 9.14451 9.57486 9.12761C9.59682 9.11072 9.61405 9.08843 9.62485 9.06291L9.63643 9.02306C9.6415 8.98716 9.63428 8.95061 9.61596 8.91934C9.59764 8.88806 9.56928 8.8639 9.5355 8.85077L9.50014 8.84113L2.943 7.94948C2.88058 7.94086 2.82208 7.91408 2.77476 7.87248C2.72744 7.83087 2.6934 7.77628 2.67685 7.71548L1.314 2.7192C1.27335 2.57061 1.27627 2.41347 1.32241 2.2665C1.36856 2.11952 1.45597 1.98891 1.57424 1.89021C1.69252 1.79151 1.83667 1.72889 1.98953 1.70981C2.14239 1.69072 2.29751 1.71597 2.43642 1.78256Z" fill="white"/>
</svg>
