<svg width="32" height="32" viewBox="0 0 32 32" fill="none" xmlns="http://www.w3.org/2000/svg">
<path d="M16 3C13.4288 3 10.9154 3.76244 8.77759 5.1909C6.63975 6.61935 4.97351 8.64968 3.98957 11.0251C3.00563 13.4006 2.74819 16.0144 3.2498 18.5362C3.75141 21.0579 4.98953 23.3743 6.80762 25.1924C8.6257 27.0105 10.9421 28.2486 13.4638 28.7502C15.9856 29.2518 18.5995 28.9944 20.9749 28.0104C23.3503 27.0265 25.3807 25.3603 26.8091 23.2224C28.2376 21.0846 29 18.5712 29 16C28.9934 12.5542 27.6216 9.25145 25.1851 6.81491C22.7486 4.37837 19.4458 3.00661 16 3ZM16 23.5C15.7033 23.5 15.4133 23.412 15.1667 23.2472C14.92 23.0824 14.7277 22.8481 14.6142 22.574C14.5007 22.2999 14.471 21.9983 14.5288 21.7074C14.5867 21.4164 14.7296 21.1491 14.9393 20.9393C15.1491 20.7296 15.4164 20.5867 15.7074 20.5288C15.9983 20.4709 16.2999 20.5007 16.574 20.6142C16.8481 20.7277 17.0824 20.92 17.2472 21.1666C17.412 21.4133 17.5 21.7033 17.5 22C17.5 22.3978 17.342 22.7794 17.0607 23.0607C16.7794 23.342 16.3978 23.5 16 23.5ZM16 17.5C15.7033 17.5 15.4133 17.412 15.1667 17.2472C14.92 17.0824 14.7277 16.8481 14.6142 16.574C14.5007 16.2999 14.471 15.9983 14.5288 15.7074C14.5867 15.4164 14.7296 15.1491 14.9393 14.9393C15.1491 14.7296 15.4164 14.5867 15.7074 14.5288C15.9983 14.4709 16.2999 14.5006 16.574 14.6142C16.8481 14.7277 17.0824 14.92 17.2472 15.1666C17.412 15.4133 17.5 15.7033 17.5 16C17.5 16.3978 17.342 16.7794 17.0607 17.0607C16.7794 17.342 16.3978 17.5 16 17.5ZM16 11.5C15.7033 11.5 15.4133 11.412 15.1667 11.2472C14.92 11.0824 14.7277 10.8481 14.6142 10.574C14.5007 10.2999 14.471 9.99834 14.5288 9.70736C14.5867 9.41639 14.7296 9.14912 14.9393 8.93934C15.1491 8.72956 15.4164 8.5867 15.7074 8.52882C15.9983 8.47094 16.2999 8.50065 16.574 8.61418C16.8481 8.72771 17.0824 8.91997 17.2472 9.16665C17.412 9.41332 17.5 9.70333 17.5 10C17.5 10.3978 17.342 10.7794 17.0607 11.0607C16.7794 11.342 16.3978 11.5 16 11.5Z" fill="#58B4D1"/>
</svg>
