<svg width="33" height="32" viewBox="0 0 33 32" fill="none" xmlns="http://www.w3.org/2000/svg">
<path d="M27.3694 24.93C28.8055 23.2021 29.8043 21.1537 30.2814 18.9582C30.7584 16.7626 30.6997 14.4845 30.11 12.3164C29.5204 10.1484 28.4173 8.15423 26.894 6.50268C25.3707 4.85112 23.472 3.59075 21.3586 2.82818C19.2452 2.06561 16.9792 1.82328 14.7523 2.12168C12.5254 2.42008 10.4032 3.25043 8.56508 4.5425C6.72698 5.83457 5.22711 7.55034 4.19235 9.54467C3.1576 11.539 2.6184 13.7532 2.62037 16C2.62112 19.2662 3.77211 22.4278 5.87137 24.93L5.85137 24.947C5.92137 25.031 6.00137 25.103 6.07337 25.186C6.16337 25.289 6.26037 25.386 6.35337 25.486C6.63337 25.79 6.92137 26.082 7.22337 26.356C7.31537 26.44 7.41037 26.518 7.50337 26.598C7.82337 26.874 8.15237 27.136 8.49337 27.38C8.53737 27.41 8.57737 27.449 8.62137 27.48V27.468C10.9635 29.1162 13.7575 30.0007 16.6214 30.0007C19.4853 30.0007 22.2793 29.1162 24.6214 27.468V27.48C24.6654 27.449 24.7044 27.41 24.7494 27.38C25.0894 27.135 25.4194 26.874 25.7394 26.598C25.8324 26.518 25.9274 26.439 26.0194 26.356C26.3214 26.081 26.6094 25.79 26.8894 25.486C26.9824 25.386 27.0784 25.289 27.1694 25.186C27.2404 25.103 27.3214 25.031 27.3914 24.946L27.3694 24.93ZM16.6204 8C17.5104 8 18.3804 8.26392 19.1204 8.75838C19.8605 9.25285 20.4372 9.95566 20.7778 10.7779C21.1184 11.6002 21.2075 12.505 21.0339 13.3779C20.8603 14.2508 20.4317 15.0526 19.8023 15.682C19.173 16.3113 18.3712 16.7399 17.4983 16.9135C16.6254 17.0872 15.7206 16.998 14.8983 16.6575C14.076 16.3169 13.3732 15.7401 12.8788 15.0001C12.3843 14.26 12.1204 13.39 12.1204 12.5C12.1204 11.3065 12.5945 10.1619 13.4384 9.31802C14.2823 8.4741 15.4269 8 16.6204 8ZM8.62737 24.93C8.64471 23.617 9.17831 22.3636 10.1127 21.4409C11.0471 20.5183 12.3072 20.0007 13.6204 20H19.6204C20.9335 20.0007 22.1936 20.5183 23.128 21.4409C24.0624 22.3636 24.596 23.617 24.6134 24.93C22.4202 26.9063 19.5726 28.0001 16.6204 28.0001C13.6681 28.0001 10.8205 26.9063 8.62737 24.93Z" fill="white"/>
</svg>
