<svg width="18" height="19" viewBox="0 0 18 19" fill="none" xmlns="http://www.w3.org/2000/svg">
<path d="M3.375 17.375H14.625V14.5625C14.6238 13.5186 14.2086 12.5177 13.4704 11.7796C12.7323 11.0414 11.7314 10.6262 10.6875 10.625H7.3125C6.26858 10.6262 5.26775 11.0414 4.52958 11.7796C3.79142 12.5177 3.37619 13.5186 3.375 14.5625V17.375ZM5.0625 5.5625C5.0625 6.34126 5.29343 7.10254 5.72609 7.75006C6.15875 8.39758 6.7737 8.90226 7.49318 9.20028C8.21267 9.4983 9.00437 9.57627 9.76817 9.42434C10.532 9.27241 11.2336 8.8974 11.7842 8.34673C12.3349 7.79606 12.7099 7.09447 12.8618 6.33067C13.0138 5.56687 12.9358 4.77517 12.6378 4.05568C12.3398 3.3362 11.8351 2.72125 11.1876 2.28859C10.54 1.85593 9.77876 1.625 9 1.625C7.95571 1.625 6.95419 2.03984 6.21577 2.77827C5.47734 3.51669 5.0625 4.51821 5.0625 5.5625Z" fill="black" fill-opacity="0.3"/>
</svg>
