<svg width="14" height="22" viewBox="0 0 14 22" fill="none" xmlns="http://www.w3.org/2000/svg">
<path fill-rule="evenodd" clip-rule="evenodd" d="M6.14336 0.800049C7.11656 0.800049 7.90423 1.61101 7.90423 2.58421C7.90423 3.55717 7.11656 4.36813 6.14336 4.36813C5.17016 4.36813 4.3592 3.55717 4.3592 2.58421C4.3592 1.61101 5.1704 0.800049 6.14336 0.800049ZM6.25927 4.53037C6.92887 4.50949 7.44655 4.92613 7.71896 5.36461L9.57247 8.44621L12.8163 9.81325C13.743 10.2068 13.3028 11.4349 12.2602 11.157C12.2229 11.1317 12.1842 11.1084 12.1443 11.0874L9.96632 15.9066C9.96632 15.9066 10.6614 17.5055 11.5419 19.3129C12.3992 21.1432 10.3138 21.9311 9.5492 20.2396L8.7848 18.525L7.67263 20.9579L7.20919 20.7493L8.50664 17.9226L6.32864 13.173C6.236 13.196 6.14335 13.173 6.02743 13.173C6.02743 13.173 3.50192 18.9188 2.80664 20.4251C2.13488 21.9311 0.142396 21.0275 0.814156 19.5443C1.48616 18.0616 4.68368 10.8558 4.68368 10.8558L2.30696 10.8947C1.94696 10.8978 1.8608 10.8404 1.838 10.5707C1.80128 9.85789 1.7384 8.18077 1.90328 7.40341C2.11592 6.40141 2.24288 5.29861 2.94584 4.97053C3.64904 4.64245 4.86896 5.54989 4.86896 5.54989C5.05423 4.94749 5.63359 4.53037 6.25927 4.53037ZM7.69567 8.14477V10.9256L9.6884 15.2816L11.6809 10.9024L8.7848 9.69757C8.6456 9.62797 8.52992 9.53533 8.43704 9.39637L7.69567 8.14477Z" fill="#58B4D1"/>
</svg>
