<svg width="21" height="21" viewBox="0 0 21 21" fill="none" xmlns="http://www.w3.org/2000/svg">
<path d="M10.5 15.0649C9.17392 15.0649 7.90215 14.5382 6.96447 13.6005C6.02678 12.6628 5.5 11.391 5.5 10.0649C5.5 8.73886 6.02678 7.46709 6.96447 6.52941C7.90215 5.59173 9.17392 5.06494 10.5 5.06494C11.8261 5.06494 13.0979 5.59173 14.0355 6.52941C14.9732 7.46709 15.5 8.73886 15.5 10.0649C15.5 11.391 14.9732 12.6628 14.0355 13.6005C13.0979 14.5382 11.8261 15.0649 10.5 15.0649ZM10.5 0.0649414C10.7652 0.0649414 11.0196 0.170298 11.2071 0.357835C11.3946 0.545371 11.5 0.799725 11.5 1.06494V3.06494C11.5 3.33016 11.3946 3.58451 11.2071 3.77205C11.0196 3.95958 10.7652 4.06494 10.5 4.06494C10.2348 4.06494 9.98043 3.95958 9.79289 3.77205C9.60536 3.58451 9.5 3.33016 9.5 3.06494V1.06494C9.5 0.799725 9.60536 0.545371 9.79289 0.357835C9.98043 0.170298 10.2348 0.0649414 10.5 0.0649414ZM10.5 16.0649C10.7652 16.0649 11.0196 16.1703 11.2071 16.3578C11.3946 16.5454 11.5 16.7997 11.5 17.0649V19.0649C11.5 19.3302 11.3946 19.5845 11.2071 19.772C11.0196 19.9596 10.7652 20.0649 10.5 20.0649C10.2348 20.0649 9.98043 19.9596 9.79289 19.772C9.60536 19.5845 9.5 19.3302 9.5 19.0649V17.0649C9.5 16.7997 9.60536 16.5454 9.79289 16.3578C9.98043 16.1703 10.2348 16.0649 10.5 16.0649ZM1.5 9.06494H3.5C3.76522 9.06494 4.01957 9.1703 4.20711 9.35783C4.39464 9.54537 4.5 9.79972 4.5 10.0649C4.5 10.3302 4.39464 10.5845 4.20711 10.772C4.01957 10.9596 3.76522 11.0649 3.5 11.0649H1.5C1.23478 11.0649 0.98043 10.9596 0.792893 10.772C0.605357 10.5845 0.5 10.3302 0.5 10.0649C0.5 9.79972 0.605357 9.54537 0.792893 9.35783C0.98043 9.1703 1.23478 9.06494 1.5 9.06494ZM17.5 9.06494H19.5C19.7652 9.06494 20.0196 9.1703 20.2071 9.35783C20.3946 9.54537 20.5 9.79972 20.5 10.0649C20.5 10.3302 20.3946 10.5845 20.2071 10.772C20.0196 10.9596 19.7652 11.0649 19.5 11.0649H17.5C17.2348 11.0649 16.9804 10.9596 16.7929 10.772C16.6054 10.5845 16.5 10.3302 16.5 10.0649C16.5 9.79972 16.6054 9.54537 16.7929 9.35783C16.9804 9.1703 17.2348 9.06494 17.5 9.06494ZM17.571 2.99394C17.7585 3.18147 17.8638 3.43578 17.8638 3.70094C17.8638 3.96611 17.7585 4.22041 17.571 4.40794L16.157 5.82194C16.0648 5.91745 15.9544 5.99363 15.8324 6.04604C15.7104 6.09845 15.5792 6.12604 15.4464 6.12719C15.3136 6.12835 15.1819 6.10304 15.059 6.05276C14.9361 6.00248 14.8245 5.92823 14.7306 5.83434C14.6367 5.74044 14.5625 5.62879 14.5122 5.5059C14.4619 5.383 14.4366 5.25132 14.4377 5.11854C14.4389 4.98576 14.4665 4.85454 14.5189 4.73254C14.5713 4.61053 14.6475 4.50019 14.743 4.40794L16.157 2.99394C16.3445 2.80647 16.5988 2.70115 16.864 2.70115C17.1292 2.70115 17.3835 2.80647 17.571 2.99394ZM6.257 14.3079C6.44447 14.4955 6.54979 14.7498 6.54979 15.0149C6.54979 15.2801 6.44447 15.5344 6.257 15.7219L4.843 17.1359C4.75075 17.2315 4.64041 17.3076 4.5184 17.36C4.3964 17.4125 4.26518 17.44 4.1324 17.4412C3.99962 17.4423 3.86794 17.417 3.74505 17.3668C3.62215 17.3165 3.5105 17.2422 3.4166 17.1483C3.32271 17.0544 3.24846 16.9428 3.19818 16.8199C3.1479 16.697 3.1226 16.5653 3.12375 16.4325C3.1249 16.2998 3.15249 16.1685 3.2049 16.0465C3.25731 15.9245 3.33349 15.8142 3.429 15.7219L4.843 14.3079C5.03053 14.1205 5.28484 14.0152 5.55 14.0152C5.81516 14.0152 6.06947 14.1205 6.257 14.3079ZM4.843 2.99394L6.257 4.40794C6.43916 4.59654 6.53995 4.84915 6.53767 5.11134C6.5354 5.37354 6.43023 5.62435 6.24482 5.80976C6.05941 5.99517 5.8086 6.10034 5.5464 6.10262C5.2842 6.10489 5.0316 6.0041 4.843 5.82194L3.43 4.40794C3.24784 4.21934 3.14705 3.96674 3.14933 3.70454C3.1516 3.44234 3.25677 3.19153 3.44218 3.00612C3.62759 2.82071 3.8784 2.71555 4.1406 2.71327C4.4028 2.71099 4.6554 2.81178 4.844 2.99394H4.843ZM16.157 14.3079L17.571 15.7219C17.7532 15.9105 17.854 16.1631 17.8517 16.4253C17.8494 16.6875 17.7442 16.9384 17.5588 17.1238C17.3734 17.3092 17.1226 17.4143 16.8604 17.4166C16.5982 17.4189 16.3456 17.3181 16.157 17.1359L14.743 15.7219C14.6475 15.6297 14.5713 15.5194 14.5189 15.3973C14.4665 15.2753 14.4389 15.1441 14.4377 15.0113C14.4366 14.8786 14.4619 14.7469 14.5122 14.624C14.5625 14.5011 14.6367 14.3894 14.7306 14.2955C14.8245 14.2017 14.9361 14.1274 15.059 14.0771C15.1819 14.0268 15.3136 14.0015 15.4464 14.0027C15.5792 14.0038 15.7104 14.0314 15.8324 14.0838C15.9544 14.1362 16.0648 14.2124 16.157 14.3079Z" fill="#58B4D1"/>
</svg>
