<svg width="34" height="26" viewBox="0 0 34 26" fill="none" xmlns="http://www.w3.org/2000/svg">
<path d="M4.39995 0.399902C3.28604 0.399902 2.21776 0.842401 1.4301 1.63005C0.64245 2.41771 0.199951 3.48599 0.199951 4.5999V6.6999H33.7999V4.5999C33.7999 3.48599 33.3574 2.41771 32.5698 1.63005C31.7821 0.842401 30.7139 0.399902 29.5999 0.399902H4.39995Z" fill="#58B4D1"/>
<path fill-rule="evenodd" clip-rule="evenodd" d="M33.7999 10.8999H0.199951V21.3999C0.199951 22.5138 0.64245 23.5821 1.4301 24.3698C2.21776 25.1574 3.28604 25.5999 4.39995 25.5999H29.5999C30.7139 25.5999 31.7821 25.1574 32.5698 24.3698C33.3574 23.5821 33.7999 22.5138 33.7999 21.3999V10.8999ZM4.39995 19.2999C4.39995 18.7429 4.6212 18.2088 5.01503 17.815C5.40885 17.4212 5.943 17.1999 6.49995 17.1999H8.59995C9.15691 17.1999 9.69105 17.4212 10.0849 17.815C10.4787 18.2088 10.7 18.7429 10.7 19.2999C10.7 19.8569 10.4787 20.391 10.0849 20.7848C9.69105 21.1787 9.15691 21.3999 8.59995 21.3999H6.49995C5.943 21.3999 5.40885 21.1787 5.01503 20.7848C4.6212 20.391 4.39995 19.8569 4.39995 19.2999ZM14.9 17.1999C14.343 17.1999 13.8089 17.4212 13.415 17.815C13.0212 18.2088 12.8 18.7429 12.8 19.2999C12.8 19.8569 13.0212 20.391 13.415 20.7848C13.8089 21.1787 14.343 21.3999 14.9 21.3999H17C17.5569 21.3999 18.091 21.1787 18.4849 20.7848C18.8787 20.391 19.1 19.8569 19.1 19.2999C19.1 18.7429 18.8787 18.2088 18.4849 17.815C18.091 17.4212 17.5569 17.1999 17 17.1999H14.9Z" fill="#58B4D1"/>
</svg>
