<svg width="34" height="40" viewBox="0 0 34 40" fill="none" xmlns="http://www.w3.org/2000/svg">
<path d="M32.4584 7.63333C29.8147 6.92775 27.232 6.01091 24.7351 4.89167C22.2786 3.82605 19.9072 2.57406 17.6417 1.14667L17.0001 0.75L16.3701 1.15833C14.1046 2.58573 11.7332 3.83772 9.27675 4.90333C6.77575 6.01918 4.18909 6.93212 1.54175 7.63333L0.666748 7.855V17.585C0.666748 33.2067 16.4517 39.0517 16.6034 39.11L17.0001 39.25L17.3967 39.11C17.5601 39.11 33.3334 33.2183 33.3334 17.585V7.855L32.4584 7.63333ZM27.1268 15.3917L14.0951 28.05L6.72175 20.665C6.41233 20.3556 6.2385 19.9359 6.2385 19.4983C6.2385 19.0607 6.41233 18.6411 6.72175 18.3317C7.03117 18.0222 7.45083 17.8484 7.88841 17.8484C8.326 17.8484 8.74566 18.0222 9.05508 18.3317L14.1301 23.5L24.8517 13C25.005 12.8468 25.1868 12.7253 25.387 12.6423C25.5872 12.5594 25.8017 12.5168 26.0184 12.5168C26.2351 12.5168 26.4496 12.5594 26.6498 12.6423C26.85 12.7253 27.0319 12.8468 27.1851 13C27.3383 13.1532 27.4598 13.3351 27.5427 13.5353C27.6257 13.7354 27.6683 13.95 27.6683 14.1667C27.6683 14.3833 27.6257 14.5979 27.5427 14.7981C27.4598 14.9982 27.3383 15.1801 27.1851 15.3333L27.1268 15.3917Z" fill="#58B4D1"/>
</svg>
