<svg width="22" height="18" viewBox="0 0 22 18" fill="none" xmlns="http://www.w3.org/2000/svg">
<path d="M19.25 11.9062V15.75C19.25 16.1478 19.092 16.5294 18.8107 16.8107C18.5294 17.092 18.1478 17.25 17.75 17.25H4.25C3.85218 17.25 3.47064 17.092 3.18934 16.8107C2.90804 16.5294 2.75 16.1478 2.75 15.75V11.9062C2.20678 11.766 1.71377 11.4762 1.32697 11.0698C0.940171 10.6634 0.675076 10.1567 0.561793 9.60726C0.44851 9.05778 0.491579 8.48755 0.686109 7.96131C0.880639 7.43508 1.21883 6.97394 1.66229 6.63027C2.10574 6.28659 2.63667 6.07415 3.1948 6.01708C3.75293 5.96 4.31587 6.06058 4.81971 6.30738C5.32355 6.55418 5.74808 6.93732 6.0451 7.41328C6.34212 7.88925 6.49972 8.43896 6.5 9V12.75C6.5 12.9489 6.57902 13.1397 6.71967 13.2803C6.86032 13.421 7.05109 13.5 7.25 13.5C7.44891 13.5 7.63968 13.421 7.78033 13.2803C7.92098 13.1397 8 12.9489 8 12.75V9.75H14V12.75C14 12.9489 14.079 13.1397 14.2197 13.2803C14.3603 13.421 14.5511 13.5 14.75 13.5C14.9489 13.5 15.1397 13.421 15.2803 13.2803C15.421 13.1397 15.5 12.9489 15.5 12.75V9C15.5003 8.43896 15.6579 7.88925 15.9549 7.41328C16.2519 6.93732 16.6765 6.55418 17.1803 6.30738C17.6841 6.06058 18.2471 5.96 18.8052 6.01708C19.3633 6.07415 19.8943 6.28659 20.3377 6.63027C20.7812 6.97394 21.1194 7.43508 21.3139 7.96131C21.5084 8.48755 21.5515 9.05778 21.4382 9.60726C21.3249 10.1567 21.0598 10.6634 20.673 11.0698C20.2862 11.4762 19.7932 11.766 19.25 11.9062ZM7.93437 8.25H14.0656C14.2428 7.20189 14.7853 6.25033 15.5969 5.56393C16.4086 4.87754 17.437 4.50063 18.5 4.5H18.8469C18.8979 4.50527 18.9496 4.49972 18.9983 4.48372C19.0471 4.46772 19.092 4.44162 19.13 4.40713C19.168 4.37264 19.1984 4.33052 19.2191 4.28353C19.2397 4.23654 19.2503 4.18571 19.25 4.13437V3.75C19.25 2.75544 18.8549 1.80161 18.1516 1.09835C17.4484 0.395088 16.4946 0 15.5 0H6.5C5.50544 0 4.55161 0.395088 3.84835 1.09835C3.14509 1.80161 2.75 2.75544 2.75 3.75V4.14375C2.74973 4.19509 2.76027 4.24591 2.78095 4.2929C2.80162 4.3399 2.83196 4.38201 2.86999 4.4165C2.90802 4.45099 2.95288 4.47709 3.00167 4.49309C3.05045 4.50909 3.10206 4.51464 3.15312 4.50937H3.5C4.56162 4.50963 5.58896 4.88521 6.40043 5.56973C7.2119 6.25424 7.75523 7.20361 7.93437 8.25Z" fill="black"/>
</svg>
