<svg width="20" height="16" viewBox="0 0 20 16" fill="none" xmlns="http://www.w3.org/2000/svg">
<path d="M15.7188 7.6626V15.8376H19.8062V7.6626H15.7188ZM16.9 8.4876H18.5312V10.1188H16.9V8.4876ZM16.9 10.9438H18.5312V12.5751H16.9V10.9438ZM16.9 13.4938H18.5312V15.1251H16.9V13.4938Z" fill="black"/>
<path d="M0.175293 7.6626V15.8376H4.26279V7.6626H0.175293ZM1.35654 8.4876H2.98779V10.1188H1.35654V8.4876ZM1.35654 10.9438H2.98779V12.5751H1.35654V10.9438ZM1.35654 13.4938H2.98779V15.1251H1.35654V13.4938Z" fill="black"/>
<path d="M5.08765 5.2064V15.8376H9.17515V12.5751H10.8064V15.8564H14.8939V5.2064L10.0001 1.1189L5.08765 5.2064ZM7.5439 12.0501H5.91265V10.4189H7.5439V12.0501ZM7.5439 9.53764H5.91265V7.9064H7.5439V9.53764ZM7.5439 6.98765H5.91265V5.3564H7.5439V6.98765ZM10.8251 12.0501H9.1939V10.4189H10.8251V12.0501ZM10.8251 9.53764H9.1939V7.9064H10.8251V9.53764ZM12.4001 5.33765H14.0314V6.9689H12.4001V5.33765ZM12.4001 7.9064H14.0314V9.53764H12.4001V7.9064ZM12.4001 10.4001H14.0314V12.0314H12.4001V10.4001ZM10.8251 6.98765H9.1939V5.3564H10.8251V6.98765Z" fill="black"/>
<path d="M10.0003 0.162598L4.11279 5.20635L4.45029 5.6001L10.0003 0.837597L15.5503 5.6001L15.8878 5.20635L10.0003 0.162598Z" fill="black"/>
<path d="M19.8062 6.9502H15.7188V7.45645H19.8062V6.9502Z" fill="black"/>
<path d="M4.26279 6.9502H0.175293V7.45644H4.26279V6.9502Z" fill="black"/>
</svg>
