<svg width="20" height="22" viewBox="0 0 20 22" fill="none" xmlns="http://www.w3.org/2000/svg">
<path d="M18.8332 3.93333C17.3225 3.53014 15.8466 3.00623 14.4198 2.36667C13.0161 1.75774 11.6611 1.04232 10.3665 0.226667L9.99984 0L9.63984 0.233333C8.34528 1.04899 6.99021 1.76441 5.5865 2.37333C4.15736 3.01096 2.67927 3.53264 1.1665 3.93333L0.666504 4.06V9.62C0.666504 18.5467 9.6865 21.8867 9.77317 21.92L9.99984 22L10.2265 21.92C10.3198 21.92 19.3332 18.5533 19.3332 9.62V4.06L18.8332 3.93333ZM15.7865 8.36667L8.33984 15.6L4.1265 11.38C3.94969 11.2032 3.85036 10.9634 3.85036 10.7133C3.85036 10.4633 3.94969 10.2235 4.1265 10.0467C4.30331 9.86986 4.54312 9.77052 4.79317 9.77052C5.04322 9.77052 5.28303 9.86986 5.45984 10.0467L8.35984 13L14.4865 7C14.5741 6.91245 14.678 6.84301 14.7924 6.79562C14.9068 6.74824 15.0294 6.72386 15.1532 6.72386C15.277 6.72386 15.3996 6.74824 15.514 6.79562C15.6284 6.84301 15.7323 6.91245 15.8198 7C15.9074 7.08755 15.9768 7.19148 16.0242 7.30587C16.0716 7.42026 16.096 7.54286 16.096 7.66667C16.096 7.79048 16.0716 7.91308 16.0242 8.02746C15.9768 8.14185 15.9074 8.24579 15.8198 8.33333L15.7865 8.36667Z" fill="#58B4D1"/>
</svg>
